M48
; DRILL file {KiCad 9.0.3} date 2025-07-20T17:02:37+0800
; FORMAT={-:-/ absolute / inch / decimal}
; #@! TF.CreationDate,2025-07-20T17:02:37+08:00
; #@! TF.GenerationSoftware,Kicad,Pcbnew,9.0.3
; #@! TF.FileFunction,Plated,1,2,PTH
FMAT,2
INCH
; #@! TA.AperFunction,Plated,PTH,ViaDrill
T1C0.0118
; #@! TA.AperFunction,Plated,PTH,ComponentDrill
T2C0.0197
; #@! TA.AperFunction,Plated,PTH,ComponentDrill
T3C0.0335
; #@! TA.AperFunction,Plated,PTH,ComponentDrill
T4C0.0394
; #@! TA.AperFunction,Plated,PTH,ComponentDrill
T5C0.0472
; #@! TA.AperFunction,Plated,PTH,ComponentDrill
T6C0.0866
%
G90
G05
T1
X5.7874Y-3.8504
X5.8976Y-3.8504
X5.8976Y-3.9114
X5.9213Y-3.563
X5.9213Y-3.5906
X5.9213Y-4.5669
X5.9213Y-4.5984
X5.9213Y-4.6299
X5.9213Y-4.6614
X5.9488Y-3.563
X5.9488Y-3.5906
X5.9528Y-4.5669
X5.9528Y-4.5984
X5.9528Y-4.6299
X5.9528Y-4.6614
X5.9764Y-3.563
X5.9764Y-3.5906
X5.9764Y-4.4961
X6.0039Y-3.563
X6.0039Y-3.5906
X6.0079Y-3.9705
X6.0079Y-4.0
X6.0283Y-3.3372
X6.0945Y-4.3622
X6.107Y-3.3334
X6.1417Y-4.4537
X6.1513Y-3.4136
X6.1752Y-3.9902
X6.1752Y-4.0197
X6.2293Y-4.6378
X6.2343Y-4.5699
X6.252Y-3.4803
X6.2835Y-3.4094
X6.2835Y-3.437
X6.2835Y-3.4803
X6.311Y-3.4094
X6.311Y-3.437
X6.315Y-3.4803
X6.3386Y-3.4094
X6.3386Y-3.437
X6.3553Y-4.3622
X6.3661Y-3.4094
X6.3661Y-3.437
X6.4154Y-4.5197
X6.4173Y-4.4252
X6.4173Y-4.4567
X6.4331Y-3.8661
X6.4331Y-3.8976
X6.4331Y-4.6142
X6.4331Y-4.6457
X6.4488Y-4.4252
X6.4488Y-4.4567
X6.4567Y-3.6457
X6.4567Y-3.6772
X6.4567Y-3.7087
X6.4567Y-3.7402
X6.4567Y-3.7717
X6.4567Y-3.8031
X6.4646Y-3.8661
X6.4646Y-3.8976
X6.4646Y-4.6142
X6.4646Y-4.6457
X6.4803Y-4.4252
X6.4803Y-4.4567
X6.5394Y-4.5679
X6.5512Y-3.4567
X6.5679Y-3.9715
X6.5679Y-4.001
X6.5679Y-4.0305
X6.5679Y-4.06
X6.5679Y-4.0896
X6.5679Y-3.9419
X6.5748Y-3.5984
X6.5748Y-3.6378
X6.5955Y-3.9104
X6.6083Y-3.7116
X6.6171Y-3.5974
X6.6171Y-3.6368
X6.627Y-4.0502
X6.627Y-4.0797
X6.6368Y-3.7785
X6.6467Y-3.5974
X6.6467Y-3.6368
X6.6565Y-4.0502
X6.6565Y-4.0797
X6.6762Y-3.7648
X6.6762Y-3.7943
X6.6762Y-3.8238
X6.6791Y-3.2992
X6.686Y-4.0502
X6.686Y-4.0797
X6.7057Y-3.7648
X6.7057Y-3.7943
X6.7057Y-3.8238
X6.7352Y-4.4321
X6.751Y-4.0354
X6.753Y-3.7254
X6.7638Y-4.2677
X6.7953Y-3.7165
X6.814Y-3.6713
X6.8425Y-4.3543
X6.8652Y-4.3073
X6.8976Y-3.4882
X6.9055Y-4.2953
X6.9134Y-4.5522
X6.9264Y-4.3673
X6.9724Y-4.5522
X7.0551Y-3.6063
X7.2205Y-3.6693
X7.2205Y-3.7008
X7.252Y-3.6693
X7.252Y-3.7008
X7.2835Y-3.6693
X7.2835Y-3.7008
X7.4331Y-3.4609
T2
X6.7323Y-3.4055
X6.7323Y-3.4449
X7.3366Y-3.8829
X7.3878Y-3.8829
T3
X5.7891Y-3.6685
X5.7891Y-4.2685
X5.8891Y-3.6685
X5.8891Y-4.2685
X5.9891Y-3.6685
X5.9891Y-4.2685
X6.0891Y-3.6685
X6.0891Y-4.2685
X6.1891Y-3.6685
X6.1891Y-4.2685
X6.2891Y-3.6685
X6.2891Y-4.2685
X6.3891Y-3.6685
X6.3891Y-4.2685
T4
X5.6904Y-4.3937
X5.7904Y-4.3937
X6.6152Y-4.188
X6.6467Y-4.3228
X6.7467Y-4.3228
X6.8134Y-4.1781
X6.9134Y-4.1781
X6.9315Y-3.3307
X6.9813Y-3.6663
X6.9813Y-3.8583
X7.0315Y-3.3307
X7.1102Y-3.6685
X7.1102Y-3.7685
X7.1102Y-3.8685
X7.1102Y-3.9685
X7.1102Y-4.0685
X7.1102Y-4.1685
X7.1102Y-4.2685
T5
X6.5531Y-3.248
X6.5531Y-4.689
X6.6437Y-3.248
X6.6437Y-4.689
T6
X5.7028Y-3.2992
X5.7028Y-4.6378
X7.4941Y-3.2992
X7.4941Y-4.6378
M30
