%TF.GenerationSoftware,KiCad,Pcbnew,9.0.3*%
%TF.CreationDate,2025-07-21T16:47:40+08:00*%
%TF.ProjectId,pcb_all,7063625f-616c-46c2-9e6b-696361645f70,1*%
%TF.SameCoordinates,Original*%
%TF.FileFunction,Legend,Bot*%
%TF.FilePolarity,Positive*%
%FSLAX46Y46*%
G04 Gerber Fmt 4.6, Leading zero omitted, Abs format (unit mm)*
G04 Created by KiCad (PCBNEW 9.0.3) date 2025-07-21 16:47:40*
%MOMM*%
%LPD*%
G01*
G04 APERTURE LIST*
G04 Aperture macros list*
%AMRoundRect*
0 Rectangle with rounded corners*
0 $1 Rounding radius*
0 $2 $3 $4 $5 $6 $7 $8 $9 X,Y pos of 4 corners*
0 Add a 4 corners polygon primitive as box body*
4,1,4,$2,$3,$4,$5,$6,$7,$8,$9,$2,$3,0*
0 Add four circle primitives for the rounded corners*
1,1,$1+$1,$2,$3*
1,1,$1+$1,$4,$5*
1,1,$1+$1,$6,$7*
1,1,$1+$1,$8,$9*
0 Add four rect primitives between the rounded corners*
20,1,$1+$1,$2,$3,$4,$5,0*
20,1,$1+$1,$4,$5,$6,$7,0*
20,1,$1+$1,$6,$7,$8,$9,0*
20,1,$1+$1,$8,$9,$2,$3,0*%
G04 Aperture macros list end*
%ADD10C,0.000000*%
%ADD11C,0.200000*%
%ADD12C,0.120000*%
%ADD13R,1.700000X1.700000*%
%ADD14C,1.700000*%
%ADD15C,1.600000*%
%ADD16C,3.800000*%
%ADD17C,1.212000*%
%ADD18RoundRect,0.102000X0.679000X-0.679000X0.679000X0.679000X-0.679000X0.679000X-0.679000X-0.679000X0*%
%ADD19C,1.562000*%
G04 APERTURE END LIST*
D10*
G36*
X185446411Y-115500271D02*
G01*
X187582998Y-116509985D01*
X187729247Y-116889593D01*
X187785740Y-117037282D01*
X187831445Y-117158784D01*
X187861684Y-117241523D01*
X187869542Y-117264425D01*
X187871400Y-117270572D01*
X187871780Y-117272920D01*
X187839999Y-117284387D01*
X187756215Y-117312862D01*
X187483588Y-117403672D01*
X187099114Y-117530707D01*
X186400000Y-117200000D01*
X185902281Y-116965308D01*
X185747783Y-116893034D01*
X185687371Y-116865445D01*
X185681888Y-116866306D01*
X185677434Y-116881087D01*
X185673512Y-116922823D01*
X185669628Y-117004551D01*
X185644567Y-117992088D01*
X185626090Y-118786851D01*
X185643232Y-118800655D01*
X185649151Y-118810790D01*
X185659396Y-118834239D01*
X185690220Y-118913495D01*
X185774681Y-119148327D01*
X185854272Y-119383771D01*
X185879009Y-119463790D01*
X185885297Y-119487737D01*
X185886650Y-119498445D01*
X185857813Y-119513068D01*
X185783848Y-119545654D01*
X185559051Y-119640441D01*
X185329287Y-119734250D01*
X185249114Y-119765614D01*
X185211586Y-119778527D01*
X185210132Y-119778766D01*
X185208658Y-119779059D01*
X185207176Y-119779401D01*
X185205694Y-119779788D01*
X185204224Y-119780217D01*
X185202776Y-119780682D01*
X185201359Y-119781180D01*
X185199985Y-119781706D01*
X185198662Y-119782258D01*
X185197402Y-119782830D01*
X185196214Y-119783418D01*
X185195109Y-119784020D01*
X185194097Y-119784629D01*
X185193188Y-119785243D01*
X185192392Y-119785858D01*
X185191719Y-119786468D01*
X185190026Y-119788081D01*
X185188415Y-119789411D01*
X185186843Y-119790439D01*
X185186059Y-119790834D01*
X185185269Y-119791146D01*
X185184469Y-119791372D01*
X185183651Y-119791511D01*
X185182813Y-119791560D01*
X185181947Y-119791515D01*
X185181050Y-119791376D01*
X185180115Y-119791140D01*
X185179138Y-119790803D01*
X185178113Y-119790364D01*
X185177035Y-119789820D01*
X185175899Y-119789168D01*
X185173432Y-119787534D01*
X185170669Y-119785441D01*
X185167568Y-119782869D01*
X185164089Y-119779800D01*
X185160188Y-119776213D01*
X185150955Y-119767408D01*
X185057794Y-119719075D01*
X184797427Y-119596488D01*
X183728152Y-119106765D01*
X182738714Y-118654085D01*
X182435539Y-118513482D01*
X182352029Y-118473922D01*
X182321597Y-118458403D01*
X182308241Y-118425380D01*
X182280367Y-118347887D01*
X182201169Y-118118604D01*
X182124217Y-117888782D01*
X182099149Y-117810616D01*
X182089722Y-117776650D01*
X182090864Y-117774462D01*
X182094307Y-117771468D01*
X182108400Y-117762929D01*
X182132616Y-117750759D01*
X182167567Y-117734682D01*
X182272133Y-117689712D01*
X182427006Y-117625825D01*
X182764161Y-117488341D01*
X183773179Y-117947522D01*
X184486804Y-118270774D01*
X184704675Y-118368296D01*
X184764341Y-118394490D01*
X184785625Y-118403147D01*
X184810647Y-117495329D01*
X184833158Y-116506782D01*
X184833053Y-116459706D01*
X183830795Y-115986137D01*
X182828537Y-115512570D01*
X182683438Y-115136173D01*
X182644113Y-115033774D01*
X182612455Y-114950371D01*
X182587848Y-114884196D01*
X182577997Y-114857015D01*
X182569678Y-114833477D01*
X182562814Y-114813361D01*
X182557328Y-114796446D01*
X182553143Y-114782511D01*
X182550183Y-114771334D01*
X182548370Y-114762693D01*
X182547870Y-114759255D01*
X182547627Y-114756369D01*
X182547633Y-114754006D01*
X182547878Y-114752139D01*
X182548352Y-114750741D01*
X182549045Y-114749783D01*
X182558851Y-114745232D01*
X182582795Y-114736069D01*
X182666774Y-114706118D01*
X182788324Y-114664347D01*
X182934788Y-114615173D01*
X183309823Y-114490558D01*
X185446411Y-115500271D01*
G37*
G36*
X151951660Y-96146739D02*
G01*
X151973939Y-96146939D01*
X151983101Y-96147139D01*
X151991165Y-96147427D01*
X151998298Y-96147818D01*
X152004664Y-96148329D01*
X152010429Y-96148974D01*
X152015760Y-96149771D01*
X152020821Y-96150734D01*
X152025779Y-96151880D01*
X152030799Y-96153224D01*
X152036046Y-96154782D01*
X152047887Y-96158603D01*
X152072791Y-96167626D01*
X152096779Y-96177904D01*
X152119827Y-96189416D01*
X152141914Y-96202137D01*
X152163015Y-96216045D01*
X152183109Y-96231115D01*
X152202173Y-96247326D01*
X152220184Y-96264654D01*
X152237119Y-96283075D01*
X152252956Y-96302566D01*
X152267672Y-96323105D01*
X152281244Y-96344667D01*
X152293651Y-96367230D01*
X152304868Y-96390771D01*
X152314873Y-96415266D01*
X152323644Y-96440692D01*
X152326689Y-96450839D01*
X152329049Y-96460239D01*
X152330809Y-96469895D01*
X152332057Y-96480810D01*
X152332877Y-96493986D01*
X152333357Y-96510426D01*
X152333581Y-96531132D01*
X152333637Y-96557108D01*
X152333608Y-96585088D01*
X152333412Y-96606660D01*
X152333201Y-96615509D01*
X152332886Y-96623313D01*
X152332448Y-96630258D01*
X152331865Y-96636531D01*
X152331118Y-96642316D01*
X152330186Y-96647800D01*
X152329048Y-96653168D01*
X152327684Y-96658606D01*
X152326074Y-96664299D01*
X152324197Y-96670434D01*
X152319559Y-96684771D01*
X152313028Y-96703280D01*
X152305697Y-96721382D01*
X152297583Y-96739055D01*
X152288705Y-96756276D01*
X152279081Y-96773023D01*
X152268730Y-96789273D01*
X152257670Y-96805003D01*
X152245920Y-96820190D01*
X152233497Y-96834813D01*
X152220420Y-96848848D01*
X152206708Y-96862272D01*
X152192379Y-96875064D01*
X152177452Y-96887199D01*
X152161944Y-96898656D01*
X152145874Y-96909412D01*
X152129261Y-96919444D01*
X152123201Y-96922791D01*
X152116618Y-96926201D01*
X152102166Y-96933103D01*
X152086460Y-96939937D01*
X152070060Y-96946490D01*
X152053521Y-96952547D01*
X152037402Y-96957896D01*
X152022260Y-96962324D01*
X152015229Y-96964125D01*
X152008651Y-96965616D01*
X152008651Y-96965617D01*
X152003454Y-96966347D01*
X151995515Y-96966982D01*
X151985230Y-96967510D01*
X151972993Y-96967921D01*
X151944242Y-96968352D01*
X151912420Y-96968188D01*
X151888167Y-96967763D01*
X151868802Y-96967230D01*
X151860634Y-96966887D01*
X151853305Y-96966475D01*
X151846688Y-96965978D01*
X151840655Y-96965383D01*
X151835079Y-96964675D01*
X151829832Y-96963840D01*
X151824787Y-96962863D01*
X151819816Y-96961731D01*
X151814791Y-96960428D01*
X151809585Y-96958941D01*
X151798120Y-96955357D01*
X151773957Y-96946765D01*
X151750598Y-96936902D01*
X151728072Y-96925798D01*
X151706408Y-96913483D01*
X151685638Y-96899985D01*
X151665790Y-96885336D01*
X151646894Y-96869563D01*
X151628980Y-96852698D01*
X151612077Y-96834770D01*
X151596215Y-96815808D01*
X151581424Y-96795842D01*
X151567734Y-96774902D01*
X151555173Y-96753017D01*
X151543773Y-96730218D01*
X151533562Y-96706533D01*
X151524570Y-96681992D01*
X151520678Y-96670120D01*
X151517728Y-96659872D01*
X151516565Y-96654936D01*
X151515588Y-96649901D01*
X151514782Y-96644599D01*
X151514129Y-96638861D01*
X151513221Y-96625408D01*
X151512733Y-96608195D01*
X151512536Y-96585877D01*
X151512499Y-96557109D01*
X151512536Y-96528340D01*
X151512733Y-96506022D01*
X151512932Y-96496862D01*
X151513221Y-96488809D01*
X151513614Y-96481697D01*
X151514129Y-96475356D01*
X151514782Y-96469619D01*
X151515588Y-96464316D01*
X151516565Y-96459281D01*
X151517728Y-96454345D01*
X151519094Y-96449340D01*
X151520678Y-96444097D01*
X151524570Y-96432225D01*
X151533544Y-96407713D01*
X151543720Y-96384071D01*
X151555070Y-96361325D01*
X151567571Y-96339500D01*
X151581198Y-96318620D01*
X151595923Y-96298712D01*
X151611724Y-96279801D01*
X151628573Y-96261911D01*
X151646447Y-96245068D01*
X151665320Y-96229297D01*
X151685166Y-96214624D01*
X151705961Y-96201074D01*
X151727679Y-96188671D01*
X151750295Y-96177441D01*
X151773784Y-96167410D01*
X151798120Y-96158603D01*
X151809960Y-96154782D01*
X151820228Y-96151880D01*
X151825185Y-96150734D01*
X151830247Y-96149771D01*
X151835577Y-96148974D01*
X151841343Y-96148329D01*
X151854842Y-96147427D01*
X151872068Y-96146939D01*
X151894347Y-96146739D01*
X151923003Y-96146700D01*
X151951660Y-96146739D01*
G37*
G36*
X151800000Y-97067482D02*
G01*
X152868293Y-97572338D01*
X152941418Y-97762143D01*
X152969665Y-97835987D01*
X152992517Y-97896738D01*
X153007636Y-97938107D01*
X153011565Y-97949558D01*
X153012494Y-97952632D01*
X153012684Y-97953806D01*
X152996794Y-97959540D01*
X152954902Y-97973777D01*
X152818589Y-98019182D01*
X152626352Y-98082699D01*
X152276794Y-97917346D01*
X152027935Y-97800000D01*
X151950686Y-97763863D01*
X151920480Y-97750069D01*
X151917739Y-97750499D01*
X151915511Y-97757889D01*
X151913551Y-97778758D01*
X151911609Y-97819622D01*
X151899078Y-98313390D01*
X151889839Y-98710772D01*
X151898411Y-98717673D01*
X151901370Y-98722741D01*
X151906492Y-98734466D01*
X151921905Y-98774093D01*
X151964135Y-98891509D01*
X152003930Y-99009231D01*
X152016299Y-99049241D01*
X152019443Y-99061214D01*
X152020120Y-99066569D01*
X152005701Y-99073880D01*
X151968719Y-99090173D01*
X151856320Y-99137566D01*
X151741438Y-99184471D01*
X151701352Y-99200153D01*
X151682588Y-99206609D01*
X151681860Y-99206729D01*
X151681124Y-99206876D01*
X151680382Y-99207047D01*
X151679642Y-99207240D01*
X151678907Y-99207454D01*
X151678183Y-99207687D01*
X151677474Y-99207936D01*
X151676787Y-99208199D01*
X151676126Y-99208475D01*
X151675495Y-99208761D01*
X151674902Y-99209055D01*
X151674349Y-99209356D01*
X151673843Y-99209661D01*
X151673388Y-99209968D01*
X151672990Y-99210275D01*
X151672654Y-99210580D01*
X151671808Y-99211386D01*
X151671002Y-99212051D01*
X151670216Y-99212566D01*
X151669824Y-99212763D01*
X151669429Y-99212919D01*
X151669029Y-99213032D01*
X151668620Y-99213101D01*
X151668201Y-99213126D01*
X151667768Y-99213104D01*
X151667319Y-99213034D01*
X151666852Y-99212916D01*
X151666363Y-99212747D01*
X151665851Y-99212528D01*
X151665312Y-99212256D01*
X151664744Y-99211930D01*
X151663510Y-99211113D01*
X151662129Y-99210066D01*
X151660579Y-99208781D01*
X151658839Y-99207246D01*
X151656888Y-99205452D01*
X151652272Y-99201050D01*
X151605691Y-99176883D01*
X151475508Y-99115590D01*
X150940870Y-98870729D01*
X150446151Y-98644388D01*
X150294564Y-98574087D01*
X150252809Y-98554307D01*
X150237593Y-98546547D01*
X150230915Y-98530036D01*
X150216978Y-98491290D01*
X150177379Y-98376648D01*
X150138903Y-98261737D01*
X150126369Y-98222654D01*
X150121656Y-98205671D01*
X150122227Y-98204577D01*
X150123948Y-98203080D01*
X150130995Y-98198811D01*
X150143102Y-98192725D01*
X150160578Y-98184687D01*
X150212861Y-98162202D01*
X150290298Y-98130258D01*
X150458875Y-98061517D01*
X150963384Y-98291107D01*
X151320196Y-98452733D01*
X151429132Y-98501494D01*
X151458965Y-98514591D01*
X151469607Y-98518920D01*
X151482118Y-98065011D01*
X151493374Y-97570737D01*
X151493321Y-97547199D01*
X150992192Y-97310415D01*
X150491063Y-97073631D01*
X150418513Y-96885433D01*
X150398851Y-96834233D01*
X150383022Y-96792532D01*
X150370719Y-96759444D01*
X150365793Y-96745853D01*
X150361634Y-96734085D01*
X150358201Y-96724027D01*
X150355459Y-96715569D01*
X150353366Y-96708601D01*
X150351886Y-96703013D01*
X150350979Y-96698693D01*
X150350729Y-96696974D01*
X150350608Y-96695530D01*
X150350611Y-96694349D01*
X150350734Y-96693416D01*
X150350970Y-96692716D01*
X150351317Y-96692237D01*
X150356220Y-96689962D01*
X150368192Y-96685380D01*
X150410181Y-96670405D01*
X150470956Y-96649520D01*
X150544188Y-96624932D01*
X150731706Y-96562625D01*
X151800000Y-97067482D01*
G37*
G36*
X185749731Y-113658786D02*
G01*
X185794289Y-113659186D01*
X185812613Y-113659586D01*
X185828741Y-113660162D01*
X185843006Y-113660944D01*
X185855739Y-113661965D01*
X185867270Y-113663257D01*
X185877931Y-113664850D01*
X185888054Y-113666776D01*
X185897969Y-113669068D01*
X185908009Y-113671756D01*
X185918504Y-113674871D01*
X185942184Y-113682514D01*
X185991994Y-113700559D01*
X186039969Y-113721117D01*
X186086066Y-113744140D01*
X186130238Y-113769582D01*
X186172441Y-113797397D01*
X186212629Y-113827539D01*
X186250756Y-113859960D01*
X186286778Y-113894615D01*
X186320649Y-113931457D01*
X186352323Y-113970440D01*
X186381755Y-114011517D01*
X186408900Y-114054642D01*
X186433712Y-114099768D01*
X186456146Y-114146850D01*
X186476157Y-114195840D01*
X186493699Y-114246692D01*
X186499789Y-114266985D01*
X186504509Y-114285785D01*
X186508030Y-114305098D01*
X186510525Y-114326927D01*
X186512165Y-114353279D01*
X186513124Y-114386159D01*
X186513573Y-114427573D01*
X186513685Y-114479525D01*
X186513627Y-114535483D01*
X186513236Y-114578629D01*
X186512812Y-114596326D01*
X186512183Y-114611934D01*
X186511306Y-114625825D01*
X186510141Y-114638369D01*
X186508647Y-114649940D01*
X186506782Y-114660907D01*
X186504507Y-114671643D01*
X186501779Y-114682519D01*
X186498559Y-114693906D01*
X186494804Y-114706176D01*
X186485529Y-114734851D01*
X186472468Y-114771868D01*
X186457805Y-114808072D01*
X186441577Y-114843417D01*
X186423821Y-114877860D01*
X186404574Y-114911354D01*
X186383871Y-114943853D01*
X186361751Y-114975313D01*
X186338250Y-115005689D01*
X186313405Y-115034934D01*
X186287252Y-115063004D01*
X186259828Y-115089852D01*
X186231170Y-115115435D01*
X186201315Y-115139706D01*
X186170299Y-115162620D01*
X186138160Y-115184132D01*
X186104934Y-115204196D01*
X186092813Y-115210890D01*
X186079648Y-115217710D01*
X186050742Y-115231515D01*
X186019332Y-115245182D01*
X185986531Y-115258287D01*
X185953454Y-115270402D01*
X185921215Y-115281101D01*
X185890930Y-115289956D01*
X185876869Y-115293559D01*
X185863713Y-115296541D01*
X185863712Y-115296541D01*
X185853318Y-115298002D01*
X185837442Y-115299271D01*
X185816872Y-115300328D01*
X185792398Y-115301151D01*
X185734896Y-115302011D01*
X185671251Y-115301683D01*
X185622745Y-115300833D01*
X185584015Y-115299768D01*
X185567679Y-115299083D01*
X185553021Y-115298258D01*
X185539787Y-115297265D01*
X185527722Y-115296074D01*
X185516570Y-115294658D01*
X185506076Y-115292988D01*
X185495985Y-115291035D01*
X185486043Y-115288770D01*
X185475993Y-115286165D01*
X185465581Y-115283191D01*
X185442651Y-115276022D01*
X185394325Y-115258838D01*
X185347606Y-115239112D01*
X185302554Y-115216904D01*
X185259228Y-115192273D01*
X185217687Y-115165278D01*
X185177991Y-115135979D01*
X185140199Y-115104435D01*
X185104371Y-115070704D01*
X185070565Y-115034848D01*
X185038842Y-114996924D01*
X185009260Y-114956992D01*
X184981879Y-114915112D01*
X184956758Y-114871342D01*
X184933957Y-114825743D01*
X184913534Y-114778373D01*
X184895550Y-114729292D01*
X184887768Y-114705549D01*
X184881867Y-114685052D01*
X184879541Y-114675179D01*
X184877587Y-114665109D01*
X184875975Y-114654505D01*
X184874669Y-114643030D01*
X184872853Y-114616123D01*
X184871877Y-114581698D01*
X184871482Y-114537062D01*
X184871409Y-114479525D01*
X184871482Y-114421988D01*
X184871877Y-114377352D01*
X184872276Y-114359032D01*
X184872853Y-114342927D01*
X184873640Y-114328702D01*
X184874669Y-114316020D01*
X184875975Y-114304545D01*
X184877587Y-114293941D01*
X184879541Y-114283871D01*
X184881867Y-114273998D01*
X184884598Y-114263987D01*
X184887768Y-114253501D01*
X184895550Y-114229758D01*
X184913500Y-114180734D01*
X184933850Y-114133451D01*
X184956552Y-114087958D01*
X184981554Y-114044307D01*
X185008806Y-114002549D01*
X185038258Y-113962732D01*
X185069858Y-113924909D01*
X185103558Y-113889130D01*
X185139306Y-113855444D01*
X185177051Y-113823903D01*
X185216744Y-113794556D01*
X185258333Y-113767455D01*
X185301769Y-113742650D01*
X185347001Y-113720191D01*
X185393979Y-113700129D01*
X185442651Y-113682514D01*
X185466332Y-113674871D01*
X185486866Y-113669068D01*
X185496782Y-113666776D01*
X185506904Y-113664850D01*
X185517566Y-113663257D01*
X185529097Y-113661965D01*
X185556094Y-113660162D01*
X185590546Y-113659186D01*
X185635104Y-113658786D01*
X185692418Y-113658709D01*
X185749731Y-113658786D01*
G37*
D11*
X192052219Y-94419046D02*
X191052219Y-94419046D01*
X191052219Y-94419046D02*
X191052219Y-94723808D01*
X191052219Y-94723808D02*
X191099838Y-94799998D01*
X191099838Y-94799998D02*
X191147457Y-94838093D01*
X191147457Y-94838093D02*
X191242695Y-94876189D01*
X191242695Y-94876189D02*
X191385552Y-94876189D01*
X191385552Y-94876189D02*
X191480790Y-94838093D01*
X191480790Y-94838093D02*
X191528409Y-94799998D01*
X191528409Y-94799998D02*
X191576028Y-94723808D01*
X191576028Y-94723808D02*
X191576028Y-94419046D01*
X192052219Y-95219046D02*
X191385552Y-95219046D01*
X191576028Y-95219046D02*
X191480790Y-95257141D01*
X191480790Y-95257141D02*
X191433171Y-95295236D01*
X191433171Y-95295236D02*
X191385552Y-95371427D01*
X191385552Y-95371427D02*
X191385552Y-95447617D01*
X192052219Y-95828569D02*
X192004600Y-95752379D01*
X192004600Y-95752379D02*
X191956980Y-95714284D01*
X191956980Y-95714284D02*
X191861742Y-95676188D01*
X191861742Y-95676188D02*
X191576028Y-95676188D01*
X191576028Y-95676188D02*
X191480790Y-95714284D01*
X191480790Y-95714284D02*
X191433171Y-95752379D01*
X191433171Y-95752379D02*
X191385552Y-95828569D01*
X191385552Y-95828569D02*
X191385552Y-95942855D01*
X191385552Y-95942855D02*
X191433171Y-96019046D01*
X191433171Y-96019046D02*
X191480790Y-96057141D01*
X191480790Y-96057141D02*
X191576028Y-96095236D01*
X191576028Y-96095236D02*
X191861742Y-96095236D01*
X191861742Y-96095236D02*
X191956980Y-96057141D01*
X191956980Y-96057141D02*
X192004600Y-96019046D01*
X192004600Y-96019046D02*
X192052219Y-95942855D01*
X192052219Y-95942855D02*
X192052219Y-95828569D01*
X192052219Y-96780951D02*
X191052219Y-96780951D01*
X192004600Y-96780951D02*
X192052219Y-96704760D01*
X192052219Y-96704760D02*
X192052219Y-96552379D01*
X192052219Y-96552379D02*
X192004600Y-96476189D01*
X192004600Y-96476189D02*
X191956980Y-96438094D01*
X191956980Y-96438094D02*
X191861742Y-96399998D01*
X191861742Y-96399998D02*
X191576028Y-96399998D01*
X191576028Y-96399998D02*
X191480790Y-96438094D01*
X191480790Y-96438094D02*
X191433171Y-96476189D01*
X191433171Y-96476189D02*
X191385552Y-96552379D01*
X191385552Y-96552379D02*
X191385552Y-96704760D01*
X191385552Y-96704760D02*
X191433171Y-96780951D01*
X191385552Y-97504761D02*
X192052219Y-97504761D01*
X191385552Y-97161904D02*
X191909361Y-97161904D01*
X191909361Y-97161904D02*
X192004600Y-97199999D01*
X192004600Y-97199999D02*
X192052219Y-97276189D01*
X192052219Y-97276189D02*
X192052219Y-97390475D01*
X192052219Y-97390475D02*
X192004600Y-97466666D01*
X192004600Y-97466666D02*
X191956980Y-97504761D01*
X192004600Y-98228571D02*
X192052219Y-98152380D01*
X192052219Y-98152380D02*
X192052219Y-97999999D01*
X192052219Y-97999999D02*
X192004600Y-97923809D01*
X192004600Y-97923809D02*
X191956980Y-97885714D01*
X191956980Y-97885714D02*
X191861742Y-97847618D01*
X191861742Y-97847618D02*
X191576028Y-97847618D01*
X191576028Y-97847618D02*
X191480790Y-97885714D01*
X191480790Y-97885714D02*
X191433171Y-97923809D01*
X191433171Y-97923809D02*
X191385552Y-97999999D01*
X191385552Y-97999999D02*
X191385552Y-98152380D01*
X191385552Y-98152380D02*
X191433171Y-98228571D01*
X191385552Y-98457142D02*
X191385552Y-98761904D01*
X191052219Y-98571428D02*
X191909361Y-98571428D01*
X191909361Y-98571428D02*
X192004600Y-98609523D01*
X192004600Y-98609523D02*
X192052219Y-98685713D01*
X192052219Y-98685713D02*
X192052219Y-98761904D01*
X192052219Y-99752380D02*
X192004600Y-99676190D01*
X192004600Y-99676190D02*
X191956980Y-99638095D01*
X191956980Y-99638095D02*
X191861742Y-99599999D01*
X191861742Y-99599999D02*
X191576028Y-99599999D01*
X191576028Y-99599999D02*
X191480790Y-99638095D01*
X191480790Y-99638095D02*
X191433171Y-99676190D01*
X191433171Y-99676190D02*
X191385552Y-99752380D01*
X191385552Y-99752380D02*
X191385552Y-99866666D01*
X191385552Y-99866666D02*
X191433171Y-99942857D01*
X191433171Y-99942857D02*
X191480790Y-99980952D01*
X191480790Y-99980952D02*
X191576028Y-100019047D01*
X191576028Y-100019047D02*
X191861742Y-100019047D01*
X191861742Y-100019047D02*
X191956980Y-99980952D01*
X191956980Y-99980952D02*
X192004600Y-99942857D01*
X192004600Y-99942857D02*
X192052219Y-99866666D01*
X192052219Y-99866666D02*
X192052219Y-99752380D01*
X191385552Y-100247619D02*
X191385552Y-100552381D01*
X192052219Y-100361905D02*
X191195076Y-100361905D01*
X191195076Y-100361905D02*
X191099838Y-100400000D01*
X191099838Y-100400000D02*
X191052219Y-100476190D01*
X191052219Y-100476190D02*
X191052219Y-100552381D01*
X191385552Y-101314286D02*
X191385552Y-101619048D01*
X191052219Y-101428572D02*
X191909361Y-101428572D01*
X191909361Y-101428572D02*
X192004600Y-101466667D01*
X192004600Y-101466667D02*
X192052219Y-101542857D01*
X192052219Y-101542857D02*
X192052219Y-101619048D01*
X192052219Y-101885715D02*
X191385552Y-101885715D01*
X191576028Y-101885715D02*
X191480790Y-101923810D01*
X191480790Y-101923810D02*
X191433171Y-101961905D01*
X191433171Y-101961905D02*
X191385552Y-102038096D01*
X191385552Y-102038096D02*
X191385552Y-102114286D01*
X192052219Y-102380953D02*
X191385552Y-102380953D01*
X191052219Y-102380953D02*
X191099838Y-102342857D01*
X191099838Y-102342857D02*
X191147457Y-102380953D01*
X191147457Y-102380953D02*
X191099838Y-102419048D01*
X191099838Y-102419048D02*
X191052219Y-102380953D01*
X191052219Y-102380953D02*
X191147457Y-102380953D01*
X191385552Y-102761905D02*
X192385552Y-102761905D01*
X191433171Y-102761905D02*
X191385552Y-102838095D01*
X191385552Y-102838095D02*
X191385552Y-102990476D01*
X191385552Y-102990476D02*
X191433171Y-103066667D01*
X191433171Y-103066667D02*
X191480790Y-103104762D01*
X191480790Y-103104762D02*
X191576028Y-103142857D01*
X191576028Y-103142857D02*
X191861742Y-103142857D01*
X191861742Y-103142857D02*
X191956980Y-103104762D01*
X191956980Y-103104762D02*
X192004600Y-103066667D01*
X192004600Y-103066667D02*
X192052219Y-102990476D01*
X192052219Y-102990476D02*
X192052219Y-102838095D01*
X192052219Y-102838095D02*
X192004600Y-102761905D01*
X192004600Y-103828572D02*
X192052219Y-103752381D01*
X192052219Y-103752381D02*
X192052219Y-103600000D01*
X192052219Y-103600000D02*
X192004600Y-103523810D01*
X192004600Y-103523810D02*
X191956980Y-103485715D01*
X191956980Y-103485715D02*
X191861742Y-103447619D01*
X191861742Y-103447619D02*
X191576028Y-103447619D01*
X191576028Y-103447619D02*
X191480790Y-103485715D01*
X191480790Y-103485715D02*
X191433171Y-103523810D01*
X191433171Y-103523810D02*
X191385552Y-103600000D01*
X191385552Y-103600000D02*
X191385552Y-103752381D01*
X191385552Y-103752381D02*
X191433171Y-103828572D01*
X192052219Y-104171429D02*
X191052219Y-104171429D01*
X192052219Y-104514286D02*
X191528409Y-104514286D01*
X191528409Y-104514286D02*
X191433171Y-104476191D01*
X191433171Y-104476191D02*
X191385552Y-104400000D01*
X191385552Y-104400000D02*
X191385552Y-104285714D01*
X191385552Y-104285714D02*
X191433171Y-104209524D01*
X191433171Y-104209524D02*
X191480790Y-104171429D01*
X192052219Y-105238096D02*
X191528409Y-105238096D01*
X191528409Y-105238096D02*
X191433171Y-105200001D01*
X191433171Y-105200001D02*
X191385552Y-105123810D01*
X191385552Y-105123810D02*
X191385552Y-104971429D01*
X191385552Y-104971429D02*
X191433171Y-104895239D01*
X192004600Y-105238096D02*
X192052219Y-105161905D01*
X192052219Y-105161905D02*
X192052219Y-104971429D01*
X192052219Y-104971429D02*
X192004600Y-104895239D01*
X192004600Y-104895239D02*
X191909361Y-104857143D01*
X191909361Y-104857143D02*
X191814123Y-104857143D01*
X191814123Y-104857143D02*
X191718885Y-104895239D01*
X191718885Y-104895239D02*
X191671266Y-104971429D01*
X191671266Y-104971429D02*
X191671266Y-105161905D01*
X191671266Y-105161905D02*
X191623647Y-105238096D01*
X192052219Y-105619049D02*
X191385552Y-105619049D01*
X191576028Y-105619049D02*
X191480790Y-105657144D01*
X191480790Y-105657144D02*
X191433171Y-105695239D01*
X191433171Y-105695239D02*
X191385552Y-105771430D01*
X191385552Y-105771430D02*
X191385552Y-105847620D01*
X192052219Y-106114287D02*
X191385552Y-106114287D01*
X191480790Y-106114287D02*
X191433171Y-106152382D01*
X191433171Y-106152382D02*
X191385552Y-106228572D01*
X191385552Y-106228572D02*
X191385552Y-106342858D01*
X191385552Y-106342858D02*
X191433171Y-106419049D01*
X191433171Y-106419049D02*
X191528409Y-106457144D01*
X191528409Y-106457144D02*
X192052219Y-106457144D01*
X191528409Y-106457144D02*
X191433171Y-106495239D01*
X191433171Y-106495239D02*
X191385552Y-106571430D01*
X191385552Y-106571430D02*
X191385552Y-106685715D01*
X191385552Y-106685715D02*
X191433171Y-106761906D01*
X191433171Y-106761906D02*
X191528409Y-106800001D01*
X191528409Y-106800001D02*
X192052219Y-106800001D01*
X191956980Y-107180954D02*
X192004600Y-107219049D01*
X192004600Y-107219049D02*
X192052219Y-107180954D01*
X192052219Y-107180954D02*
X192004600Y-107142858D01*
X192004600Y-107142858D02*
X191956980Y-107180954D01*
X191956980Y-107180954D02*
X192052219Y-107180954D01*
X149288721Y-98170636D02*
X148983959Y-98170636D01*
X149174435Y-97837303D02*
X149174435Y-98694445D01*
X149174435Y-98694445D02*
X149136340Y-98789684D01*
X149136340Y-98789684D02*
X149060150Y-98837303D01*
X149060150Y-98837303D02*
X148983959Y-98837303D01*
X148717292Y-98837303D02*
X148717292Y-98170636D01*
X148717292Y-98361112D02*
X148679197Y-98265874D01*
X148679197Y-98265874D02*
X148641102Y-98218255D01*
X148641102Y-98218255D02*
X148564911Y-98170636D01*
X148564911Y-98170636D02*
X148488721Y-98170636D01*
X148222054Y-98837303D02*
X148222054Y-98170636D01*
X148222054Y-97837303D02*
X148260150Y-97884922D01*
X148260150Y-97884922D02*
X148222054Y-97932541D01*
X148222054Y-97932541D02*
X148183959Y-97884922D01*
X148183959Y-97884922D02*
X148222054Y-97837303D01*
X148222054Y-97837303D02*
X148222054Y-97932541D01*
X147841102Y-98170636D02*
X147841102Y-99170636D01*
X147841102Y-98218255D02*
X147764912Y-98170636D01*
X147764912Y-98170636D02*
X147612531Y-98170636D01*
X147612531Y-98170636D02*
X147536340Y-98218255D01*
X147536340Y-98218255D02*
X147498245Y-98265874D01*
X147498245Y-98265874D02*
X147460150Y-98361112D01*
X147460150Y-98361112D02*
X147460150Y-98646826D01*
X147460150Y-98646826D02*
X147498245Y-98742064D01*
X147498245Y-98742064D02*
X147536340Y-98789684D01*
X147536340Y-98789684D02*
X147612531Y-98837303D01*
X147612531Y-98837303D02*
X147764912Y-98837303D01*
X147764912Y-98837303D02*
X147841102Y-98789684D01*
X146774435Y-98789684D02*
X146850626Y-98837303D01*
X146850626Y-98837303D02*
X147003007Y-98837303D01*
X147003007Y-98837303D02*
X147079197Y-98789684D01*
X147079197Y-98789684D02*
X147117292Y-98742064D01*
X147117292Y-98742064D02*
X147155388Y-98646826D01*
X147155388Y-98646826D02*
X147155388Y-98361112D01*
X147155388Y-98361112D02*
X147117292Y-98265874D01*
X147117292Y-98265874D02*
X147079197Y-98218255D01*
X147079197Y-98218255D02*
X147003007Y-98170636D01*
X147003007Y-98170636D02*
X146850626Y-98170636D01*
X146850626Y-98170636D02*
X146774435Y-98218255D01*
X146431578Y-98837303D02*
X146431578Y-97837303D01*
X146088721Y-98837303D02*
X146088721Y-98313493D01*
X146088721Y-98313493D02*
X146126816Y-98218255D01*
X146126816Y-98218255D02*
X146203007Y-98170636D01*
X146203007Y-98170636D02*
X146317293Y-98170636D01*
X146317293Y-98170636D02*
X146393483Y-98218255D01*
X146393483Y-98218255D02*
X146431578Y-98265874D01*
X145364911Y-98837303D02*
X145364911Y-98313493D01*
X145364911Y-98313493D02*
X145403006Y-98218255D01*
X145403006Y-98218255D02*
X145479197Y-98170636D01*
X145479197Y-98170636D02*
X145631578Y-98170636D01*
X145631578Y-98170636D02*
X145707768Y-98218255D01*
X145364911Y-98789684D02*
X145441102Y-98837303D01*
X145441102Y-98837303D02*
X145631578Y-98837303D01*
X145631578Y-98837303D02*
X145707768Y-98789684D01*
X145707768Y-98789684D02*
X145745864Y-98694445D01*
X145745864Y-98694445D02*
X145745864Y-98599207D01*
X145745864Y-98599207D02*
X145707768Y-98503969D01*
X145707768Y-98503969D02*
X145631578Y-98456350D01*
X145631578Y-98456350D02*
X145441102Y-98456350D01*
X145441102Y-98456350D02*
X145364911Y-98408731D01*
X144983958Y-98837303D02*
X144983958Y-98170636D01*
X144983958Y-98361112D02*
X144945863Y-98265874D01*
X144945863Y-98265874D02*
X144907768Y-98218255D01*
X144907768Y-98218255D02*
X144831577Y-98170636D01*
X144831577Y-98170636D02*
X144755387Y-98170636D01*
X144488720Y-98837303D02*
X144488720Y-98170636D01*
X144488720Y-98265874D02*
X144450625Y-98218255D01*
X144450625Y-98218255D02*
X144374435Y-98170636D01*
X144374435Y-98170636D02*
X144260149Y-98170636D01*
X144260149Y-98170636D02*
X144183958Y-98218255D01*
X144183958Y-98218255D02*
X144145863Y-98313493D01*
X144145863Y-98313493D02*
X144145863Y-98837303D01*
X144145863Y-98313493D02*
X144107768Y-98218255D01*
X144107768Y-98218255D02*
X144031577Y-98170636D01*
X144031577Y-98170636D02*
X143917292Y-98170636D01*
X143917292Y-98170636D02*
X143841101Y-98218255D01*
X143841101Y-98218255D02*
X143803006Y-98313493D01*
X143803006Y-98313493D02*
X143803006Y-98837303D01*
X143422053Y-98742064D02*
X143383958Y-98789684D01*
X143383958Y-98789684D02*
X143422053Y-98837303D01*
X143422053Y-98837303D02*
X143460149Y-98789684D01*
X143460149Y-98789684D02*
X143422053Y-98742064D01*
X143422053Y-98742064D02*
X143422053Y-98837303D01*
X174431580Y-100447247D02*
X174431580Y-99780580D01*
X174431580Y-99971056D02*
X174393485Y-99875818D01*
X174393485Y-99875818D02*
X174355390Y-99828199D01*
X174355390Y-99828199D02*
X174279199Y-99780580D01*
X174279199Y-99780580D02*
X174203009Y-99780580D01*
X173631580Y-100399628D02*
X173707771Y-100447247D01*
X173707771Y-100447247D02*
X173860152Y-100447247D01*
X173860152Y-100447247D02*
X173936342Y-100399628D01*
X173936342Y-100399628D02*
X173974438Y-100304389D01*
X173974438Y-100304389D02*
X173974438Y-99923437D01*
X173974438Y-99923437D02*
X173936342Y-99828199D01*
X173936342Y-99828199D02*
X173860152Y-99780580D01*
X173860152Y-99780580D02*
X173707771Y-99780580D01*
X173707771Y-99780580D02*
X173631580Y-99828199D01*
X173631580Y-99828199D02*
X173593485Y-99923437D01*
X173593485Y-99923437D02*
X173593485Y-100018675D01*
X173593485Y-100018675D02*
X173974438Y-100113913D01*
X173326819Y-99780580D02*
X173136343Y-100447247D01*
X173136343Y-100447247D02*
X172945866Y-99780580D01*
X172641104Y-100447247D02*
X172641104Y-99780580D01*
X172641104Y-99447247D02*
X172679200Y-99494866D01*
X172679200Y-99494866D02*
X172641104Y-99542485D01*
X172641104Y-99542485D02*
X172603009Y-99494866D01*
X172603009Y-99494866D02*
X172641104Y-99447247D01*
X172641104Y-99447247D02*
X172641104Y-99542485D01*
X172298248Y-100399628D02*
X172222057Y-100447247D01*
X172222057Y-100447247D02*
X172069676Y-100447247D01*
X172069676Y-100447247D02*
X171993486Y-100399628D01*
X171993486Y-100399628D02*
X171955390Y-100304389D01*
X171955390Y-100304389D02*
X171955390Y-100256770D01*
X171955390Y-100256770D02*
X171993486Y-100161532D01*
X171993486Y-100161532D02*
X172069676Y-100113913D01*
X172069676Y-100113913D02*
X172183962Y-100113913D01*
X172183962Y-100113913D02*
X172260152Y-100066294D01*
X172260152Y-100066294D02*
X172298248Y-99971056D01*
X172298248Y-99971056D02*
X172298248Y-99923437D01*
X172298248Y-99923437D02*
X172260152Y-99828199D01*
X172260152Y-99828199D02*
X172183962Y-99780580D01*
X172183962Y-99780580D02*
X172069676Y-99780580D01*
X172069676Y-99780580D02*
X171993486Y-99828199D01*
X171612533Y-100447247D02*
X171612533Y-99780580D01*
X171612533Y-99447247D02*
X171650629Y-99494866D01*
X171650629Y-99494866D02*
X171612533Y-99542485D01*
X171612533Y-99542485D02*
X171574438Y-99494866D01*
X171574438Y-99494866D02*
X171612533Y-99447247D01*
X171612533Y-99447247D02*
X171612533Y-99542485D01*
X171117296Y-100447247D02*
X171193486Y-100399628D01*
X171193486Y-100399628D02*
X171231581Y-100352008D01*
X171231581Y-100352008D02*
X171269677Y-100256770D01*
X171269677Y-100256770D02*
X171269677Y-99971056D01*
X171269677Y-99971056D02*
X171231581Y-99875818D01*
X171231581Y-99875818D02*
X171193486Y-99828199D01*
X171193486Y-99828199D02*
X171117296Y-99780580D01*
X171117296Y-99780580D02*
X171003010Y-99780580D01*
X171003010Y-99780580D02*
X170926819Y-99828199D01*
X170926819Y-99828199D02*
X170888724Y-99875818D01*
X170888724Y-99875818D02*
X170850629Y-99971056D01*
X170850629Y-99971056D02*
X170850629Y-100256770D01*
X170850629Y-100256770D02*
X170888724Y-100352008D01*
X170888724Y-100352008D02*
X170926819Y-100399628D01*
X170926819Y-100399628D02*
X171003010Y-100447247D01*
X171003010Y-100447247D02*
X171117296Y-100447247D01*
X170507771Y-99780580D02*
X170507771Y-100447247D01*
X170507771Y-99875818D02*
X170469676Y-99828199D01*
X170469676Y-99828199D02*
X170393486Y-99780580D01*
X170393486Y-99780580D02*
X170279200Y-99780580D01*
X170279200Y-99780580D02*
X170203009Y-99828199D01*
X170203009Y-99828199D02*
X170164914Y-99923437D01*
X170164914Y-99923437D02*
X170164914Y-100447247D01*
X169212533Y-99542485D02*
X169174437Y-99494866D01*
X169174437Y-99494866D02*
X169098247Y-99447247D01*
X169098247Y-99447247D02*
X168907771Y-99447247D01*
X168907771Y-99447247D02*
X168831580Y-99494866D01*
X168831580Y-99494866D02*
X168793485Y-99542485D01*
X168793485Y-99542485D02*
X168755390Y-99637723D01*
X168755390Y-99637723D02*
X168755390Y-99732961D01*
X168755390Y-99732961D02*
X168793485Y-99875818D01*
X168793485Y-99875818D02*
X169250628Y-100447247D01*
X169250628Y-100447247D02*
X168755390Y-100447247D01*
X167841104Y-99542485D02*
X167803008Y-99494866D01*
X167803008Y-99494866D02*
X167726818Y-99447247D01*
X167726818Y-99447247D02*
X167536342Y-99447247D01*
X167536342Y-99447247D02*
X167460151Y-99494866D01*
X167460151Y-99494866D02*
X167422056Y-99542485D01*
X167422056Y-99542485D02*
X167383961Y-99637723D01*
X167383961Y-99637723D02*
X167383961Y-99732961D01*
X167383961Y-99732961D02*
X167422056Y-99875818D01*
X167422056Y-99875818D02*
X167879199Y-100447247D01*
X167879199Y-100447247D02*
X167383961Y-100447247D01*
X166888722Y-99447247D02*
X166812532Y-99447247D01*
X166812532Y-99447247D02*
X166736341Y-99494866D01*
X166736341Y-99494866D02*
X166698246Y-99542485D01*
X166698246Y-99542485D02*
X166660151Y-99637723D01*
X166660151Y-99637723D02*
X166622056Y-99828199D01*
X166622056Y-99828199D02*
X166622056Y-100066294D01*
X166622056Y-100066294D02*
X166660151Y-100256770D01*
X166660151Y-100256770D02*
X166698246Y-100352008D01*
X166698246Y-100352008D02*
X166736341Y-100399628D01*
X166736341Y-100399628D02*
X166812532Y-100447247D01*
X166812532Y-100447247D02*
X166888722Y-100447247D01*
X166888722Y-100447247D02*
X166964913Y-100399628D01*
X166964913Y-100399628D02*
X167003008Y-100352008D01*
X167003008Y-100352008D02*
X167041103Y-100256770D01*
X167041103Y-100256770D02*
X167079199Y-100066294D01*
X167079199Y-100066294D02*
X167079199Y-99828199D01*
X167079199Y-99828199D02*
X167041103Y-99637723D01*
X167041103Y-99637723D02*
X167003008Y-99542485D01*
X167003008Y-99542485D02*
X166964913Y-99494866D01*
X166964913Y-99494866D02*
X166888722Y-99447247D01*
X165707770Y-99399628D02*
X166393484Y-100685342D01*
X165517294Y-99447247D02*
X164983960Y-99447247D01*
X164983960Y-99447247D02*
X165326818Y-100447247D01*
X164107770Y-99399628D02*
X164793484Y-100685342D01*
X163879199Y-99542485D02*
X163841103Y-99494866D01*
X163841103Y-99494866D02*
X163764913Y-99447247D01*
X163764913Y-99447247D02*
X163574437Y-99447247D01*
X163574437Y-99447247D02*
X163498246Y-99494866D01*
X163498246Y-99494866D02*
X163460151Y-99542485D01*
X163460151Y-99542485D02*
X163422056Y-99637723D01*
X163422056Y-99637723D02*
X163422056Y-99732961D01*
X163422056Y-99732961D02*
X163460151Y-99875818D01*
X163460151Y-99875818D02*
X163917294Y-100447247D01*
X163917294Y-100447247D02*
X163422056Y-100447247D01*
X162698246Y-99447247D02*
X163079198Y-99447247D01*
X163079198Y-99447247D02*
X163117294Y-99923437D01*
X163117294Y-99923437D02*
X163079198Y-99875818D01*
X163079198Y-99875818D02*
X163003008Y-99828199D01*
X163003008Y-99828199D02*
X162812532Y-99828199D01*
X162812532Y-99828199D02*
X162736341Y-99875818D01*
X162736341Y-99875818D02*
X162698246Y-99923437D01*
X162698246Y-99923437D02*
X162660151Y-100018675D01*
X162660151Y-100018675D02*
X162660151Y-100256770D01*
X162660151Y-100256770D02*
X162698246Y-100352008D01*
X162698246Y-100352008D02*
X162736341Y-100399628D01*
X162736341Y-100399628D02*
X162812532Y-100447247D01*
X162812532Y-100447247D02*
X163003008Y-100447247D01*
X163003008Y-100447247D02*
X163079198Y-100399628D01*
X163079198Y-100399628D02*
X163117294Y-100352008D01*
X161517293Y-100780580D02*
X161517293Y-99352008D01*
X160107769Y-99447247D02*
X160107769Y-100161532D01*
X160107769Y-100161532D02*
X160145864Y-100304389D01*
X160145864Y-100304389D02*
X160222055Y-100399628D01*
X160222055Y-100399628D02*
X160336340Y-100447247D01*
X160336340Y-100447247D02*
X160412531Y-100447247D01*
X159345864Y-100447247D02*
X159726816Y-100447247D01*
X159726816Y-100447247D02*
X159726816Y-99447247D01*
X158622054Y-100352008D02*
X158660150Y-100399628D01*
X158660150Y-100399628D02*
X158774435Y-100447247D01*
X158774435Y-100447247D02*
X158850626Y-100447247D01*
X158850626Y-100447247D02*
X158964912Y-100399628D01*
X158964912Y-100399628D02*
X159041102Y-100304389D01*
X159041102Y-100304389D02*
X159079197Y-100209151D01*
X159079197Y-100209151D02*
X159117293Y-100018675D01*
X159117293Y-100018675D02*
X159117293Y-99875818D01*
X159117293Y-99875818D02*
X159079197Y-99685342D01*
X159079197Y-99685342D02*
X159041102Y-99590104D01*
X159041102Y-99590104D02*
X158964912Y-99494866D01*
X158964912Y-99494866D02*
X158850626Y-99447247D01*
X158850626Y-99447247D02*
X158774435Y-99447247D01*
X158774435Y-99447247D02*
X158660150Y-99494866D01*
X158660150Y-99494866D02*
X158622054Y-99542485D01*
X157517292Y-99447247D02*
X157364911Y-99447247D01*
X157364911Y-99447247D02*
X157288721Y-99494866D01*
X157288721Y-99494866D02*
X157212530Y-99590104D01*
X157212530Y-99590104D02*
X157174435Y-99780580D01*
X157174435Y-99780580D02*
X157174435Y-100113913D01*
X157174435Y-100113913D02*
X157212530Y-100304389D01*
X157212530Y-100304389D02*
X157288721Y-100399628D01*
X157288721Y-100399628D02*
X157364911Y-100447247D01*
X157364911Y-100447247D02*
X157517292Y-100447247D01*
X157517292Y-100447247D02*
X157593483Y-100399628D01*
X157593483Y-100399628D02*
X157669673Y-100304389D01*
X157669673Y-100304389D02*
X157707769Y-100113913D01*
X157707769Y-100113913D02*
X157707769Y-99780580D01*
X157707769Y-99780580D02*
X157669673Y-99590104D01*
X157669673Y-99590104D02*
X157593483Y-99494866D01*
X157593483Y-99494866D02*
X157517292Y-99447247D01*
X156831578Y-100447247D02*
X156831578Y-99780580D01*
X156831578Y-99971056D02*
X156793483Y-99875818D01*
X156793483Y-99875818D02*
X156755388Y-99828199D01*
X156755388Y-99828199D02*
X156679197Y-99780580D01*
X156679197Y-99780580D02*
X156603007Y-99780580D01*
X155993483Y-100447247D02*
X155993483Y-99447247D01*
X155993483Y-100399628D02*
X156069674Y-100447247D01*
X156069674Y-100447247D02*
X156222055Y-100447247D01*
X156222055Y-100447247D02*
X156298245Y-100399628D01*
X156298245Y-100399628D02*
X156336340Y-100352008D01*
X156336340Y-100352008D02*
X156374436Y-100256770D01*
X156374436Y-100256770D02*
X156374436Y-99971056D01*
X156374436Y-99971056D02*
X156336340Y-99875818D01*
X156336340Y-99875818D02*
X156298245Y-99828199D01*
X156298245Y-99828199D02*
X156222055Y-99780580D01*
X156222055Y-99780580D02*
X156069674Y-99780580D01*
X156069674Y-99780580D02*
X155993483Y-99828199D01*
X155307768Y-100399628D02*
X155383959Y-100447247D01*
X155383959Y-100447247D02*
X155536340Y-100447247D01*
X155536340Y-100447247D02*
X155612530Y-100399628D01*
X155612530Y-100399628D02*
X155650626Y-100304389D01*
X155650626Y-100304389D02*
X155650626Y-99923437D01*
X155650626Y-99923437D02*
X155612530Y-99828199D01*
X155612530Y-99828199D02*
X155536340Y-99780580D01*
X155536340Y-99780580D02*
X155383959Y-99780580D01*
X155383959Y-99780580D02*
X155307768Y-99828199D01*
X155307768Y-99828199D02*
X155269673Y-99923437D01*
X155269673Y-99923437D02*
X155269673Y-100018675D01*
X155269673Y-100018675D02*
X155650626Y-100113913D01*
X154926816Y-100447247D02*
X154926816Y-99780580D01*
X154926816Y-99971056D02*
X154888721Y-99875818D01*
X154888721Y-99875818D02*
X154850626Y-99828199D01*
X154850626Y-99828199D02*
X154774435Y-99780580D01*
X154774435Y-99780580D02*
X154698245Y-99780580D01*
X153822054Y-100447247D02*
X153822054Y-99447247D01*
X153822054Y-99447247D02*
X153364911Y-100447247D01*
X153364911Y-100447247D02*
X153364911Y-99447247D01*
X152869674Y-100447247D02*
X152945864Y-100399628D01*
X152945864Y-100399628D02*
X152983959Y-100352008D01*
X152983959Y-100352008D02*
X153022055Y-100256770D01*
X153022055Y-100256770D02*
X153022055Y-99971056D01*
X153022055Y-99971056D02*
X152983959Y-99875818D01*
X152983959Y-99875818D02*
X152945864Y-99828199D01*
X152945864Y-99828199D02*
X152869674Y-99780580D01*
X152869674Y-99780580D02*
X152755388Y-99780580D01*
X152755388Y-99780580D02*
X152679197Y-99828199D01*
X152679197Y-99828199D02*
X152641102Y-99875818D01*
X152641102Y-99875818D02*
X152603007Y-99971056D01*
X152603007Y-99971056D02*
X152603007Y-100256770D01*
X152603007Y-100256770D02*
X152641102Y-100352008D01*
X152641102Y-100352008D02*
X152679197Y-100399628D01*
X152679197Y-100399628D02*
X152755388Y-100447247D01*
X152755388Y-100447247D02*
X152869674Y-100447247D01*
X152260149Y-100352008D02*
X152222054Y-100399628D01*
X152222054Y-100399628D02*
X152260149Y-100447247D01*
X152260149Y-100447247D02*
X152298245Y-100399628D01*
X152298245Y-100399628D02*
X152260149Y-100352008D01*
X152260149Y-100352008D02*
X152260149Y-100447247D01*
X151041102Y-99447247D02*
X151041102Y-100161532D01*
X151041102Y-100161532D02*
X151079197Y-100304389D01*
X151079197Y-100304389D02*
X151155388Y-100399628D01*
X151155388Y-100399628D02*
X151269673Y-100447247D01*
X151269673Y-100447247D02*
X151345864Y-100447247D01*
X150279197Y-100447247D02*
X150660149Y-100447247D01*
X150660149Y-100447247D02*
X150660149Y-99447247D01*
X149555387Y-100352008D02*
X149593483Y-100399628D01*
X149593483Y-100399628D02*
X149707768Y-100447247D01*
X149707768Y-100447247D02*
X149783959Y-100447247D01*
X149783959Y-100447247D02*
X149898245Y-100399628D01*
X149898245Y-100399628D02*
X149974435Y-100304389D01*
X149974435Y-100304389D02*
X150012530Y-100209151D01*
X150012530Y-100209151D02*
X150050626Y-100018675D01*
X150050626Y-100018675D02*
X150050626Y-99875818D01*
X150050626Y-99875818D02*
X150012530Y-99685342D01*
X150012530Y-99685342D02*
X149974435Y-99590104D01*
X149974435Y-99590104D02*
X149898245Y-99494866D01*
X149898245Y-99494866D02*
X149783959Y-99447247D01*
X149783959Y-99447247D02*
X149707768Y-99447247D01*
X149707768Y-99447247D02*
X149593483Y-99494866D01*
X149593483Y-99494866D02*
X149555387Y-99542485D01*
X148983959Y-99447247D02*
X148983959Y-100161532D01*
X148983959Y-100161532D02*
X149022054Y-100304389D01*
X149022054Y-100304389D02*
X149098245Y-100399628D01*
X149098245Y-100399628D02*
X149212530Y-100447247D01*
X149212530Y-100447247D02*
X149288721Y-100447247D01*
X148222054Y-100447247D02*
X148603006Y-100447247D01*
X148603006Y-100447247D02*
X148603006Y-99447247D01*
X147498244Y-100352008D02*
X147536340Y-100399628D01*
X147536340Y-100399628D02*
X147650625Y-100447247D01*
X147650625Y-100447247D02*
X147726816Y-100447247D01*
X147726816Y-100447247D02*
X147841102Y-100399628D01*
X147841102Y-100399628D02*
X147917292Y-100304389D01*
X147917292Y-100304389D02*
X147955387Y-100209151D01*
X147955387Y-100209151D02*
X147993483Y-100018675D01*
X147993483Y-100018675D02*
X147993483Y-99875818D01*
X147993483Y-99875818D02*
X147955387Y-99685342D01*
X147955387Y-99685342D02*
X147917292Y-99590104D01*
X147917292Y-99590104D02*
X147841102Y-99494866D01*
X147841102Y-99494866D02*
X147726816Y-99447247D01*
X147726816Y-99447247D02*
X147650625Y-99447247D01*
X147650625Y-99447247D02*
X147536340Y-99494866D01*
X147536340Y-99494866D02*
X147498244Y-99542485D01*
X146926816Y-99447247D02*
X146926816Y-100161532D01*
X146926816Y-100161532D02*
X146964911Y-100304389D01*
X146964911Y-100304389D02*
X147041102Y-100399628D01*
X147041102Y-100399628D02*
X147155387Y-100447247D01*
X147155387Y-100447247D02*
X147231578Y-100447247D01*
X146164911Y-100447247D02*
X146545863Y-100447247D01*
X146545863Y-100447247D02*
X146545863Y-99447247D01*
X145441101Y-100352008D02*
X145479197Y-100399628D01*
X145479197Y-100399628D02*
X145593482Y-100447247D01*
X145593482Y-100447247D02*
X145669673Y-100447247D01*
X145669673Y-100447247D02*
X145783959Y-100399628D01*
X145783959Y-100399628D02*
X145860149Y-100304389D01*
X145860149Y-100304389D02*
X145898244Y-100209151D01*
X145898244Y-100209151D02*
X145936340Y-100018675D01*
X145936340Y-100018675D02*
X145936340Y-99875818D01*
X145936340Y-99875818D02*
X145898244Y-99685342D01*
X145898244Y-99685342D02*
X145860149Y-99590104D01*
X145860149Y-99590104D02*
X145783959Y-99494866D01*
X145783959Y-99494866D02*
X145669673Y-99447247D01*
X145669673Y-99447247D02*
X145593482Y-99447247D01*
X145593482Y-99447247D02*
X145479197Y-99494866D01*
X145479197Y-99494866D02*
X145441101Y-99542485D01*
X144869673Y-99447247D02*
X144869673Y-100161532D01*
X144869673Y-100161532D02*
X144907768Y-100304389D01*
X144907768Y-100304389D02*
X144983959Y-100399628D01*
X144983959Y-100399628D02*
X145098244Y-100447247D01*
X145098244Y-100447247D02*
X145174435Y-100447247D01*
X144107768Y-100447247D02*
X144488720Y-100447247D01*
X144488720Y-100447247D02*
X144488720Y-99447247D01*
X143383958Y-100352008D02*
X143422054Y-100399628D01*
X143422054Y-100399628D02*
X143536339Y-100447247D01*
X143536339Y-100447247D02*
X143612530Y-100447247D01*
X143612530Y-100447247D02*
X143726816Y-100399628D01*
X143726816Y-100399628D02*
X143803006Y-100304389D01*
X143803006Y-100304389D02*
X143841101Y-100209151D01*
X143841101Y-100209151D02*
X143879197Y-100018675D01*
X143879197Y-100018675D02*
X143879197Y-99875818D01*
X143879197Y-99875818D02*
X143841101Y-99685342D01*
X143841101Y-99685342D02*
X143803006Y-99590104D01*
X143803006Y-99590104D02*
X143726816Y-99494866D01*
X143726816Y-99494866D02*
X143612530Y-99447247D01*
X143612530Y-99447247D02*
X143536339Y-99447247D01*
X143536339Y-99447247D02*
X143422054Y-99494866D01*
X143422054Y-99494866D02*
X143383958Y-99542485D01*
X160603009Y-102057191D02*
X160603009Y-101057191D01*
X160603009Y-102009572D02*
X160679200Y-102057191D01*
X160679200Y-102057191D02*
X160831581Y-102057191D01*
X160831581Y-102057191D02*
X160907771Y-102009572D01*
X160907771Y-102009572D02*
X160945866Y-101961952D01*
X160945866Y-101961952D02*
X160983962Y-101866714D01*
X160983962Y-101866714D02*
X160983962Y-101581000D01*
X160983962Y-101581000D02*
X160945866Y-101485762D01*
X160945866Y-101485762D02*
X160907771Y-101438143D01*
X160907771Y-101438143D02*
X160831581Y-101390524D01*
X160831581Y-101390524D02*
X160679200Y-101390524D01*
X160679200Y-101390524D02*
X160603009Y-101438143D01*
X159917294Y-102009572D02*
X159993485Y-102057191D01*
X159993485Y-102057191D02*
X160145866Y-102057191D01*
X160145866Y-102057191D02*
X160222056Y-102009572D01*
X160222056Y-102009572D02*
X160260152Y-101914333D01*
X160260152Y-101914333D02*
X160260152Y-101533381D01*
X160260152Y-101533381D02*
X160222056Y-101438143D01*
X160222056Y-101438143D02*
X160145866Y-101390524D01*
X160145866Y-101390524D02*
X159993485Y-101390524D01*
X159993485Y-101390524D02*
X159917294Y-101438143D01*
X159917294Y-101438143D02*
X159879199Y-101533381D01*
X159879199Y-101533381D02*
X159879199Y-101628619D01*
X159879199Y-101628619D02*
X160260152Y-101723857D01*
X159574438Y-102009572D02*
X159498247Y-102057191D01*
X159498247Y-102057191D02*
X159345866Y-102057191D01*
X159345866Y-102057191D02*
X159269676Y-102009572D01*
X159269676Y-102009572D02*
X159231580Y-101914333D01*
X159231580Y-101914333D02*
X159231580Y-101866714D01*
X159231580Y-101866714D02*
X159269676Y-101771476D01*
X159269676Y-101771476D02*
X159345866Y-101723857D01*
X159345866Y-101723857D02*
X159460152Y-101723857D01*
X159460152Y-101723857D02*
X159536342Y-101676238D01*
X159536342Y-101676238D02*
X159574438Y-101581000D01*
X159574438Y-101581000D02*
X159574438Y-101533381D01*
X159574438Y-101533381D02*
X159536342Y-101438143D01*
X159536342Y-101438143D02*
X159460152Y-101390524D01*
X159460152Y-101390524D02*
X159345866Y-101390524D01*
X159345866Y-101390524D02*
X159269676Y-101438143D01*
X158888723Y-102057191D02*
X158888723Y-101390524D01*
X158888723Y-101057191D02*
X158926819Y-101104810D01*
X158926819Y-101104810D02*
X158888723Y-101152429D01*
X158888723Y-101152429D02*
X158850628Y-101104810D01*
X158850628Y-101104810D02*
X158888723Y-101057191D01*
X158888723Y-101057191D02*
X158888723Y-101152429D01*
X158164914Y-101390524D02*
X158164914Y-102200048D01*
X158164914Y-102200048D02*
X158203009Y-102295286D01*
X158203009Y-102295286D02*
X158241105Y-102342905D01*
X158241105Y-102342905D02*
X158317295Y-102390524D01*
X158317295Y-102390524D02*
X158431581Y-102390524D01*
X158431581Y-102390524D02*
X158507771Y-102342905D01*
X158164914Y-102009572D02*
X158241105Y-102057191D01*
X158241105Y-102057191D02*
X158393486Y-102057191D01*
X158393486Y-102057191D02*
X158469676Y-102009572D01*
X158469676Y-102009572D02*
X158507771Y-101961952D01*
X158507771Y-101961952D02*
X158545867Y-101866714D01*
X158545867Y-101866714D02*
X158545867Y-101581000D01*
X158545867Y-101581000D02*
X158507771Y-101485762D01*
X158507771Y-101485762D02*
X158469676Y-101438143D01*
X158469676Y-101438143D02*
X158393486Y-101390524D01*
X158393486Y-101390524D02*
X158241105Y-101390524D01*
X158241105Y-101390524D02*
X158164914Y-101438143D01*
X157783961Y-101390524D02*
X157783961Y-102057191D01*
X157783961Y-101485762D02*
X157745866Y-101438143D01*
X157745866Y-101438143D02*
X157669676Y-101390524D01*
X157669676Y-101390524D02*
X157555390Y-101390524D01*
X157555390Y-101390524D02*
X157479199Y-101438143D01*
X157479199Y-101438143D02*
X157441104Y-101533381D01*
X157441104Y-101533381D02*
X157441104Y-102057191D01*
X156755389Y-102009572D02*
X156831580Y-102057191D01*
X156831580Y-102057191D02*
X156983961Y-102057191D01*
X156983961Y-102057191D02*
X157060151Y-102009572D01*
X157060151Y-102009572D02*
X157098247Y-101914333D01*
X157098247Y-101914333D02*
X157098247Y-101533381D01*
X157098247Y-101533381D02*
X157060151Y-101438143D01*
X157060151Y-101438143D02*
X156983961Y-101390524D01*
X156983961Y-101390524D02*
X156831580Y-101390524D01*
X156831580Y-101390524D02*
X156755389Y-101438143D01*
X156755389Y-101438143D02*
X156717294Y-101533381D01*
X156717294Y-101533381D02*
X156717294Y-101628619D01*
X156717294Y-101628619D02*
X157098247Y-101723857D01*
X156031580Y-102057191D02*
X156031580Y-101057191D01*
X156031580Y-102009572D02*
X156107771Y-102057191D01*
X156107771Y-102057191D02*
X156260152Y-102057191D01*
X156260152Y-102057191D02*
X156336342Y-102009572D01*
X156336342Y-102009572D02*
X156374437Y-101961952D01*
X156374437Y-101961952D02*
X156412533Y-101866714D01*
X156412533Y-101866714D02*
X156412533Y-101581000D01*
X156412533Y-101581000D02*
X156374437Y-101485762D01*
X156374437Y-101485762D02*
X156336342Y-101438143D01*
X156336342Y-101438143D02*
X156260152Y-101390524D01*
X156260152Y-101390524D02*
X156107771Y-101390524D01*
X156107771Y-101390524D02*
X156031580Y-101438143D01*
X155041103Y-102057191D02*
X155041103Y-101057191D01*
X155041103Y-101438143D02*
X154964913Y-101390524D01*
X154964913Y-101390524D02*
X154812532Y-101390524D01*
X154812532Y-101390524D02*
X154736341Y-101438143D01*
X154736341Y-101438143D02*
X154698246Y-101485762D01*
X154698246Y-101485762D02*
X154660151Y-101581000D01*
X154660151Y-101581000D02*
X154660151Y-101866714D01*
X154660151Y-101866714D02*
X154698246Y-101961952D01*
X154698246Y-101961952D02*
X154736341Y-102009572D01*
X154736341Y-102009572D02*
X154812532Y-102057191D01*
X154812532Y-102057191D02*
X154964913Y-102057191D01*
X154964913Y-102057191D02*
X155041103Y-102009572D01*
X154393484Y-101390524D02*
X154203008Y-102057191D01*
X154012531Y-101390524D02*
X154203008Y-102057191D01*
X154203008Y-102057191D02*
X154279198Y-102295286D01*
X154279198Y-102295286D02*
X154317293Y-102342905D01*
X154317293Y-102342905D02*
X154393484Y-102390524D01*
X153212531Y-101390524D02*
X152907769Y-101390524D01*
X153098245Y-101057191D02*
X153098245Y-101914333D01*
X153098245Y-101914333D02*
X153060150Y-102009572D01*
X153060150Y-102009572D02*
X152983960Y-102057191D01*
X152983960Y-102057191D02*
X152907769Y-102057191D01*
X152641102Y-102057191D02*
X152641102Y-101057191D01*
X152298245Y-102057191D02*
X152298245Y-101533381D01*
X152298245Y-101533381D02*
X152336340Y-101438143D01*
X152336340Y-101438143D02*
X152412531Y-101390524D01*
X152412531Y-101390524D02*
X152526817Y-101390524D01*
X152526817Y-101390524D02*
X152603007Y-101438143D01*
X152603007Y-101438143D02*
X152641102Y-101485762D01*
X151612530Y-102009572D02*
X151688721Y-102057191D01*
X151688721Y-102057191D02*
X151841102Y-102057191D01*
X151841102Y-102057191D02*
X151917292Y-102009572D01*
X151917292Y-102009572D02*
X151955388Y-101914333D01*
X151955388Y-101914333D02*
X151955388Y-101533381D01*
X151955388Y-101533381D02*
X151917292Y-101438143D01*
X151917292Y-101438143D02*
X151841102Y-101390524D01*
X151841102Y-101390524D02*
X151688721Y-101390524D01*
X151688721Y-101390524D02*
X151612530Y-101438143D01*
X151612530Y-101438143D02*
X151574435Y-101533381D01*
X151574435Y-101533381D02*
X151574435Y-101628619D01*
X151574435Y-101628619D02*
X151955388Y-101723857D01*
X150736340Y-101390524D02*
X150431578Y-101390524D01*
X150622054Y-101057191D02*
X150622054Y-101914333D01*
X150622054Y-101914333D02*
X150583959Y-102009572D01*
X150583959Y-102009572D02*
X150507769Y-102057191D01*
X150507769Y-102057191D02*
X150431578Y-102057191D01*
X150164911Y-102057191D02*
X150164911Y-101390524D01*
X150164911Y-101581000D02*
X150126816Y-101485762D01*
X150126816Y-101485762D02*
X150088721Y-101438143D01*
X150088721Y-101438143D02*
X150012530Y-101390524D01*
X150012530Y-101390524D02*
X149936340Y-101390524D01*
X149669673Y-102057191D02*
X149669673Y-101390524D01*
X149669673Y-101057191D02*
X149707769Y-101104810D01*
X149707769Y-101104810D02*
X149669673Y-101152429D01*
X149669673Y-101152429D02*
X149631578Y-101104810D01*
X149631578Y-101104810D02*
X149669673Y-101057191D01*
X149669673Y-101057191D02*
X149669673Y-101152429D01*
X149288721Y-101390524D02*
X149288721Y-102390524D01*
X149288721Y-101438143D02*
X149212531Y-101390524D01*
X149212531Y-101390524D02*
X149060150Y-101390524D01*
X149060150Y-101390524D02*
X148983959Y-101438143D01*
X148983959Y-101438143D02*
X148945864Y-101485762D01*
X148945864Y-101485762D02*
X148907769Y-101581000D01*
X148907769Y-101581000D02*
X148907769Y-101866714D01*
X148907769Y-101866714D02*
X148945864Y-101961952D01*
X148945864Y-101961952D02*
X148983959Y-102009572D01*
X148983959Y-102009572D02*
X149060150Y-102057191D01*
X149060150Y-102057191D02*
X149212531Y-102057191D01*
X149212531Y-102057191D02*
X149288721Y-102009572D01*
X148222054Y-102009572D02*
X148298245Y-102057191D01*
X148298245Y-102057191D02*
X148450626Y-102057191D01*
X148450626Y-102057191D02*
X148526816Y-102009572D01*
X148526816Y-102009572D02*
X148564911Y-101961952D01*
X148564911Y-101961952D02*
X148603007Y-101866714D01*
X148603007Y-101866714D02*
X148603007Y-101581000D01*
X148603007Y-101581000D02*
X148564911Y-101485762D01*
X148564911Y-101485762D02*
X148526816Y-101438143D01*
X148526816Y-101438143D02*
X148450626Y-101390524D01*
X148450626Y-101390524D02*
X148298245Y-101390524D01*
X148298245Y-101390524D02*
X148222054Y-101438143D01*
X147879197Y-102057191D02*
X147879197Y-101057191D01*
X147536340Y-102057191D02*
X147536340Y-101533381D01*
X147536340Y-101533381D02*
X147574435Y-101438143D01*
X147574435Y-101438143D02*
X147650626Y-101390524D01*
X147650626Y-101390524D02*
X147764912Y-101390524D01*
X147764912Y-101390524D02*
X147841102Y-101438143D01*
X147841102Y-101438143D02*
X147879197Y-101485762D01*
X146812530Y-102057191D02*
X146812530Y-101533381D01*
X146812530Y-101533381D02*
X146850625Y-101438143D01*
X146850625Y-101438143D02*
X146926816Y-101390524D01*
X146926816Y-101390524D02*
X147079197Y-101390524D01*
X147079197Y-101390524D02*
X147155387Y-101438143D01*
X146812530Y-102009572D02*
X146888721Y-102057191D01*
X146888721Y-102057191D02*
X147079197Y-102057191D01*
X147079197Y-102057191D02*
X147155387Y-102009572D01*
X147155387Y-102009572D02*
X147193483Y-101914333D01*
X147193483Y-101914333D02*
X147193483Y-101819095D01*
X147193483Y-101819095D02*
X147155387Y-101723857D01*
X147155387Y-101723857D02*
X147079197Y-101676238D01*
X147079197Y-101676238D02*
X146888721Y-101676238D01*
X146888721Y-101676238D02*
X146812530Y-101628619D01*
X146431577Y-102057191D02*
X146431577Y-101390524D01*
X146431577Y-101581000D02*
X146393482Y-101485762D01*
X146393482Y-101485762D02*
X146355387Y-101438143D01*
X146355387Y-101438143D02*
X146279196Y-101390524D01*
X146279196Y-101390524D02*
X146203006Y-101390524D01*
X145936339Y-102057191D02*
X145936339Y-101390524D01*
X145936339Y-101485762D02*
X145898244Y-101438143D01*
X145898244Y-101438143D02*
X145822054Y-101390524D01*
X145822054Y-101390524D02*
X145707768Y-101390524D01*
X145707768Y-101390524D02*
X145631577Y-101438143D01*
X145631577Y-101438143D02*
X145593482Y-101533381D01*
X145593482Y-101533381D02*
X145593482Y-102057191D01*
X145593482Y-101533381D02*
X145555387Y-101438143D01*
X145555387Y-101438143D02*
X145479196Y-101390524D01*
X145479196Y-101390524D02*
X145364911Y-101390524D01*
X145364911Y-101390524D02*
X145288720Y-101438143D01*
X145288720Y-101438143D02*
X145250625Y-101533381D01*
X145250625Y-101533381D02*
X145250625Y-102057191D01*
X144564910Y-102009572D02*
X144641101Y-102057191D01*
X144641101Y-102057191D02*
X144793482Y-102057191D01*
X144793482Y-102057191D02*
X144869672Y-102009572D01*
X144869672Y-102009572D02*
X144907768Y-101914333D01*
X144907768Y-101914333D02*
X144907768Y-101533381D01*
X144907768Y-101533381D02*
X144869672Y-101438143D01*
X144869672Y-101438143D02*
X144793482Y-101390524D01*
X144793482Y-101390524D02*
X144641101Y-101390524D01*
X144641101Y-101390524D02*
X144564910Y-101438143D01*
X144564910Y-101438143D02*
X144526815Y-101533381D01*
X144526815Y-101533381D02*
X144526815Y-101628619D01*
X144526815Y-101628619D02*
X144907768Y-101723857D01*
X144183958Y-102057191D02*
X144183958Y-101390524D01*
X144183958Y-101581000D02*
X144145863Y-101485762D01*
X144145863Y-101485762D02*
X144107768Y-101438143D01*
X144107768Y-101438143D02*
X144031577Y-101390524D01*
X144031577Y-101390524D02*
X143955387Y-101390524D01*
X143726816Y-102009572D02*
X143650625Y-102057191D01*
X143650625Y-102057191D02*
X143498244Y-102057191D01*
X143498244Y-102057191D02*
X143422054Y-102009572D01*
X143422054Y-102009572D02*
X143383958Y-101914333D01*
X143383958Y-101914333D02*
X143383958Y-101866714D01*
X143383958Y-101866714D02*
X143422054Y-101771476D01*
X143422054Y-101771476D02*
X143498244Y-101723857D01*
X143498244Y-101723857D02*
X143612530Y-101723857D01*
X143612530Y-101723857D02*
X143688720Y-101676238D01*
X143688720Y-101676238D02*
X143726816Y-101581000D01*
X143726816Y-101581000D02*
X143726816Y-101533381D01*
X143726816Y-101533381D02*
X143688720Y-101438143D01*
X143688720Y-101438143D02*
X143612530Y-101390524D01*
X143612530Y-101390524D02*
X143498244Y-101390524D01*
X143498244Y-101390524D02*
X143422054Y-101438143D01*
X156983962Y-103619516D02*
X156907771Y-103667135D01*
X156907771Y-103667135D02*
X156755390Y-103667135D01*
X156755390Y-103667135D02*
X156679200Y-103619516D01*
X156679200Y-103619516D02*
X156641104Y-103524277D01*
X156641104Y-103524277D02*
X156641104Y-103476658D01*
X156641104Y-103476658D02*
X156679200Y-103381420D01*
X156679200Y-103381420D02*
X156755390Y-103333801D01*
X156755390Y-103333801D02*
X156869676Y-103333801D01*
X156869676Y-103333801D02*
X156945866Y-103286182D01*
X156945866Y-103286182D02*
X156983962Y-103190944D01*
X156983962Y-103190944D02*
X156983962Y-103143325D01*
X156983962Y-103143325D02*
X156945866Y-103048087D01*
X156945866Y-103048087D02*
X156869676Y-103000468D01*
X156869676Y-103000468D02*
X156755390Y-103000468D01*
X156755390Y-103000468D02*
X156679200Y-103048087D01*
X156298247Y-103667135D02*
X156298247Y-103000468D01*
X156298247Y-102667135D02*
X156336343Y-102714754D01*
X156336343Y-102714754D02*
X156298247Y-102762373D01*
X156298247Y-102762373D02*
X156260152Y-102714754D01*
X156260152Y-102714754D02*
X156298247Y-102667135D01*
X156298247Y-102667135D02*
X156298247Y-102762373D01*
X155574438Y-103000468D02*
X155574438Y-103809992D01*
X155574438Y-103809992D02*
X155612533Y-103905230D01*
X155612533Y-103905230D02*
X155650629Y-103952849D01*
X155650629Y-103952849D02*
X155726819Y-104000468D01*
X155726819Y-104000468D02*
X155841105Y-104000468D01*
X155841105Y-104000468D02*
X155917295Y-103952849D01*
X155574438Y-103619516D02*
X155650629Y-103667135D01*
X155650629Y-103667135D02*
X155803010Y-103667135D01*
X155803010Y-103667135D02*
X155879200Y-103619516D01*
X155879200Y-103619516D02*
X155917295Y-103571896D01*
X155917295Y-103571896D02*
X155955391Y-103476658D01*
X155955391Y-103476658D02*
X155955391Y-103190944D01*
X155955391Y-103190944D02*
X155917295Y-103095706D01*
X155917295Y-103095706D02*
X155879200Y-103048087D01*
X155879200Y-103048087D02*
X155803010Y-103000468D01*
X155803010Y-103000468D02*
X155650629Y-103000468D01*
X155650629Y-103000468D02*
X155574438Y-103048087D01*
X155193485Y-103000468D02*
X155193485Y-103667135D01*
X155193485Y-103095706D02*
X155155390Y-103048087D01*
X155155390Y-103048087D02*
X155079200Y-103000468D01*
X155079200Y-103000468D02*
X154964914Y-103000468D01*
X154964914Y-103000468D02*
X154888723Y-103048087D01*
X154888723Y-103048087D02*
X154850628Y-103143325D01*
X154850628Y-103143325D02*
X154850628Y-103667135D01*
X154164913Y-103619516D02*
X154241104Y-103667135D01*
X154241104Y-103667135D02*
X154393485Y-103667135D01*
X154393485Y-103667135D02*
X154469675Y-103619516D01*
X154469675Y-103619516D02*
X154507771Y-103524277D01*
X154507771Y-103524277D02*
X154507771Y-103143325D01*
X154507771Y-103143325D02*
X154469675Y-103048087D01*
X154469675Y-103048087D02*
X154393485Y-103000468D01*
X154393485Y-103000468D02*
X154241104Y-103000468D01*
X154241104Y-103000468D02*
X154164913Y-103048087D01*
X154164913Y-103048087D02*
X154126818Y-103143325D01*
X154126818Y-103143325D02*
X154126818Y-103238563D01*
X154126818Y-103238563D02*
X154507771Y-103333801D01*
X153441104Y-103667135D02*
X153441104Y-102667135D01*
X153441104Y-103619516D02*
X153517295Y-103667135D01*
X153517295Y-103667135D02*
X153669676Y-103667135D01*
X153669676Y-103667135D02*
X153745866Y-103619516D01*
X153745866Y-103619516D02*
X153783961Y-103571896D01*
X153783961Y-103571896D02*
X153822057Y-103476658D01*
X153822057Y-103476658D02*
X153822057Y-103190944D01*
X153822057Y-103190944D02*
X153783961Y-103095706D01*
X153783961Y-103095706D02*
X153745866Y-103048087D01*
X153745866Y-103048087D02*
X153669676Y-103000468D01*
X153669676Y-103000468D02*
X153517295Y-103000468D01*
X153517295Y-103000468D02*
X153441104Y-103048087D01*
X153022056Y-103619516D02*
X153022056Y-103667135D01*
X153022056Y-103667135D02*
X153060151Y-103762373D01*
X153060151Y-103762373D02*
X153098247Y-103809992D01*
X152069675Y-103667135D02*
X152069675Y-102667135D01*
X152069675Y-102667135D02*
X151612532Y-103667135D01*
X151612532Y-103667135D02*
X151612532Y-102667135D01*
X150888723Y-103000468D02*
X150888723Y-103809992D01*
X150888723Y-103809992D02*
X150926818Y-103905230D01*
X150926818Y-103905230D02*
X150964914Y-103952849D01*
X150964914Y-103952849D02*
X151041104Y-104000468D01*
X151041104Y-104000468D02*
X151155390Y-104000468D01*
X151155390Y-104000468D02*
X151231580Y-103952849D01*
X150888723Y-103619516D02*
X150964914Y-103667135D01*
X150964914Y-103667135D02*
X151117295Y-103667135D01*
X151117295Y-103667135D02*
X151193485Y-103619516D01*
X151193485Y-103619516D02*
X151231580Y-103571896D01*
X151231580Y-103571896D02*
X151269676Y-103476658D01*
X151269676Y-103476658D02*
X151269676Y-103190944D01*
X151269676Y-103190944D02*
X151231580Y-103095706D01*
X151231580Y-103095706D02*
X151193485Y-103048087D01*
X151193485Y-103048087D02*
X151117295Y-103000468D01*
X151117295Y-103000468D02*
X150964914Y-103000468D01*
X150964914Y-103000468D02*
X150888723Y-103048087D01*
X149441103Y-103571896D02*
X149479199Y-103619516D01*
X149479199Y-103619516D02*
X149593484Y-103667135D01*
X149593484Y-103667135D02*
X149669675Y-103667135D01*
X149669675Y-103667135D02*
X149783961Y-103619516D01*
X149783961Y-103619516D02*
X149860151Y-103524277D01*
X149860151Y-103524277D02*
X149898246Y-103429039D01*
X149898246Y-103429039D02*
X149936342Y-103238563D01*
X149936342Y-103238563D02*
X149936342Y-103095706D01*
X149936342Y-103095706D02*
X149898246Y-102905230D01*
X149898246Y-102905230D02*
X149860151Y-102809992D01*
X149860151Y-102809992D02*
X149783961Y-102714754D01*
X149783961Y-102714754D02*
X149669675Y-102667135D01*
X149669675Y-102667135D02*
X149593484Y-102667135D01*
X149593484Y-102667135D02*
X149479199Y-102714754D01*
X149479199Y-102714754D02*
X149441103Y-102762373D01*
X149098246Y-103667135D02*
X149098246Y-102667135D01*
X148755389Y-103667135D02*
X148755389Y-103143325D01*
X148755389Y-103143325D02*
X148793484Y-103048087D01*
X148793484Y-103048087D02*
X148869675Y-103000468D01*
X148869675Y-103000468D02*
X148983961Y-103000468D01*
X148983961Y-103000468D02*
X149060151Y-103048087D01*
X149060151Y-103048087D02*
X149098246Y-103095706D01*
X148069674Y-103619516D02*
X148145865Y-103667135D01*
X148145865Y-103667135D02*
X148298246Y-103667135D01*
X148298246Y-103667135D02*
X148374436Y-103619516D01*
X148374436Y-103619516D02*
X148412532Y-103524277D01*
X148412532Y-103524277D02*
X148412532Y-103143325D01*
X148412532Y-103143325D02*
X148374436Y-103048087D01*
X148374436Y-103048087D02*
X148298246Y-103000468D01*
X148298246Y-103000468D02*
X148145865Y-103000468D01*
X148145865Y-103000468D02*
X148069674Y-103048087D01*
X148069674Y-103048087D02*
X148031579Y-103143325D01*
X148031579Y-103143325D02*
X148031579Y-103238563D01*
X148031579Y-103238563D02*
X148412532Y-103333801D01*
X147688722Y-103000468D02*
X147688722Y-103667135D01*
X147688722Y-103095706D02*
X147650627Y-103048087D01*
X147650627Y-103048087D02*
X147574437Y-103000468D01*
X147574437Y-103000468D02*
X147460151Y-103000468D01*
X147460151Y-103000468D02*
X147383960Y-103048087D01*
X147383960Y-103048087D02*
X147345865Y-103143325D01*
X147345865Y-103143325D02*
X147345865Y-103667135D01*
X146964912Y-103286182D02*
X146355389Y-103286182D01*
X146050627Y-102667135D02*
X145517293Y-103667135D01*
X145517293Y-102667135D02*
X146050627Y-103667135D01*
X144869674Y-103000468D02*
X144869674Y-103667135D01*
X145212531Y-103000468D02*
X145212531Y-103524277D01*
X145212531Y-103524277D02*
X145174436Y-103619516D01*
X145174436Y-103619516D02*
X145098246Y-103667135D01*
X145098246Y-103667135D02*
X144983960Y-103667135D01*
X144983960Y-103667135D02*
X144907769Y-103619516D01*
X144907769Y-103619516D02*
X144869674Y-103571896D01*
X144145864Y-103667135D02*
X144145864Y-103143325D01*
X144145864Y-103143325D02*
X144183959Y-103048087D01*
X144183959Y-103048087D02*
X144260150Y-103000468D01*
X144260150Y-103000468D02*
X144412531Y-103000468D01*
X144412531Y-103000468D02*
X144488721Y-103048087D01*
X144145864Y-103619516D02*
X144222055Y-103667135D01*
X144222055Y-103667135D02*
X144412531Y-103667135D01*
X144412531Y-103667135D02*
X144488721Y-103619516D01*
X144488721Y-103619516D02*
X144526817Y-103524277D01*
X144526817Y-103524277D02*
X144526817Y-103429039D01*
X144526817Y-103429039D02*
X144488721Y-103333801D01*
X144488721Y-103333801D02*
X144412531Y-103286182D01*
X144412531Y-103286182D02*
X144222055Y-103286182D01*
X144222055Y-103286182D02*
X144145864Y-103238563D01*
X143764911Y-103000468D02*
X143764911Y-103667135D01*
X143764911Y-103095706D02*
X143726816Y-103048087D01*
X143726816Y-103048087D02*
X143650626Y-103000468D01*
X143650626Y-103000468D02*
X143536340Y-103000468D01*
X143536340Y-103000468D02*
X143460149Y-103048087D01*
X143460149Y-103048087D02*
X143422054Y-103143325D01*
X143422054Y-103143325D02*
X143422054Y-103667135D01*
X189314291Y-90252219D02*
X189390481Y-90204600D01*
X189390481Y-90204600D02*
X189428576Y-90156980D01*
X189428576Y-90156980D02*
X189466672Y-90061742D01*
X189466672Y-90061742D02*
X189466672Y-89776028D01*
X189466672Y-89776028D02*
X189428576Y-89680790D01*
X189428576Y-89680790D02*
X189390481Y-89633171D01*
X189390481Y-89633171D02*
X189314291Y-89585552D01*
X189314291Y-89585552D02*
X189200005Y-89585552D01*
X189200005Y-89585552D02*
X189123814Y-89633171D01*
X189123814Y-89633171D02*
X189085719Y-89680790D01*
X189085719Y-89680790D02*
X189047624Y-89776028D01*
X189047624Y-89776028D02*
X189047624Y-90061742D01*
X189047624Y-90061742D02*
X189085719Y-90156980D01*
X189085719Y-90156980D02*
X189123814Y-90204600D01*
X189123814Y-90204600D02*
X189200005Y-90252219D01*
X189200005Y-90252219D02*
X189314291Y-90252219D01*
X188704766Y-90252219D02*
X188704766Y-89585552D01*
X188704766Y-89776028D02*
X188666671Y-89680790D01*
X188666671Y-89680790D02*
X188628576Y-89633171D01*
X188628576Y-89633171D02*
X188552385Y-89585552D01*
X188552385Y-89585552D02*
X188476195Y-89585552D01*
X187866671Y-89585552D02*
X187866671Y-90395076D01*
X187866671Y-90395076D02*
X187904766Y-90490314D01*
X187904766Y-90490314D02*
X187942862Y-90537933D01*
X187942862Y-90537933D02*
X188019052Y-90585552D01*
X188019052Y-90585552D02*
X188133338Y-90585552D01*
X188133338Y-90585552D02*
X188209528Y-90537933D01*
X187866671Y-90204600D02*
X187942862Y-90252219D01*
X187942862Y-90252219D02*
X188095243Y-90252219D01*
X188095243Y-90252219D02*
X188171433Y-90204600D01*
X188171433Y-90204600D02*
X188209528Y-90156980D01*
X188209528Y-90156980D02*
X188247624Y-90061742D01*
X188247624Y-90061742D02*
X188247624Y-89776028D01*
X188247624Y-89776028D02*
X188209528Y-89680790D01*
X188209528Y-89680790D02*
X188171433Y-89633171D01*
X188171433Y-89633171D02*
X188095243Y-89585552D01*
X188095243Y-89585552D02*
X187942862Y-89585552D01*
X187942862Y-89585552D02*
X187866671Y-89633171D01*
X187485718Y-90252219D02*
X187485718Y-89585552D01*
X187485718Y-89252219D02*
X187523814Y-89299838D01*
X187523814Y-89299838D02*
X187485718Y-89347457D01*
X187485718Y-89347457D02*
X187447623Y-89299838D01*
X187447623Y-89299838D02*
X187485718Y-89252219D01*
X187485718Y-89252219D02*
X187485718Y-89347457D01*
X187104766Y-89585552D02*
X187104766Y-90252219D01*
X187104766Y-89680790D02*
X187066671Y-89633171D01*
X187066671Y-89633171D02*
X186990481Y-89585552D01*
X186990481Y-89585552D02*
X186876195Y-89585552D01*
X186876195Y-89585552D02*
X186800004Y-89633171D01*
X186800004Y-89633171D02*
X186761909Y-89728409D01*
X186761909Y-89728409D02*
X186761909Y-90252219D01*
X186038099Y-90252219D02*
X186038099Y-89728409D01*
X186038099Y-89728409D02*
X186076194Y-89633171D01*
X186076194Y-89633171D02*
X186152385Y-89585552D01*
X186152385Y-89585552D02*
X186304766Y-89585552D01*
X186304766Y-89585552D02*
X186380956Y-89633171D01*
X186038099Y-90204600D02*
X186114290Y-90252219D01*
X186114290Y-90252219D02*
X186304766Y-90252219D01*
X186304766Y-90252219D02*
X186380956Y-90204600D01*
X186380956Y-90204600D02*
X186419052Y-90109361D01*
X186419052Y-90109361D02*
X186419052Y-90014123D01*
X186419052Y-90014123D02*
X186380956Y-89918885D01*
X186380956Y-89918885D02*
X186304766Y-89871266D01*
X186304766Y-89871266D02*
X186114290Y-89871266D01*
X186114290Y-89871266D02*
X186038099Y-89823647D01*
X185771432Y-89585552D02*
X185466670Y-89585552D01*
X185657146Y-89252219D02*
X185657146Y-90109361D01*
X185657146Y-90109361D02*
X185619051Y-90204600D01*
X185619051Y-90204600D02*
X185542861Y-90252219D01*
X185542861Y-90252219D02*
X185466670Y-90252219D01*
X184895241Y-90204600D02*
X184971432Y-90252219D01*
X184971432Y-90252219D02*
X185123813Y-90252219D01*
X185123813Y-90252219D02*
X185200003Y-90204600D01*
X185200003Y-90204600D02*
X185238099Y-90109361D01*
X185238099Y-90109361D02*
X185238099Y-89728409D01*
X185238099Y-89728409D02*
X185200003Y-89633171D01*
X185200003Y-89633171D02*
X185123813Y-89585552D01*
X185123813Y-89585552D02*
X184971432Y-89585552D01*
X184971432Y-89585552D02*
X184895241Y-89633171D01*
X184895241Y-89633171D02*
X184857146Y-89728409D01*
X184857146Y-89728409D02*
X184857146Y-89823647D01*
X184857146Y-89823647D02*
X185238099Y-89918885D01*
X184171432Y-90252219D02*
X184171432Y-89252219D01*
X184171432Y-90204600D02*
X184247623Y-90252219D01*
X184247623Y-90252219D02*
X184400004Y-90252219D01*
X184400004Y-90252219D02*
X184476194Y-90204600D01*
X184476194Y-90204600D02*
X184514289Y-90156980D01*
X184514289Y-90156980D02*
X184552385Y-90061742D01*
X184552385Y-90061742D02*
X184552385Y-89776028D01*
X184552385Y-89776028D02*
X184514289Y-89680790D01*
X184514289Y-89680790D02*
X184476194Y-89633171D01*
X184476194Y-89633171D02*
X184400004Y-89585552D01*
X184400004Y-89585552D02*
X184247623Y-89585552D01*
X184247623Y-89585552D02*
X184171432Y-89633171D01*
X183180955Y-90252219D02*
X183180955Y-89585552D01*
X183180955Y-89252219D02*
X183219051Y-89299838D01*
X183219051Y-89299838D02*
X183180955Y-89347457D01*
X183180955Y-89347457D02*
X183142860Y-89299838D01*
X183142860Y-89299838D02*
X183180955Y-89252219D01*
X183180955Y-89252219D02*
X183180955Y-89347457D01*
X182800003Y-89585552D02*
X182800003Y-90252219D01*
X182800003Y-89680790D02*
X182761908Y-89633171D01*
X182761908Y-89633171D02*
X182685718Y-89585552D01*
X182685718Y-89585552D02*
X182571432Y-89585552D01*
X182571432Y-89585552D02*
X182495241Y-89633171D01*
X182495241Y-89633171D02*
X182457146Y-89728409D01*
X182457146Y-89728409D02*
X182457146Y-90252219D01*
X181504765Y-90204600D02*
X181390479Y-90252219D01*
X181390479Y-90252219D02*
X181200003Y-90252219D01*
X181200003Y-90252219D02*
X181123812Y-90204600D01*
X181123812Y-90204600D02*
X181085717Y-90156980D01*
X181085717Y-90156980D02*
X181047622Y-90061742D01*
X181047622Y-90061742D02*
X181047622Y-89966504D01*
X181047622Y-89966504D02*
X181085717Y-89871266D01*
X181085717Y-89871266D02*
X181123812Y-89823647D01*
X181123812Y-89823647D02*
X181200003Y-89776028D01*
X181200003Y-89776028D02*
X181352384Y-89728409D01*
X181352384Y-89728409D02*
X181428574Y-89680790D01*
X181428574Y-89680790D02*
X181466669Y-89633171D01*
X181466669Y-89633171D02*
X181504765Y-89537933D01*
X181504765Y-89537933D02*
X181504765Y-89442695D01*
X181504765Y-89442695D02*
X181466669Y-89347457D01*
X181466669Y-89347457D02*
X181428574Y-89299838D01*
X181428574Y-89299838D02*
X181352384Y-89252219D01*
X181352384Y-89252219D02*
X181161907Y-89252219D01*
X181161907Y-89252219D02*
X181047622Y-89299838D01*
X180704764Y-90252219D02*
X180704764Y-89585552D01*
X180704764Y-89252219D02*
X180742860Y-89299838D01*
X180742860Y-89299838D02*
X180704764Y-89347457D01*
X180704764Y-89347457D02*
X180666669Y-89299838D01*
X180666669Y-89299838D02*
X180704764Y-89252219D01*
X180704764Y-89252219D02*
X180704764Y-89347457D01*
X180323812Y-89585552D02*
X180323812Y-90252219D01*
X180323812Y-89680790D02*
X180285717Y-89633171D01*
X180285717Y-89633171D02*
X180209527Y-89585552D01*
X180209527Y-89585552D02*
X180095241Y-89585552D01*
X180095241Y-89585552D02*
X180019050Y-89633171D01*
X180019050Y-89633171D02*
X179980955Y-89728409D01*
X179980955Y-89728409D02*
X179980955Y-90252219D01*
X179257145Y-89585552D02*
X179257145Y-90395076D01*
X179257145Y-90395076D02*
X179295240Y-90490314D01*
X179295240Y-90490314D02*
X179333336Y-90537933D01*
X179333336Y-90537933D02*
X179409526Y-90585552D01*
X179409526Y-90585552D02*
X179523812Y-90585552D01*
X179523812Y-90585552D02*
X179600002Y-90537933D01*
X179257145Y-90204600D02*
X179333336Y-90252219D01*
X179333336Y-90252219D02*
X179485717Y-90252219D01*
X179485717Y-90252219D02*
X179561907Y-90204600D01*
X179561907Y-90204600D02*
X179600002Y-90156980D01*
X179600002Y-90156980D02*
X179638098Y-90061742D01*
X179638098Y-90061742D02*
X179638098Y-89776028D01*
X179638098Y-89776028D02*
X179600002Y-89680790D01*
X179600002Y-89680790D02*
X179561907Y-89633171D01*
X179561907Y-89633171D02*
X179485717Y-89585552D01*
X179485717Y-89585552D02*
X179333336Y-89585552D01*
X179333336Y-89585552D02*
X179257145Y-89633171D01*
X178533335Y-90252219D02*
X178533335Y-89728409D01*
X178533335Y-89728409D02*
X178571430Y-89633171D01*
X178571430Y-89633171D02*
X178647621Y-89585552D01*
X178647621Y-89585552D02*
X178800002Y-89585552D01*
X178800002Y-89585552D02*
X178876192Y-89633171D01*
X178533335Y-90204600D02*
X178609526Y-90252219D01*
X178609526Y-90252219D02*
X178800002Y-90252219D01*
X178800002Y-90252219D02*
X178876192Y-90204600D01*
X178876192Y-90204600D02*
X178914288Y-90109361D01*
X178914288Y-90109361D02*
X178914288Y-90014123D01*
X178914288Y-90014123D02*
X178876192Y-89918885D01*
X178876192Y-89918885D02*
X178800002Y-89871266D01*
X178800002Y-89871266D02*
X178609526Y-89871266D01*
X178609526Y-89871266D02*
X178533335Y-89823647D01*
X178152382Y-89585552D02*
X178152382Y-90585552D01*
X178152382Y-89633171D02*
X178076192Y-89585552D01*
X178076192Y-89585552D02*
X177923811Y-89585552D01*
X177923811Y-89585552D02*
X177847620Y-89633171D01*
X177847620Y-89633171D02*
X177809525Y-89680790D01*
X177809525Y-89680790D02*
X177771430Y-89776028D01*
X177771430Y-89776028D02*
X177771430Y-90061742D01*
X177771430Y-90061742D02*
X177809525Y-90156980D01*
X177809525Y-90156980D02*
X177847620Y-90204600D01*
X177847620Y-90204600D02*
X177923811Y-90252219D01*
X177923811Y-90252219D02*
X178076192Y-90252219D01*
X178076192Y-90252219D02*
X178152382Y-90204600D01*
X177314287Y-90252219D02*
X177390477Y-90204600D01*
X177390477Y-90204600D02*
X177428572Y-90156980D01*
X177428572Y-90156980D02*
X177466668Y-90061742D01*
X177466668Y-90061742D02*
X177466668Y-89776028D01*
X177466668Y-89776028D02*
X177428572Y-89680790D01*
X177428572Y-89680790D02*
X177390477Y-89633171D01*
X177390477Y-89633171D02*
X177314287Y-89585552D01*
X177314287Y-89585552D02*
X177200001Y-89585552D01*
X177200001Y-89585552D02*
X177123810Y-89633171D01*
X177123810Y-89633171D02*
X177085715Y-89680790D01*
X177085715Y-89680790D02*
X177047620Y-89776028D01*
X177047620Y-89776028D02*
X177047620Y-90061742D01*
X177047620Y-90061742D02*
X177085715Y-90156980D01*
X177085715Y-90156980D02*
X177123810Y-90204600D01*
X177123810Y-90204600D02*
X177200001Y-90252219D01*
X177200001Y-90252219D02*
X177314287Y-90252219D01*
X176704762Y-90252219D02*
X176704762Y-89585552D01*
X176704762Y-89776028D02*
X176666667Y-89680790D01*
X176666667Y-89680790D02*
X176628572Y-89633171D01*
X176628572Y-89633171D02*
X176552381Y-89585552D01*
X176552381Y-89585552D02*
X176476191Y-89585552D01*
X175904762Y-90204600D02*
X175980953Y-90252219D01*
X175980953Y-90252219D02*
X176133334Y-90252219D01*
X176133334Y-90252219D02*
X176209524Y-90204600D01*
X176209524Y-90204600D02*
X176247620Y-90109361D01*
X176247620Y-90109361D02*
X176247620Y-89728409D01*
X176247620Y-89728409D02*
X176209524Y-89633171D01*
X176209524Y-89633171D02*
X176133334Y-89585552D01*
X176133334Y-89585552D02*
X175980953Y-89585552D01*
X175980953Y-89585552D02*
X175904762Y-89633171D01*
X175904762Y-89633171D02*
X175866667Y-89728409D01*
X175866667Y-89728409D02*
X175866667Y-89823647D01*
X175866667Y-89823647D02*
X176247620Y-89918885D01*
X175485715Y-90204600D02*
X175485715Y-90252219D01*
X175485715Y-90252219D02*
X175523810Y-90347457D01*
X175523810Y-90347457D02*
X175561906Y-90395076D01*
X175523810Y-89633171D02*
X175485715Y-89680790D01*
X175485715Y-89680790D02*
X175523810Y-89728409D01*
X175523810Y-89728409D02*
X175561906Y-89680790D01*
X175561906Y-89680790D02*
X175523810Y-89633171D01*
X175523810Y-89633171D02*
X175523810Y-89728409D01*
X174190477Y-90252219D02*
X174190477Y-89252219D01*
X174190477Y-90204600D02*
X174266668Y-90252219D01*
X174266668Y-90252219D02*
X174419049Y-90252219D01*
X174419049Y-90252219D02*
X174495239Y-90204600D01*
X174495239Y-90204600D02*
X174533334Y-90156980D01*
X174533334Y-90156980D02*
X174571430Y-90061742D01*
X174571430Y-90061742D02*
X174571430Y-89776028D01*
X174571430Y-89776028D02*
X174533334Y-89680790D01*
X174533334Y-89680790D02*
X174495239Y-89633171D01*
X174495239Y-89633171D02*
X174419049Y-89585552D01*
X174419049Y-89585552D02*
X174266668Y-89585552D01*
X174266668Y-89585552D02*
X174190477Y-89633171D01*
X173504762Y-90204600D02*
X173580953Y-90252219D01*
X173580953Y-90252219D02*
X173733334Y-90252219D01*
X173733334Y-90252219D02*
X173809524Y-90204600D01*
X173809524Y-90204600D02*
X173847620Y-90109361D01*
X173847620Y-90109361D02*
X173847620Y-89728409D01*
X173847620Y-89728409D02*
X173809524Y-89633171D01*
X173809524Y-89633171D02*
X173733334Y-89585552D01*
X173733334Y-89585552D02*
X173580953Y-89585552D01*
X173580953Y-89585552D02*
X173504762Y-89633171D01*
X173504762Y-89633171D02*
X173466667Y-89728409D01*
X173466667Y-89728409D02*
X173466667Y-89823647D01*
X173466667Y-89823647D02*
X173847620Y-89918885D01*
X173161906Y-90204600D02*
X173085715Y-90252219D01*
X173085715Y-90252219D02*
X172933334Y-90252219D01*
X172933334Y-90252219D02*
X172857144Y-90204600D01*
X172857144Y-90204600D02*
X172819048Y-90109361D01*
X172819048Y-90109361D02*
X172819048Y-90061742D01*
X172819048Y-90061742D02*
X172857144Y-89966504D01*
X172857144Y-89966504D02*
X172933334Y-89918885D01*
X172933334Y-89918885D02*
X173047620Y-89918885D01*
X173047620Y-89918885D02*
X173123810Y-89871266D01*
X173123810Y-89871266D02*
X173161906Y-89776028D01*
X173161906Y-89776028D02*
X173161906Y-89728409D01*
X173161906Y-89728409D02*
X173123810Y-89633171D01*
X173123810Y-89633171D02*
X173047620Y-89585552D01*
X173047620Y-89585552D02*
X172933334Y-89585552D01*
X172933334Y-89585552D02*
X172857144Y-89633171D01*
X172476191Y-90252219D02*
X172476191Y-89585552D01*
X172476191Y-89252219D02*
X172514287Y-89299838D01*
X172514287Y-89299838D02*
X172476191Y-89347457D01*
X172476191Y-89347457D02*
X172438096Y-89299838D01*
X172438096Y-89299838D02*
X172476191Y-89252219D01*
X172476191Y-89252219D02*
X172476191Y-89347457D01*
X171752382Y-89585552D02*
X171752382Y-90395076D01*
X171752382Y-90395076D02*
X171790477Y-90490314D01*
X171790477Y-90490314D02*
X171828573Y-90537933D01*
X171828573Y-90537933D02*
X171904763Y-90585552D01*
X171904763Y-90585552D02*
X172019049Y-90585552D01*
X172019049Y-90585552D02*
X172095239Y-90537933D01*
X171752382Y-90204600D02*
X171828573Y-90252219D01*
X171828573Y-90252219D02*
X171980954Y-90252219D01*
X171980954Y-90252219D02*
X172057144Y-90204600D01*
X172057144Y-90204600D02*
X172095239Y-90156980D01*
X172095239Y-90156980D02*
X172133335Y-90061742D01*
X172133335Y-90061742D02*
X172133335Y-89776028D01*
X172133335Y-89776028D02*
X172095239Y-89680790D01*
X172095239Y-89680790D02*
X172057144Y-89633171D01*
X172057144Y-89633171D02*
X171980954Y-89585552D01*
X171980954Y-89585552D02*
X171828573Y-89585552D01*
X171828573Y-89585552D02*
X171752382Y-89633171D01*
X171371429Y-89585552D02*
X171371429Y-90252219D01*
X171371429Y-89680790D02*
X171333334Y-89633171D01*
X171333334Y-89633171D02*
X171257144Y-89585552D01*
X171257144Y-89585552D02*
X171142858Y-89585552D01*
X171142858Y-89585552D02*
X171066667Y-89633171D01*
X171066667Y-89633171D02*
X171028572Y-89728409D01*
X171028572Y-89728409D02*
X171028572Y-90252219D01*
X170342857Y-90204600D02*
X170419048Y-90252219D01*
X170419048Y-90252219D02*
X170571429Y-90252219D01*
X170571429Y-90252219D02*
X170647619Y-90204600D01*
X170647619Y-90204600D02*
X170685715Y-90109361D01*
X170685715Y-90109361D02*
X170685715Y-89728409D01*
X170685715Y-89728409D02*
X170647619Y-89633171D01*
X170647619Y-89633171D02*
X170571429Y-89585552D01*
X170571429Y-89585552D02*
X170419048Y-89585552D01*
X170419048Y-89585552D02*
X170342857Y-89633171D01*
X170342857Y-89633171D02*
X170304762Y-89728409D01*
X170304762Y-89728409D02*
X170304762Y-89823647D01*
X170304762Y-89823647D02*
X170685715Y-89918885D01*
X169619048Y-90252219D02*
X169619048Y-89252219D01*
X169619048Y-90204600D02*
X169695239Y-90252219D01*
X169695239Y-90252219D02*
X169847620Y-90252219D01*
X169847620Y-90252219D02*
X169923810Y-90204600D01*
X169923810Y-90204600D02*
X169961905Y-90156980D01*
X169961905Y-90156980D02*
X170000001Y-90061742D01*
X170000001Y-90061742D02*
X170000001Y-89776028D01*
X170000001Y-89776028D02*
X169961905Y-89680790D01*
X169961905Y-89680790D02*
X169923810Y-89633171D01*
X169923810Y-89633171D02*
X169847620Y-89585552D01*
X169847620Y-89585552D02*
X169695239Y-89585552D01*
X169695239Y-89585552D02*
X169619048Y-89633171D01*
X168628571Y-90252219D02*
X168628571Y-89585552D01*
X168628571Y-89252219D02*
X168666667Y-89299838D01*
X168666667Y-89299838D02*
X168628571Y-89347457D01*
X168628571Y-89347457D02*
X168590476Y-89299838D01*
X168590476Y-89299838D02*
X168628571Y-89252219D01*
X168628571Y-89252219D02*
X168628571Y-89347457D01*
X168247619Y-89585552D02*
X168247619Y-90252219D01*
X168247619Y-89680790D02*
X168209524Y-89633171D01*
X168209524Y-89633171D02*
X168133334Y-89585552D01*
X168133334Y-89585552D02*
X168019048Y-89585552D01*
X168019048Y-89585552D02*
X167942857Y-89633171D01*
X167942857Y-89633171D02*
X167904762Y-89728409D01*
X167904762Y-89728409D02*
X167904762Y-90252219D01*
X166952381Y-90204600D02*
X166838095Y-90252219D01*
X166838095Y-90252219D02*
X166647619Y-90252219D01*
X166647619Y-90252219D02*
X166571428Y-90204600D01*
X166571428Y-90204600D02*
X166533333Y-90156980D01*
X166533333Y-90156980D02*
X166495238Y-90061742D01*
X166495238Y-90061742D02*
X166495238Y-89966504D01*
X166495238Y-89966504D02*
X166533333Y-89871266D01*
X166533333Y-89871266D02*
X166571428Y-89823647D01*
X166571428Y-89823647D02*
X166647619Y-89776028D01*
X166647619Y-89776028D02*
X166800000Y-89728409D01*
X166800000Y-89728409D02*
X166876190Y-89680790D01*
X166876190Y-89680790D02*
X166914285Y-89633171D01*
X166914285Y-89633171D02*
X166952381Y-89537933D01*
X166952381Y-89537933D02*
X166952381Y-89442695D01*
X166952381Y-89442695D02*
X166914285Y-89347457D01*
X166914285Y-89347457D02*
X166876190Y-89299838D01*
X166876190Y-89299838D02*
X166800000Y-89252219D01*
X166800000Y-89252219D02*
X166609523Y-89252219D01*
X166609523Y-89252219D02*
X166495238Y-89299838D01*
X166152380Y-90252219D02*
X166152380Y-89585552D01*
X166152380Y-89252219D02*
X166190476Y-89299838D01*
X166190476Y-89299838D02*
X166152380Y-89347457D01*
X166152380Y-89347457D02*
X166114285Y-89299838D01*
X166114285Y-89299838D02*
X166152380Y-89252219D01*
X166152380Y-89252219D02*
X166152380Y-89347457D01*
X165771428Y-89585552D02*
X165771428Y-90252219D01*
X165771428Y-89680790D02*
X165733333Y-89633171D01*
X165733333Y-89633171D02*
X165657143Y-89585552D01*
X165657143Y-89585552D02*
X165542857Y-89585552D01*
X165542857Y-89585552D02*
X165466666Y-89633171D01*
X165466666Y-89633171D02*
X165428571Y-89728409D01*
X165428571Y-89728409D02*
X165428571Y-90252219D01*
X164704761Y-89585552D02*
X164704761Y-90395076D01*
X164704761Y-90395076D02*
X164742856Y-90490314D01*
X164742856Y-90490314D02*
X164780952Y-90537933D01*
X164780952Y-90537933D02*
X164857142Y-90585552D01*
X164857142Y-90585552D02*
X164971428Y-90585552D01*
X164971428Y-90585552D02*
X165047618Y-90537933D01*
X164704761Y-90204600D02*
X164780952Y-90252219D01*
X164780952Y-90252219D02*
X164933333Y-90252219D01*
X164933333Y-90252219D02*
X165009523Y-90204600D01*
X165009523Y-90204600D02*
X165047618Y-90156980D01*
X165047618Y-90156980D02*
X165085714Y-90061742D01*
X165085714Y-90061742D02*
X165085714Y-89776028D01*
X165085714Y-89776028D02*
X165047618Y-89680790D01*
X165047618Y-89680790D02*
X165009523Y-89633171D01*
X165009523Y-89633171D02*
X164933333Y-89585552D01*
X164933333Y-89585552D02*
X164780952Y-89585552D01*
X164780952Y-89585552D02*
X164704761Y-89633171D01*
X163980951Y-90252219D02*
X163980951Y-89728409D01*
X163980951Y-89728409D02*
X164019046Y-89633171D01*
X164019046Y-89633171D02*
X164095237Y-89585552D01*
X164095237Y-89585552D02*
X164247618Y-89585552D01*
X164247618Y-89585552D02*
X164323808Y-89633171D01*
X163980951Y-90204600D02*
X164057142Y-90252219D01*
X164057142Y-90252219D02*
X164247618Y-90252219D01*
X164247618Y-90252219D02*
X164323808Y-90204600D01*
X164323808Y-90204600D02*
X164361904Y-90109361D01*
X164361904Y-90109361D02*
X164361904Y-90014123D01*
X164361904Y-90014123D02*
X164323808Y-89918885D01*
X164323808Y-89918885D02*
X164247618Y-89871266D01*
X164247618Y-89871266D02*
X164057142Y-89871266D01*
X164057142Y-89871266D02*
X163980951Y-89823647D01*
X163599998Y-89585552D02*
X163599998Y-90585552D01*
X163599998Y-89633171D02*
X163523808Y-89585552D01*
X163523808Y-89585552D02*
X163371427Y-89585552D01*
X163371427Y-89585552D02*
X163295236Y-89633171D01*
X163295236Y-89633171D02*
X163257141Y-89680790D01*
X163257141Y-89680790D02*
X163219046Y-89776028D01*
X163219046Y-89776028D02*
X163219046Y-90061742D01*
X163219046Y-90061742D02*
X163257141Y-90156980D01*
X163257141Y-90156980D02*
X163295236Y-90204600D01*
X163295236Y-90204600D02*
X163371427Y-90252219D01*
X163371427Y-90252219D02*
X163523808Y-90252219D01*
X163523808Y-90252219D02*
X163599998Y-90204600D01*
X162761903Y-90252219D02*
X162838093Y-90204600D01*
X162838093Y-90204600D02*
X162876188Y-90156980D01*
X162876188Y-90156980D02*
X162914284Y-90061742D01*
X162914284Y-90061742D02*
X162914284Y-89776028D01*
X162914284Y-89776028D02*
X162876188Y-89680790D01*
X162876188Y-89680790D02*
X162838093Y-89633171D01*
X162838093Y-89633171D02*
X162761903Y-89585552D01*
X162761903Y-89585552D02*
X162647617Y-89585552D01*
X162647617Y-89585552D02*
X162571426Y-89633171D01*
X162571426Y-89633171D02*
X162533331Y-89680790D01*
X162533331Y-89680790D02*
X162495236Y-89776028D01*
X162495236Y-89776028D02*
X162495236Y-90061742D01*
X162495236Y-90061742D02*
X162533331Y-90156980D01*
X162533331Y-90156980D02*
X162571426Y-90204600D01*
X162571426Y-90204600D02*
X162647617Y-90252219D01*
X162647617Y-90252219D02*
X162761903Y-90252219D01*
X162152378Y-90252219D02*
X162152378Y-89585552D01*
X162152378Y-89776028D02*
X162114283Y-89680790D01*
X162114283Y-89680790D02*
X162076188Y-89633171D01*
X162076188Y-89633171D02*
X161999997Y-89585552D01*
X161999997Y-89585552D02*
X161923807Y-89585552D01*
X161352378Y-90204600D02*
X161428569Y-90252219D01*
X161428569Y-90252219D02*
X161580950Y-90252219D01*
X161580950Y-90252219D02*
X161657140Y-90204600D01*
X161657140Y-90204600D02*
X161695236Y-90109361D01*
X161695236Y-90109361D02*
X161695236Y-89728409D01*
X161695236Y-89728409D02*
X161657140Y-89633171D01*
X161657140Y-89633171D02*
X161580950Y-89585552D01*
X161580950Y-89585552D02*
X161428569Y-89585552D01*
X161428569Y-89585552D02*
X161352378Y-89633171D01*
X161352378Y-89633171D02*
X161314283Y-89728409D01*
X161314283Y-89728409D02*
X161314283Y-89823647D01*
X161314283Y-89823647D02*
X161695236Y-89918885D01*
X160933331Y-90204600D02*
X160933331Y-90252219D01*
X160933331Y-90252219D02*
X160971426Y-90347457D01*
X160971426Y-90347457D02*
X161009522Y-90395076D01*
X160971426Y-89633171D02*
X160933331Y-89680790D01*
X160933331Y-89680790D02*
X160971426Y-89728409D01*
X160971426Y-89728409D02*
X161009522Y-89680790D01*
X161009522Y-89680790D02*
X160971426Y-89633171D01*
X160971426Y-89633171D02*
X160971426Y-89728409D01*
X159638093Y-90252219D02*
X159638093Y-89728409D01*
X159638093Y-89728409D02*
X159676188Y-89633171D01*
X159676188Y-89633171D02*
X159752379Y-89585552D01*
X159752379Y-89585552D02*
X159904760Y-89585552D01*
X159904760Y-89585552D02*
X159980950Y-89633171D01*
X159638093Y-90204600D02*
X159714284Y-90252219D01*
X159714284Y-90252219D02*
X159904760Y-90252219D01*
X159904760Y-90252219D02*
X159980950Y-90204600D01*
X159980950Y-90204600D02*
X160019046Y-90109361D01*
X160019046Y-90109361D02*
X160019046Y-90014123D01*
X160019046Y-90014123D02*
X159980950Y-89918885D01*
X159980950Y-89918885D02*
X159904760Y-89871266D01*
X159904760Y-89871266D02*
X159714284Y-89871266D01*
X159714284Y-89871266D02*
X159638093Y-89823647D01*
X159295236Y-90204600D02*
X159219045Y-90252219D01*
X159219045Y-90252219D02*
X159066664Y-90252219D01*
X159066664Y-90252219D02*
X158990474Y-90204600D01*
X158990474Y-90204600D02*
X158952378Y-90109361D01*
X158952378Y-90109361D02*
X158952378Y-90061742D01*
X158952378Y-90061742D02*
X158990474Y-89966504D01*
X158990474Y-89966504D02*
X159066664Y-89918885D01*
X159066664Y-89918885D02*
X159180950Y-89918885D01*
X159180950Y-89918885D02*
X159257140Y-89871266D01*
X159257140Y-89871266D02*
X159295236Y-89776028D01*
X159295236Y-89776028D02*
X159295236Y-89728409D01*
X159295236Y-89728409D02*
X159257140Y-89633171D01*
X159257140Y-89633171D02*
X159180950Y-89585552D01*
X159180950Y-89585552D02*
X159066664Y-89585552D01*
X159066664Y-89585552D02*
X158990474Y-89633171D01*
X158647617Y-90204600D02*
X158571426Y-90252219D01*
X158571426Y-90252219D02*
X158419045Y-90252219D01*
X158419045Y-90252219D02*
X158342855Y-90204600D01*
X158342855Y-90204600D02*
X158304759Y-90109361D01*
X158304759Y-90109361D02*
X158304759Y-90061742D01*
X158304759Y-90061742D02*
X158342855Y-89966504D01*
X158342855Y-89966504D02*
X158419045Y-89918885D01*
X158419045Y-89918885D02*
X158533331Y-89918885D01*
X158533331Y-89918885D02*
X158609521Y-89871266D01*
X158609521Y-89871266D02*
X158647617Y-89776028D01*
X158647617Y-89776028D02*
X158647617Y-89728409D01*
X158647617Y-89728409D02*
X158609521Y-89633171D01*
X158609521Y-89633171D02*
X158533331Y-89585552D01*
X158533331Y-89585552D02*
X158419045Y-89585552D01*
X158419045Y-89585552D02*
X158342855Y-89633171D01*
X157657140Y-90204600D02*
X157733331Y-90252219D01*
X157733331Y-90252219D02*
X157885712Y-90252219D01*
X157885712Y-90252219D02*
X157961902Y-90204600D01*
X157961902Y-90204600D02*
X157999998Y-90109361D01*
X157999998Y-90109361D02*
X157999998Y-89728409D01*
X157999998Y-89728409D02*
X157961902Y-89633171D01*
X157961902Y-89633171D02*
X157885712Y-89585552D01*
X157885712Y-89585552D02*
X157733331Y-89585552D01*
X157733331Y-89585552D02*
X157657140Y-89633171D01*
X157657140Y-89633171D02*
X157619045Y-89728409D01*
X157619045Y-89728409D02*
X157619045Y-89823647D01*
X157619045Y-89823647D02*
X157999998Y-89918885D01*
X157276188Y-90252219D02*
X157276188Y-89585552D01*
X157276188Y-89680790D02*
X157238093Y-89633171D01*
X157238093Y-89633171D02*
X157161903Y-89585552D01*
X157161903Y-89585552D02*
X157047617Y-89585552D01*
X157047617Y-89585552D02*
X156971426Y-89633171D01*
X156971426Y-89633171D02*
X156933331Y-89728409D01*
X156933331Y-89728409D02*
X156933331Y-90252219D01*
X156933331Y-89728409D02*
X156895236Y-89633171D01*
X156895236Y-89633171D02*
X156819045Y-89585552D01*
X156819045Y-89585552D02*
X156704760Y-89585552D01*
X156704760Y-89585552D02*
X156628569Y-89633171D01*
X156628569Y-89633171D02*
X156590474Y-89728409D01*
X156590474Y-89728409D02*
X156590474Y-90252219D01*
X156209521Y-90252219D02*
X156209521Y-89252219D01*
X156209521Y-89633171D02*
X156133331Y-89585552D01*
X156133331Y-89585552D02*
X155980950Y-89585552D01*
X155980950Y-89585552D02*
X155904759Y-89633171D01*
X155904759Y-89633171D02*
X155866664Y-89680790D01*
X155866664Y-89680790D02*
X155828569Y-89776028D01*
X155828569Y-89776028D02*
X155828569Y-90061742D01*
X155828569Y-90061742D02*
X155866664Y-90156980D01*
X155866664Y-90156980D02*
X155904759Y-90204600D01*
X155904759Y-90204600D02*
X155980950Y-90252219D01*
X155980950Y-90252219D02*
X156133331Y-90252219D01*
X156133331Y-90252219D02*
X156209521Y-90204600D01*
X155371426Y-90252219D02*
X155447616Y-90204600D01*
X155447616Y-90204600D02*
X155485711Y-90109361D01*
X155485711Y-90109361D02*
X155485711Y-89252219D01*
X154761901Y-90204600D02*
X154838092Y-90252219D01*
X154838092Y-90252219D02*
X154990473Y-90252219D01*
X154990473Y-90252219D02*
X155066663Y-90204600D01*
X155066663Y-90204600D02*
X155104759Y-90109361D01*
X155104759Y-90109361D02*
X155104759Y-89728409D01*
X155104759Y-89728409D02*
X155066663Y-89633171D01*
X155066663Y-89633171D02*
X154990473Y-89585552D01*
X154990473Y-89585552D02*
X154838092Y-89585552D01*
X154838092Y-89585552D02*
X154761901Y-89633171D01*
X154761901Y-89633171D02*
X154723806Y-89728409D01*
X154723806Y-89728409D02*
X154723806Y-89823647D01*
X154723806Y-89823647D02*
X155104759Y-89918885D01*
X154038092Y-90252219D02*
X154038092Y-89252219D01*
X154038092Y-90204600D02*
X154114283Y-90252219D01*
X154114283Y-90252219D02*
X154266664Y-90252219D01*
X154266664Y-90252219D02*
X154342854Y-90204600D01*
X154342854Y-90204600D02*
X154380949Y-90156980D01*
X154380949Y-90156980D02*
X154419045Y-90061742D01*
X154419045Y-90061742D02*
X154419045Y-89776028D01*
X154419045Y-89776028D02*
X154380949Y-89680790D01*
X154380949Y-89680790D02*
X154342854Y-89633171D01*
X154342854Y-89633171D02*
X154266664Y-89585552D01*
X154266664Y-89585552D02*
X154114283Y-89585552D01*
X154114283Y-89585552D02*
X154038092Y-89633171D01*
X153047615Y-90252219D02*
X153047615Y-89585552D01*
X153047615Y-89252219D02*
X153085711Y-89299838D01*
X153085711Y-89299838D02*
X153047615Y-89347457D01*
X153047615Y-89347457D02*
X153009520Y-89299838D01*
X153009520Y-89299838D02*
X153047615Y-89252219D01*
X153047615Y-89252219D02*
X153047615Y-89347457D01*
X152666663Y-89585552D02*
X152666663Y-90252219D01*
X152666663Y-89680790D02*
X152628568Y-89633171D01*
X152628568Y-89633171D02*
X152552378Y-89585552D01*
X152552378Y-89585552D02*
X152438092Y-89585552D01*
X152438092Y-89585552D02*
X152361901Y-89633171D01*
X152361901Y-89633171D02*
X152323806Y-89728409D01*
X152323806Y-89728409D02*
X152323806Y-90252219D01*
X151371425Y-90204600D02*
X151257139Y-90252219D01*
X151257139Y-90252219D02*
X151066663Y-90252219D01*
X151066663Y-90252219D02*
X150990472Y-90204600D01*
X150990472Y-90204600D02*
X150952377Y-90156980D01*
X150952377Y-90156980D02*
X150914282Y-90061742D01*
X150914282Y-90061742D02*
X150914282Y-89966504D01*
X150914282Y-89966504D02*
X150952377Y-89871266D01*
X150952377Y-89871266D02*
X150990472Y-89823647D01*
X150990472Y-89823647D02*
X151066663Y-89776028D01*
X151066663Y-89776028D02*
X151219044Y-89728409D01*
X151219044Y-89728409D02*
X151295234Y-89680790D01*
X151295234Y-89680790D02*
X151333329Y-89633171D01*
X151333329Y-89633171D02*
X151371425Y-89537933D01*
X151371425Y-89537933D02*
X151371425Y-89442695D01*
X151371425Y-89442695D02*
X151333329Y-89347457D01*
X151333329Y-89347457D02*
X151295234Y-89299838D01*
X151295234Y-89299838D02*
X151219044Y-89252219D01*
X151219044Y-89252219D02*
X151028567Y-89252219D01*
X151028567Y-89252219D02*
X150914282Y-89299838D01*
X150571424Y-90252219D02*
X150571424Y-89585552D01*
X150571424Y-89252219D02*
X150609520Y-89299838D01*
X150609520Y-89299838D02*
X150571424Y-89347457D01*
X150571424Y-89347457D02*
X150533329Y-89299838D01*
X150533329Y-89299838D02*
X150571424Y-89252219D01*
X150571424Y-89252219D02*
X150571424Y-89347457D01*
X150190472Y-89585552D02*
X150190472Y-90252219D01*
X150190472Y-89680790D02*
X150152377Y-89633171D01*
X150152377Y-89633171D02*
X150076187Y-89585552D01*
X150076187Y-89585552D02*
X149961901Y-89585552D01*
X149961901Y-89585552D02*
X149885710Y-89633171D01*
X149885710Y-89633171D02*
X149847615Y-89728409D01*
X149847615Y-89728409D02*
X149847615Y-90252219D01*
X149123805Y-89585552D02*
X149123805Y-90395076D01*
X149123805Y-90395076D02*
X149161900Y-90490314D01*
X149161900Y-90490314D02*
X149199996Y-90537933D01*
X149199996Y-90537933D02*
X149276186Y-90585552D01*
X149276186Y-90585552D02*
X149390472Y-90585552D01*
X149390472Y-90585552D02*
X149466662Y-90537933D01*
X149123805Y-90204600D02*
X149199996Y-90252219D01*
X149199996Y-90252219D02*
X149352377Y-90252219D01*
X149352377Y-90252219D02*
X149428567Y-90204600D01*
X149428567Y-90204600D02*
X149466662Y-90156980D01*
X149466662Y-90156980D02*
X149504758Y-90061742D01*
X149504758Y-90061742D02*
X149504758Y-89776028D01*
X149504758Y-89776028D02*
X149466662Y-89680790D01*
X149466662Y-89680790D02*
X149428567Y-89633171D01*
X149428567Y-89633171D02*
X149352377Y-89585552D01*
X149352377Y-89585552D02*
X149199996Y-89585552D01*
X149199996Y-89585552D02*
X149123805Y-89633171D01*
X148399995Y-90252219D02*
X148399995Y-89728409D01*
X148399995Y-89728409D02*
X148438090Y-89633171D01*
X148438090Y-89633171D02*
X148514281Y-89585552D01*
X148514281Y-89585552D02*
X148666662Y-89585552D01*
X148666662Y-89585552D02*
X148742852Y-89633171D01*
X148399995Y-90204600D02*
X148476186Y-90252219D01*
X148476186Y-90252219D02*
X148666662Y-90252219D01*
X148666662Y-90252219D02*
X148742852Y-90204600D01*
X148742852Y-90204600D02*
X148780948Y-90109361D01*
X148780948Y-90109361D02*
X148780948Y-90014123D01*
X148780948Y-90014123D02*
X148742852Y-89918885D01*
X148742852Y-89918885D02*
X148666662Y-89871266D01*
X148666662Y-89871266D02*
X148476186Y-89871266D01*
X148476186Y-89871266D02*
X148399995Y-89823647D01*
X148019042Y-89585552D02*
X148019042Y-90585552D01*
X148019042Y-89633171D02*
X147942852Y-89585552D01*
X147942852Y-89585552D02*
X147790471Y-89585552D01*
X147790471Y-89585552D02*
X147714280Y-89633171D01*
X147714280Y-89633171D02*
X147676185Y-89680790D01*
X147676185Y-89680790D02*
X147638090Y-89776028D01*
X147638090Y-89776028D02*
X147638090Y-90061742D01*
X147638090Y-90061742D02*
X147676185Y-90156980D01*
X147676185Y-90156980D02*
X147714280Y-90204600D01*
X147714280Y-90204600D02*
X147790471Y-90252219D01*
X147790471Y-90252219D02*
X147942852Y-90252219D01*
X147942852Y-90252219D02*
X148019042Y-90204600D01*
X147180947Y-90252219D02*
X147257137Y-90204600D01*
X147257137Y-90204600D02*
X147295232Y-90156980D01*
X147295232Y-90156980D02*
X147333328Y-90061742D01*
X147333328Y-90061742D02*
X147333328Y-89776028D01*
X147333328Y-89776028D02*
X147295232Y-89680790D01*
X147295232Y-89680790D02*
X147257137Y-89633171D01*
X147257137Y-89633171D02*
X147180947Y-89585552D01*
X147180947Y-89585552D02*
X147066661Y-89585552D01*
X147066661Y-89585552D02*
X146990470Y-89633171D01*
X146990470Y-89633171D02*
X146952375Y-89680790D01*
X146952375Y-89680790D02*
X146914280Y-89776028D01*
X146914280Y-89776028D02*
X146914280Y-90061742D01*
X146914280Y-90061742D02*
X146952375Y-90156980D01*
X146952375Y-90156980D02*
X146990470Y-90204600D01*
X146990470Y-90204600D02*
X147066661Y-90252219D01*
X147066661Y-90252219D02*
X147180947Y-90252219D01*
X146571422Y-90252219D02*
X146571422Y-89585552D01*
X146571422Y-89776028D02*
X146533327Y-89680790D01*
X146533327Y-89680790D02*
X146495232Y-89633171D01*
X146495232Y-89633171D02*
X146419041Y-89585552D01*
X146419041Y-89585552D02*
X146342851Y-89585552D01*
X145771422Y-90204600D02*
X145847613Y-90252219D01*
X145847613Y-90252219D02*
X145999994Y-90252219D01*
X145999994Y-90252219D02*
X146076184Y-90204600D01*
X146076184Y-90204600D02*
X146114280Y-90109361D01*
X146114280Y-90109361D02*
X146114280Y-89728409D01*
X146114280Y-89728409D02*
X146076184Y-89633171D01*
X146076184Y-89633171D02*
X145999994Y-89585552D01*
X145999994Y-89585552D02*
X145847613Y-89585552D01*
X145847613Y-89585552D02*
X145771422Y-89633171D01*
X145771422Y-89633171D02*
X145733327Y-89728409D01*
X145733327Y-89728409D02*
X145733327Y-89823647D01*
X145733327Y-89823647D02*
X146114280Y-89918885D01*
X174901192Y-115252219D02*
X174776192Y-114252219D01*
X174444049Y-115252219D02*
X174715477Y-114680790D01*
X174319049Y-114252219D02*
X174847620Y-114823647D01*
X174101192Y-115252219D02*
X174017858Y-114585552D01*
X173976192Y-114252219D02*
X174020239Y-114299838D01*
X174020239Y-114299838D02*
X173988096Y-114347457D01*
X173988096Y-114347457D02*
X173944049Y-114299838D01*
X173944049Y-114299838D02*
X173976192Y-114252219D01*
X173976192Y-114252219D02*
X173988096Y-114347457D01*
X173377383Y-115252219D02*
X173252383Y-114252219D01*
X173371430Y-115204600D02*
X173453573Y-115252219D01*
X173453573Y-115252219D02*
X173605954Y-115252219D01*
X173605954Y-115252219D02*
X173676192Y-115204600D01*
X173676192Y-115204600D02*
X173708335Y-115156980D01*
X173708335Y-115156980D02*
X173734525Y-115061742D01*
X173734525Y-115061742D02*
X173698811Y-114776028D01*
X173698811Y-114776028D02*
X173648811Y-114680790D01*
X173648811Y-114680790D02*
X173604764Y-114633171D01*
X173604764Y-114633171D02*
X173522621Y-114585552D01*
X173522621Y-114585552D02*
X173370240Y-114585552D01*
X173370240Y-114585552D02*
X173300002Y-114633171D01*
X172379763Y-114585552D02*
X172272620Y-115252219D01*
X171998810Y-114585552D02*
X172272620Y-115252219D01*
X172272620Y-115252219D02*
X172378572Y-115490314D01*
X172378572Y-115490314D02*
X172422620Y-115537933D01*
X172422620Y-115537933D02*
X172504763Y-115585552D01*
X171663096Y-115252219D02*
X171733334Y-115204600D01*
X171733334Y-115204600D02*
X171765477Y-115156980D01*
X171765477Y-115156980D02*
X171791667Y-115061742D01*
X171791667Y-115061742D02*
X171755953Y-114776028D01*
X171755953Y-114776028D02*
X171705953Y-114680790D01*
X171705953Y-114680790D02*
X171661906Y-114633171D01*
X171661906Y-114633171D02*
X171579763Y-114585552D01*
X171579763Y-114585552D02*
X171465477Y-114585552D01*
X171465477Y-114585552D02*
X171395239Y-114633171D01*
X171395239Y-114633171D02*
X171363096Y-114680790D01*
X171363096Y-114680790D02*
X171336906Y-114776028D01*
X171336906Y-114776028D02*
X171372620Y-115061742D01*
X171372620Y-115061742D02*
X171422620Y-115156980D01*
X171422620Y-115156980D02*
X171466667Y-115204600D01*
X171466667Y-115204600D02*
X171548810Y-115252219D01*
X171548810Y-115252219D02*
X171663096Y-115252219D01*
X170627381Y-114585552D02*
X170710715Y-115252219D01*
X170970238Y-114585552D02*
X171035715Y-115109361D01*
X171035715Y-115109361D02*
X171009524Y-115204600D01*
X171009524Y-115204600D02*
X170939286Y-115252219D01*
X170939286Y-115252219D02*
X170825000Y-115252219D01*
X170825000Y-115252219D02*
X170742857Y-115204600D01*
X170742857Y-115204600D02*
X170698810Y-115156980D01*
X169636904Y-114585552D02*
X169720238Y-115252219D01*
X169648809Y-114680790D02*
X169604762Y-114633171D01*
X169604762Y-114633171D02*
X169522619Y-114585552D01*
X169522619Y-114585552D02*
X169408333Y-114585552D01*
X169408333Y-114585552D02*
X169338095Y-114633171D01*
X169338095Y-114633171D02*
X169311904Y-114728409D01*
X169311904Y-114728409D02*
X169377381Y-115252219D01*
X168882142Y-115252219D02*
X168952380Y-115204600D01*
X168952380Y-115204600D02*
X168984523Y-115156980D01*
X168984523Y-115156980D02*
X169010713Y-115061742D01*
X169010713Y-115061742D02*
X168974999Y-114776028D01*
X168974999Y-114776028D02*
X168924999Y-114680790D01*
X168924999Y-114680790D02*
X168880952Y-114633171D01*
X168880952Y-114633171D02*
X168798809Y-114585552D01*
X168798809Y-114585552D02*
X168684523Y-114585552D01*
X168684523Y-114585552D02*
X168614285Y-114633171D01*
X168614285Y-114633171D02*
X168582142Y-114680790D01*
X168582142Y-114680790D02*
X168555952Y-114776028D01*
X168555952Y-114776028D02*
X168591666Y-115061742D01*
X168591666Y-115061742D02*
X168641666Y-115156980D01*
X168641666Y-115156980D02*
X168685713Y-115204600D01*
X168685713Y-115204600D02*
X168767856Y-115252219D01*
X168767856Y-115252219D02*
X168882142Y-115252219D01*
X168303570Y-114585552D02*
X167998808Y-114585552D01*
X168147618Y-114252219D02*
X168254761Y-115109361D01*
X168254761Y-115109361D02*
X168228570Y-115204600D01*
X168228570Y-115204600D02*
X168158332Y-115252219D01*
X168158332Y-115252219D02*
X168082142Y-115252219D01*
X167236903Y-114585552D02*
X166932141Y-114585552D01*
X167080951Y-114252219D02*
X167188094Y-115109361D01*
X167188094Y-115109361D02*
X167161903Y-115204600D01*
X167161903Y-115204600D02*
X167091665Y-115252219D01*
X167091665Y-115252219D02*
X167015475Y-115252219D01*
X166748808Y-115252219D02*
X166623808Y-114252219D01*
X166405951Y-115252219D02*
X166340474Y-114728409D01*
X166340474Y-114728409D02*
X166366665Y-114633171D01*
X166366665Y-114633171D02*
X166436903Y-114585552D01*
X166436903Y-114585552D02*
X166551189Y-114585552D01*
X166551189Y-114585552D02*
X166633332Y-114633171D01*
X166633332Y-114633171D02*
X166677379Y-114680790D01*
X165714283Y-115204600D02*
X165796426Y-115252219D01*
X165796426Y-115252219D02*
X165948807Y-115252219D01*
X165948807Y-115252219D02*
X166019045Y-115204600D01*
X166019045Y-115204600D02*
X166045236Y-115109361D01*
X166045236Y-115109361D02*
X165997617Y-114728409D01*
X165997617Y-114728409D02*
X165947617Y-114633171D01*
X165947617Y-114633171D02*
X165865474Y-114585552D01*
X165865474Y-114585552D02*
X165713093Y-114585552D01*
X165713093Y-114585552D02*
X165642855Y-114633171D01*
X165642855Y-114633171D02*
X165616664Y-114728409D01*
X165616664Y-114728409D02*
X165628569Y-114823647D01*
X165628569Y-114823647D02*
X166021426Y-114918885D01*
X165332141Y-114585552D02*
X165224998Y-115252219D01*
X164951188Y-114585552D02*
X165224998Y-115252219D01*
X165224998Y-115252219D02*
X165330950Y-115490314D01*
X165330950Y-115490314D02*
X165374998Y-115537933D01*
X165374998Y-115537933D02*
X165457141Y-115585552D01*
X164566664Y-114252219D02*
X164666664Y-114442695D01*
X164348808Y-115252219D02*
X164265474Y-114585552D01*
X164289284Y-114776028D02*
X164239284Y-114680790D01*
X164239284Y-114680790D02*
X164195236Y-114633171D01*
X164195236Y-114633171D02*
X164113093Y-114585552D01*
X164113093Y-114585552D02*
X164036903Y-114585552D01*
X163542855Y-115204600D02*
X163624998Y-115252219D01*
X163624998Y-115252219D02*
X163777379Y-115252219D01*
X163777379Y-115252219D02*
X163847617Y-115204600D01*
X163847617Y-115204600D02*
X163873808Y-115109361D01*
X163873808Y-115109361D02*
X163826189Y-114728409D01*
X163826189Y-114728409D02*
X163776189Y-114633171D01*
X163776189Y-114633171D02*
X163694046Y-114585552D01*
X163694046Y-114585552D02*
X163541665Y-114585552D01*
X163541665Y-114585552D02*
X163471427Y-114633171D01*
X163471427Y-114633171D02*
X163445236Y-114728409D01*
X163445236Y-114728409D02*
X163457141Y-114823647D01*
X163457141Y-114823647D02*
X163849998Y-114918885D01*
X162590475Y-115204600D02*
X162482141Y-115252219D01*
X162482141Y-115252219D02*
X162291665Y-115252219D01*
X162291665Y-115252219D02*
X162209522Y-115204600D01*
X162209522Y-115204600D02*
X162165475Y-115156980D01*
X162165475Y-115156980D02*
X162115475Y-115061742D01*
X162115475Y-115061742D02*
X162103570Y-114966504D01*
X162103570Y-114966504D02*
X162129760Y-114871266D01*
X162129760Y-114871266D02*
X162161903Y-114823647D01*
X162161903Y-114823647D02*
X162232141Y-114776028D01*
X162232141Y-114776028D02*
X162378570Y-114728409D01*
X162378570Y-114728409D02*
X162448808Y-114680790D01*
X162448808Y-114680790D02*
X162480951Y-114633171D01*
X162480951Y-114633171D02*
X162507141Y-114537933D01*
X162507141Y-114537933D02*
X162495236Y-114442695D01*
X162495236Y-114442695D02*
X162445236Y-114347457D01*
X162445236Y-114347457D02*
X162401189Y-114299838D01*
X162401189Y-114299838D02*
X162319046Y-114252219D01*
X162319046Y-114252219D02*
X162128570Y-114252219D01*
X162128570Y-114252219D02*
X162020236Y-114299838D01*
X161453570Y-115252219D02*
X161388093Y-114728409D01*
X161388093Y-114728409D02*
X161414284Y-114633171D01*
X161414284Y-114633171D02*
X161484522Y-114585552D01*
X161484522Y-114585552D02*
X161636903Y-114585552D01*
X161636903Y-114585552D02*
X161719046Y-114633171D01*
X161447617Y-115204600D02*
X161529760Y-115252219D01*
X161529760Y-115252219D02*
X161720236Y-115252219D01*
X161720236Y-115252219D02*
X161790474Y-115204600D01*
X161790474Y-115204600D02*
X161816665Y-115109361D01*
X161816665Y-115109361D02*
X161804760Y-115014123D01*
X161804760Y-115014123D02*
X161754760Y-114918885D01*
X161754760Y-114918885D02*
X161672617Y-114871266D01*
X161672617Y-114871266D02*
X161482141Y-114871266D01*
X161482141Y-114871266D02*
X161399998Y-114823647D01*
X161103569Y-114585552D02*
X160798807Y-114585552D01*
X161072617Y-115252219D02*
X160965474Y-114395076D01*
X160965474Y-114395076D02*
X160915474Y-114299838D01*
X160915474Y-114299838D02*
X160833331Y-114252219D01*
X160833331Y-114252219D02*
X160757141Y-114252219D01*
X160304759Y-115204600D02*
X160386902Y-115252219D01*
X160386902Y-115252219D02*
X160539283Y-115252219D01*
X160539283Y-115252219D02*
X160609521Y-115204600D01*
X160609521Y-115204600D02*
X160635712Y-115109361D01*
X160635712Y-115109361D02*
X160588093Y-114728409D01*
X160588093Y-114728409D02*
X160538093Y-114633171D01*
X160538093Y-114633171D02*
X160455950Y-114585552D01*
X160455950Y-114585552D02*
X160303569Y-114585552D01*
X160303569Y-114585552D02*
X160233331Y-114633171D01*
X160233331Y-114633171D02*
X160207140Y-114728409D01*
X160207140Y-114728409D02*
X160219045Y-114823647D01*
X160219045Y-114823647D02*
X160611902Y-114918885D01*
X180866666Y-110359695D02*
X180866666Y-110931123D01*
X180866666Y-110931123D02*
X180904761Y-111045409D01*
X180904761Y-111045409D02*
X180980952Y-111121600D01*
X180980952Y-111121600D02*
X181095237Y-111159695D01*
X181095237Y-111159695D02*
X181171428Y-111159695D01*
X180523809Y-110435885D02*
X180485713Y-110397790D01*
X180485713Y-110397790D02*
X180409523Y-110359695D01*
X180409523Y-110359695D02*
X180219047Y-110359695D01*
X180219047Y-110359695D02*
X180142856Y-110397790D01*
X180142856Y-110397790D02*
X180104761Y-110435885D01*
X180104761Y-110435885D02*
X180066666Y-110512076D01*
X180066666Y-110512076D02*
X180066666Y-110588266D01*
X180066666Y-110588266D02*
X180104761Y-110702552D01*
X180104761Y-110702552D02*
X180561904Y-111159695D01*
X180561904Y-111159695D02*
X180066666Y-111159695D01*
D12*
%TO.C,J2*%
X179220000Y-91800000D02*
X181980000Y-91800000D01*
X179220000Y-107150000D02*
X179220000Y-91800000D01*
X179220000Y-107150000D02*
X181980000Y-107150000D01*
X179220000Y-108420000D02*
X179220000Y-109800000D01*
X179220000Y-109800000D02*
X180600000Y-109800000D01*
X181980000Y-107150000D02*
X181980000Y-91800000D01*
%TD*%
%LPC*%
D13*
%TO.C,TP1*%
X178600000Y-84600000D03*
D14*
X176060000Y-84600000D03*
%TD*%
D15*
%TO.C,SW2*%
X166450000Y-82500000D03*
X168750000Y-82500000D03*
%TD*%
D16*
%TO.C,H4*%
X190349999Y-117800000D03*
%TD*%
D15*
%TO.C,SW3*%
X168750000Y-119100000D03*
X166450000Y-119100000D03*
%TD*%
D13*
%TO.C,J1*%
X171600000Y-84925000D03*
D14*
X171600000Y-87465000D03*
%TD*%
D13*
%TO.C,TP5*%
X177325087Y-93124912D03*
%TD*%
%TO.C,TP6*%
X175600087Y-106124912D03*
D14*
X173060087Y-106124912D03*
%TD*%
D13*
%TO.C,TP4*%
X168027208Y-106375619D03*
%TD*%
D17*
%TO.C,B1*%
X187650000Y-98625000D03*
X186350000Y-98625000D03*
%TD*%
D16*
%TO.C,H1*%
X144849999Y-83800000D03*
%TD*%
D18*
%TO.C,U2*%
X147043500Y-108420000D03*
D19*
X149583500Y-108420000D03*
X152123500Y-108420000D03*
X154663500Y-108420000D03*
X157203500Y-108420000D03*
X159743500Y-108420000D03*
X162283500Y-108420000D03*
X162283500Y-93180000D03*
X159743500Y-93180000D03*
X157203500Y-93180000D03*
X154663500Y-93180000D03*
X152123500Y-93180000D03*
X149583500Y-93180000D03*
X147043500Y-93180000D03*
%TD*%
D16*
%TO.C,H3*%
X144849999Y-117800000D03*
%TD*%
D13*
%TO.C,TP7*%
X168825000Y-109800000D03*
D14*
X171365000Y-109800000D03*
%TD*%
D13*
%TO.C,TP2*%
X177325087Y-97999912D03*
%TD*%
D16*
%TO.C,H2*%
X190349999Y-83800000D03*
%TD*%
D13*
%TO.C,TP8*%
X147075000Y-111600000D03*
D14*
X144535000Y-111600000D03*
%TD*%
D13*
%TO.C,J2*%
X180600000Y-108420000D03*
D14*
X180600000Y-105880000D03*
X180600000Y-103340000D03*
X180600000Y-100800000D03*
X180600000Y-98260000D03*
X180600000Y-95720000D03*
X180600000Y-93180000D03*
%TD*%
%LPD*%
M02*
