%TF.GenerationSoftware,KiCad,Pcbnew,9.0.3*%
%TF.CreationDate,2025-07-20T17:02:37+08:00*%
%TF.ProjectId,pcb_all,7063625f-616c-46c2-9e6b-696361645f70,1*%
%TF.SameCoordinates,Original*%
%TF.FileFunction,Legend,Top*%
%TF.FilePolarity,Positive*%
%FSLAX46Y46*%
G04 Gerber Fmt 4.6, Leading zero omitted, Abs format (unit mm)*
G04 Created by KiCad (PCBNEW 9.0.3) date 2025-07-20 17:02:37*
%MOMM*%
%LPD*%
G01*
G04 APERTURE LIST*
G04 Aperture macros list*
%AMRoundRect*
0 Rectangle with rounded corners*
0 $1 Rounding radius*
0 $2 $3 $4 $5 $6 $7 $8 $9 X,Y pos of 4 corners*
0 Add a 4 corners polygon primitive as box body*
4,1,4,$2,$3,$4,$5,$6,$7,$8,$9,$2,$3,0*
0 Add four circle primitives for the rounded corners*
1,1,$1+$1,$2,$3*
1,1,$1+$1,$4,$5*
1,1,$1+$1,$6,$7*
1,1,$1+$1,$8,$9*
0 Add four rect primitives between the rounded corners*
20,1,$1+$1,$2,$3,$4,$5,0*
20,1,$1+$1,$4,$5,$6,$7,0*
20,1,$1+$1,$6,$7,$8,$9,0*
20,1,$1+$1,$8,$9,$2,$3,0*%
G04 Aperture macros list end*
%ADD10C,0.200000*%
%ADD11C,0.120000*%
%ADD12C,0.100000*%
%ADD13C,0.127000*%
%ADD14C,0.027000*%
%ADD15C,0.250000*%
%ADD16RoundRect,0.250000X0.325000X0.650000X-0.325000X0.650000X-0.325000X-0.650000X0.325000X-0.650000X0*%
%ADD17RoundRect,0.225000X-0.225000X-0.250000X0.225000X-0.250000X0.225000X0.250000X-0.225000X0.250000X0*%
%ADD18R,1.700000X1.700000*%
%ADD19C,1.700000*%
%ADD20RoundRect,0.200000X-0.200000X-0.275000X0.200000X-0.275000X0.200000X0.275000X-0.200000X0.275000X0*%
%ADD21RoundRect,0.250000X-0.650000X0.325000X-0.650000X-0.325000X0.650000X-0.325000X0.650000X0.325000X0*%
%ADD22RoundRect,0.250000X0.650000X-0.325000X0.650000X0.325000X-0.650000X0.325000X-0.650000X-0.325000X0*%
%ADD23C,1.600000*%
%ADD24RoundRect,0.075000X0.425000X-0.175000X0.425000X0.175000X-0.425000X0.175000X-0.425000X-0.175000X0*%
%ADD25RoundRect,0.225000X0.225000X0.250000X-0.225000X0.250000X-0.225000X-0.250000X0.225000X-0.250000X0*%
%ADD26RoundRect,0.218750X0.256250X-0.218750X0.256250X0.218750X-0.256250X0.218750X-0.256250X-0.218750X0*%
%ADD27RoundRect,0.200000X0.275000X-0.200000X0.275000X0.200000X-0.275000X0.200000X-0.275000X-0.200000X0*%
%ADD28RoundRect,0.150000X-0.150000X-0.625000X0.150000X-0.625000X0.150000X0.625000X-0.150000X0.625000X0*%
%ADD29RoundRect,0.250000X-0.350000X-0.650000X0.350000X-0.650000X0.350000X0.650000X-0.350000X0.650000X0*%
%ADD30RoundRect,0.225000X0.250000X-0.225000X0.250000X0.225000X-0.250000X0.225000X-0.250000X-0.225000X0*%
%ADD31RoundRect,0.225000X-0.250000X0.225000X-0.250000X-0.225000X0.250000X-0.225000X0.250000X0.225000X0*%
%ADD32C,3.800000*%
%ADD33RoundRect,0.190500X0.444500X-1.809500X0.444500X1.809500X-0.444500X1.809500X-0.444500X-1.809500X0*%
%ADD34RoundRect,0.200000X-0.275000X0.200000X-0.275000X-0.200000X0.275000X-0.200000X0.275000X0.200000X0*%
%ADD35RoundRect,0.200000X0.200000X0.275000X-0.200000X0.275000X-0.200000X-0.275000X0.200000X-0.275000X0*%
%ADD36RoundRect,0.075000X-0.425000X0.175000X-0.425000X-0.175000X0.425000X-0.175000X0.425000X0.175000X0*%
%ADD37R,0.850000X0.850000*%
%ADD38C,0.850000*%
%ADD39R,2.200000X1.550000*%
%ADD40R,0.250000X0.275000*%
%ADD41R,0.275000X0.250000*%
%ADD42R,0.300000X0.750000*%
%ADD43R,0.300000X0.450000*%
%ADD44R,0.950000X1.000000*%
%ADD45RoundRect,0.059250X-0.177750X0.552750X-0.177750X-0.552750X0.177750X-0.552750X0.177750X0.552750X0*%
%ADD46RoundRect,0.059250X-0.177750X0.512750X-0.177750X-0.512750X0.177750X-0.512750X0.177750X0.512750X0*%
%ADD47R,0.640000X0.420000*%
%ADD48RoundRect,0.250000X0.375000X0.850000X-0.375000X0.850000X-0.375000X-0.850000X0.375000X-0.850000X0*%
%ADD49R,0.600000X1.300000*%
%ADD50C,1.212000*%
%ADD51R,0.420000X0.640000*%
%ADD52R,1.150000X0.350000*%
%ADD53R,1.450000X0.200000*%
%ADD54R,0.450000X0.250000*%
%ADD55RoundRect,0.102000X0.679000X-0.679000X0.679000X0.679000X-0.679000X0.679000X-0.679000X-0.679000X0*%
%ADD56C,1.562000*%
%ADD57R,0.700000X1.000000*%
%ADD58R,0.575000X0.350000*%
%ADD59R,0.350000X0.575000*%
%ADD60R,0.700000X0.300000*%
%ADD61R,1.000000X1.700000*%
%ADD62RoundRect,0.250000X-0.375000X-0.850000X0.375000X-0.850000X0.375000X0.850000X-0.375000X0.850000X0*%
G04 APERTURE END LIST*
D10*
X143373638Y-93066667D02*
X142840304Y-93219048D01*
X142840304Y-93219048D02*
X143221257Y-93371429D01*
X143221257Y-93371429D02*
X142840304Y-93523810D01*
X142840304Y-93523810D02*
X143373638Y-93676191D01*
X142840304Y-93980953D02*
X143640304Y-93980953D01*
X142840304Y-94323810D02*
X143259352Y-94323810D01*
X143259352Y-94323810D02*
X143335542Y-94285715D01*
X143335542Y-94285715D02*
X143373638Y-94209524D01*
X143373638Y-94209524D02*
X143373638Y-94095238D01*
X143373638Y-94095238D02*
X143335542Y-94019048D01*
X143335542Y-94019048D02*
X143297447Y-93980953D01*
X142840304Y-94704763D02*
X143373638Y-94704763D01*
X143640304Y-94704763D02*
X143602209Y-94666667D01*
X143602209Y-94666667D02*
X143564114Y-94704763D01*
X143564114Y-94704763D02*
X143602209Y-94742858D01*
X143602209Y-94742858D02*
X143640304Y-94704763D01*
X143640304Y-94704763D02*
X143564114Y-94704763D01*
X142840304Y-95200000D02*
X142878400Y-95123810D01*
X142878400Y-95123810D02*
X142954590Y-95085715D01*
X142954590Y-95085715D02*
X143640304Y-95085715D01*
X142878400Y-95809525D02*
X142840304Y-95733334D01*
X142840304Y-95733334D02*
X142840304Y-95580953D01*
X142840304Y-95580953D02*
X142878400Y-95504763D01*
X142878400Y-95504763D02*
X142954590Y-95466667D01*
X142954590Y-95466667D02*
X143259352Y-95466667D01*
X143259352Y-95466667D02*
X143335542Y-95504763D01*
X143335542Y-95504763D02*
X143373638Y-95580953D01*
X143373638Y-95580953D02*
X143373638Y-95733334D01*
X143373638Y-95733334D02*
X143335542Y-95809525D01*
X143335542Y-95809525D02*
X143259352Y-95847620D01*
X143259352Y-95847620D02*
X143183161Y-95847620D01*
X143183161Y-95847620D02*
X143106971Y-95466667D01*
X142535542Y-97028572D02*
X142573638Y-96990477D01*
X142573638Y-96990477D02*
X142687923Y-96914286D01*
X142687923Y-96914286D02*
X142764114Y-96876191D01*
X142764114Y-96876191D02*
X142878400Y-96838096D01*
X142878400Y-96838096D02*
X143068876Y-96800001D01*
X143068876Y-96800001D02*
X143221257Y-96800001D01*
X143221257Y-96800001D02*
X143411733Y-96838096D01*
X143411733Y-96838096D02*
X143526019Y-96876191D01*
X143526019Y-96876191D02*
X143602209Y-96914286D01*
X143602209Y-96914286D02*
X143716495Y-96990477D01*
X143716495Y-96990477D02*
X143754590Y-97028572D01*
X142878400Y-97295238D02*
X142840304Y-97371429D01*
X142840304Y-97371429D02*
X142840304Y-97523810D01*
X142840304Y-97523810D02*
X142878400Y-97600000D01*
X142878400Y-97600000D02*
X142954590Y-97638096D01*
X142954590Y-97638096D02*
X142992685Y-97638096D01*
X142992685Y-97638096D02*
X143068876Y-97600000D01*
X143068876Y-97600000D02*
X143106971Y-97523810D01*
X143106971Y-97523810D02*
X143106971Y-97409524D01*
X143106971Y-97409524D02*
X143145066Y-97333334D01*
X143145066Y-97333334D02*
X143221257Y-97295238D01*
X143221257Y-97295238D02*
X143259352Y-97295238D01*
X143259352Y-97295238D02*
X143335542Y-97333334D01*
X143335542Y-97333334D02*
X143373638Y-97409524D01*
X143373638Y-97409524D02*
X143373638Y-97523810D01*
X143373638Y-97523810D02*
X143335542Y-97600000D01*
X142840304Y-98323810D02*
X143259352Y-98323810D01*
X143259352Y-98323810D02*
X143335542Y-98285715D01*
X143335542Y-98285715D02*
X143373638Y-98209524D01*
X143373638Y-98209524D02*
X143373638Y-98057143D01*
X143373638Y-98057143D02*
X143335542Y-97980953D01*
X142878400Y-98323810D02*
X142840304Y-98247619D01*
X142840304Y-98247619D02*
X142840304Y-98057143D01*
X142840304Y-98057143D02*
X142878400Y-97980953D01*
X142878400Y-97980953D02*
X142954590Y-97942857D01*
X142954590Y-97942857D02*
X143030780Y-97942857D01*
X143030780Y-97942857D02*
X143106971Y-97980953D01*
X143106971Y-97980953D02*
X143145066Y-98057143D01*
X143145066Y-98057143D02*
X143145066Y-98247619D01*
X143145066Y-98247619D02*
X143183161Y-98323810D01*
X143373638Y-98590477D02*
X143373638Y-98895239D01*
X142840304Y-98704763D02*
X143526019Y-98704763D01*
X143526019Y-98704763D02*
X143602209Y-98742858D01*
X143602209Y-98742858D02*
X143640304Y-98819048D01*
X143640304Y-98819048D02*
X143640304Y-98895239D01*
X142878400Y-99466668D02*
X142840304Y-99390477D01*
X142840304Y-99390477D02*
X142840304Y-99238096D01*
X142840304Y-99238096D02*
X142878400Y-99161906D01*
X142878400Y-99161906D02*
X142954590Y-99123810D01*
X142954590Y-99123810D02*
X143259352Y-99123810D01*
X143259352Y-99123810D02*
X143335542Y-99161906D01*
X143335542Y-99161906D02*
X143373638Y-99238096D01*
X143373638Y-99238096D02*
X143373638Y-99390477D01*
X143373638Y-99390477D02*
X143335542Y-99466668D01*
X143335542Y-99466668D02*
X143259352Y-99504763D01*
X143259352Y-99504763D02*
X143183161Y-99504763D01*
X143183161Y-99504763D02*
X143106971Y-99123810D01*
X142535542Y-99771429D02*
X142573638Y-99809524D01*
X142573638Y-99809524D02*
X142687923Y-99885715D01*
X142687923Y-99885715D02*
X142764114Y-99923810D01*
X142764114Y-99923810D02*
X142878400Y-99961905D01*
X142878400Y-99961905D02*
X143068876Y-100000001D01*
X143068876Y-100000001D02*
X143221257Y-100000001D01*
X143221257Y-100000001D02*
X143411733Y-99961905D01*
X143411733Y-99961905D02*
X143526019Y-99923810D01*
X143526019Y-99923810D02*
X143602209Y-99885715D01*
X143602209Y-99885715D02*
X143716495Y-99809524D01*
X143716495Y-99809524D02*
X143754590Y-99771429D01*
X142535542Y-101219048D02*
X142535542Y-101180953D01*
X142535542Y-101180953D02*
X142573638Y-101104762D01*
X142573638Y-101104762D02*
X142649828Y-101066667D01*
X142649828Y-101066667D02*
X143030780Y-101066667D01*
X143030780Y-101066667D02*
X143106971Y-101028572D01*
X143106971Y-101028572D02*
X143145066Y-100952381D01*
X143145066Y-100952381D02*
X143183161Y-101028572D01*
X143183161Y-101028572D02*
X143259352Y-101066667D01*
X143259352Y-101066667D02*
X143640304Y-101066667D01*
X143640304Y-101066667D02*
X143716495Y-101104762D01*
X143716495Y-101104762D02*
X143754590Y-101180953D01*
X143754590Y-101180953D02*
X143754590Y-101219048D01*
X142878400Y-102095238D02*
X142840304Y-102171429D01*
X142840304Y-102171429D02*
X142840304Y-102323810D01*
X142840304Y-102323810D02*
X142878400Y-102400000D01*
X142878400Y-102400000D02*
X142954590Y-102438096D01*
X142954590Y-102438096D02*
X142992685Y-102438096D01*
X142992685Y-102438096D02*
X143068876Y-102400000D01*
X143068876Y-102400000D02*
X143106971Y-102323810D01*
X143106971Y-102323810D02*
X143106971Y-102209524D01*
X143106971Y-102209524D02*
X143145066Y-102133334D01*
X143145066Y-102133334D02*
X143221257Y-102095238D01*
X143221257Y-102095238D02*
X143259352Y-102095238D01*
X143259352Y-102095238D02*
X143335542Y-102133334D01*
X143335542Y-102133334D02*
X143373638Y-102209524D01*
X143373638Y-102209524D02*
X143373638Y-102323810D01*
X143373638Y-102323810D02*
X143335542Y-102400000D01*
X142840304Y-102780953D02*
X143373638Y-102780953D01*
X143297447Y-102780953D02*
X143335542Y-102819048D01*
X143335542Y-102819048D02*
X143373638Y-102895238D01*
X143373638Y-102895238D02*
X143373638Y-103009524D01*
X143373638Y-103009524D02*
X143335542Y-103085715D01*
X143335542Y-103085715D02*
X143259352Y-103123810D01*
X143259352Y-103123810D02*
X142840304Y-103123810D01*
X143259352Y-103123810D02*
X143335542Y-103161905D01*
X143335542Y-103161905D02*
X143373638Y-103238096D01*
X143373638Y-103238096D02*
X143373638Y-103352381D01*
X143373638Y-103352381D02*
X143335542Y-103428572D01*
X143335542Y-103428572D02*
X143259352Y-103466667D01*
X143259352Y-103466667D02*
X142840304Y-103466667D01*
X142840304Y-103847620D02*
X143373638Y-103847620D01*
X143640304Y-103847620D02*
X143602209Y-103809524D01*
X143602209Y-103809524D02*
X143564114Y-103847620D01*
X143564114Y-103847620D02*
X143602209Y-103885715D01*
X143602209Y-103885715D02*
X143640304Y-103847620D01*
X143640304Y-103847620D02*
X143564114Y-103847620D01*
X142840304Y-104342857D02*
X142878400Y-104266667D01*
X142878400Y-104266667D02*
X142954590Y-104228572D01*
X142954590Y-104228572D02*
X143640304Y-104228572D01*
X142878400Y-104952382D02*
X142840304Y-104876191D01*
X142840304Y-104876191D02*
X142840304Y-104723810D01*
X142840304Y-104723810D02*
X142878400Y-104647620D01*
X142878400Y-104647620D02*
X142954590Y-104609524D01*
X142954590Y-104609524D02*
X143259352Y-104609524D01*
X143259352Y-104609524D02*
X143335542Y-104647620D01*
X143335542Y-104647620D02*
X143373638Y-104723810D01*
X143373638Y-104723810D02*
X143373638Y-104876191D01*
X143373638Y-104876191D02*
X143335542Y-104952382D01*
X143335542Y-104952382D02*
X143259352Y-104990477D01*
X143259352Y-104990477D02*
X143183161Y-104990477D01*
X143183161Y-104990477D02*
X143106971Y-104609524D01*
X143145066Y-105333334D02*
X143145066Y-105942858D01*
X142840304Y-105638096D02*
X143449828Y-105638096D01*
X143145066Y-106323810D02*
X143145066Y-106933334D01*
X142840304Y-106628572D02*
X143449828Y-106628572D01*
X142878400Y-107352381D02*
X142840304Y-107352381D01*
X142840304Y-107352381D02*
X142764114Y-107314286D01*
X142764114Y-107314286D02*
X142726019Y-107276190D01*
X143335542Y-107314286D02*
X143297447Y-107352381D01*
X143297447Y-107352381D02*
X143259352Y-107314286D01*
X143259352Y-107314286D02*
X143297447Y-107276190D01*
X143297447Y-107276190D02*
X143335542Y-107314286D01*
X143335542Y-107314286D02*
X143259352Y-107314286D01*
X142535542Y-108228571D02*
X142535542Y-108266666D01*
X142535542Y-108266666D02*
X142573638Y-108342857D01*
X142573638Y-108342857D02*
X142649828Y-108380952D01*
X142649828Y-108380952D02*
X143030780Y-108380952D01*
X143030780Y-108380952D02*
X143106971Y-108419047D01*
X143106971Y-108419047D02*
X143145066Y-108495238D01*
X143145066Y-108495238D02*
X143183161Y-108419047D01*
X143183161Y-108419047D02*
X143259352Y-108380952D01*
X143259352Y-108380952D02*
X143640304Y-108380952D01*
X143640304Y-108380952D02*
X143716495Y-108342857D01*
X143716495Y-108342857D02*
X143754590Y-108266666D01*
X143754590Y-108266666D02*
X143754590Y-108228571D01*
X175585714Y-102959695D02*
X175685714Y-102159695D01*
X175685714Y-102159695D02*
X176042857Y-102959695D01*
X176042857Y-102959695D02*
X176142857Y-102159695D01*
X176890475Y-102883504D02*
X176847618Y-102921600D01*
X176847618Y-102921600D02*
X176728571Y-102959695D01*
X176728571Y-102959695D02*
X176652380Y-102959695D01*
X176652380Y-102959695D02*
X176542856Y-102921600D01*
X176542856Y-102921600D02*
X176476190Y-102845409D01*
X176476190Y-102845409D02*
X176447618Y-102769219D01*
X176447618Y-102769219D02*
X176428571Y-102616838D01*
X176428571Y-102616838D02*
X176442856Y-102502552D01*
X176442856Y-102502552D02*
X176499999Y-102350171D01*
X176499999Y-102350171D02*
X176547618Y-102273980D01*
X176547618Y-102273980D02*
X176633333Y-102197790D01*
X176633333Y-102197790D02*
X176752380Y-102159695D01*
X176752380Y-102159695D02*
X176828571Y-102159695D01*
X176828571Y-102159695D02*
X176938095Y-102197790D01*
X176938095Y-102197790D02*
X176971428Y-102235885D01*
X177247618Y-102159695D02*
X177680952Y-102959695D01*
X177780952Y-102159695D02*
X177147618Y-102959695D01*
X161959695Y-106990476D02*
X161426361Y-106990476D01*
X161159695Y-106990476D02*
X161197790Y-107028572D01*
X161197790Y-107028572D02*
X161235885Y-106990476D01*
X161235885Y-106990476D02*
X161197790Y-106952381D01*
X161197790Y-106952381D02*
X161159695Y-106990476D01*
X161159695Y-106990476D02*
X161235885Y-106990476D01*
X161426361Y-106723810D02*
X161426361Y-106419048D01*
X161959695Y-106609524D02*
X161273980Y-106609524D01*
X161273980Y-106609524D02*
X161197790Y-106571429D01*
X161197790Y-106571429D02*
X161159695Y-106495239D01*
X161159695Y-106495239D02*
X161159695Y-106419048D01*
X162264457Y-105314286D02*
X162226361Y-105352381D01*
X162226361Y-105352381D02*
X162112076Y-105428572D01*
X162112076Y-105428572D02*
X162035885Y-105466667D01*
X162035885Y-105466667D02*
X161921600Y-105504762D01*
X161921600Y-105504762D02*
X161731123Y-105542857D01*
X161731123Y-105542857D02*
X161578742Y-105542857D01*
X161578742Y-105542857D02*
X161388266Y-105504762D01*
X161388266Y-105504762D02*
X161273980Y-105466667D01*
X161273980Y-105466667D02*
X161197790Y-105428572D01*
X161197790Y-105428572D02*
X161083504Y-105352381D01*
X161083504Y-105352381D02*
X161045409Y-105314286D01*
X161959695Y-104895239D02*
X161921600Y-104971429D01*
X161921600Y-104971429D02*
X161845409Y-105009524D01*
X161845409Y-105009524D02*
X161159695Y-105009524D01*
X161959695Y-104476191D02*
X161921600Y-104552381D01*
X161921600Y-104552381D02*
X161883504Y-104590476D01*
X161883504Y-104590476D02*
X161807314Y-104628572D01*
X161807314Y-104628572D02*
X161578742Y-104628572D01*
X161578742Y-104628572D02*
X161502552Y-104590476D01*
X161502552Y-104590476D02*
X161464457Y-104552381D01*
X161464457Y-104552381D02*
X161426361Y-104476191D01*
X161426361Y-104476191D02*
X161426361Y-104361905D01*
X161426361Y-104361905D02*
X161464457Y-104285714D01*
X161464457Y-104285714D02*
X161502552Y-104247619D01*
X161502552Y-104247619D02*
X161578742Y-104209524D01*
X161578742Y-104209524D02*
X161807314Y-104209524D01*
X161807314Y-104209524D02*
X161883504Y-104247619D01*
X161883504Y-104247619D02*
X161921600Y-104285714D01*
X161921600Y-104285714D02*
X161959695Y-104361905D01*
X161959695Y-104361905D02*
X161959695Y-104476191D01*
X161921600Y-103904762D02*
X161959695Y-103828571D01*
X161959695Y-103828571D02*
X161959695Y-103676190D01*
X161959695Y-103676190D02*
X161921600Y-103600000D01*
X161921600Y-103600000D02*
X161845409Y-103561904D01*
X161845409Y-103561904D02*
X161807314Y-103561904D01*
X161807314Y-103561904D02*
X161731123Y-103600000D01*
X161731123Y-103600000D02*
X161693028Y-103676190D01*
X161693028Y-103676190D02*
X161693028Y-103790476D01*
X161693028Y-103790476D02*
X161654933Y-103866666D01*
X161654933Y-103866666D02*
X161578742Y-103904762D01*
X161578742Y-103904762D02*
X161540647Y-103904762D01*
X161540647Y-103904762D02*
X161464457Y-103866666D01*
X161464457Y-103866666D02*
X161426361Y-103790476D01*
X161426361Y-103790476D02*
X161426361Y-103676190D01*
X161426361Y-103676190D02*
X161464457Y-103600000D01*
X161426361Y-103333333D02*
X161426361Y-103028571D01*
X161159695Y-103219047D02*
X161845409Y-103219047D01*
X161845409Y-103219047D02*
X161921600Y-103180952D01*
X161921600Y-103180952D02*
X161959695Y-103104762D01*
X161959695Y-103104762D02*
X161959695Y-103028571D01*
X162264457Y-102838095D02*
X162226361Y-102800000D01*
X162226361Y-102800000D02*
X162112076Y-102723809D01*
X162112076Y-102723809D02*
X162035885Y-102685714D01*
X162035885Y-102685714D02*
X161921600Y-102647619D01*
X161921600Y-102647619D02*
X161731123Y-102609523D01*
X161731123Y-102609523D02*
X161578742Y-102609523D01*
X161578742Y-102609523D02*
X161388266Y-102647619D01*
X161388266Y-102647619D02*
X161273980Y-102685714D01*
X161273980Y-102685714D02*
X161197790Y-102723809D01*
X161197790Y-102723809D02*
X161083504Y-102800000D01*
X161083504Y-102800000D02*
X161045409Y-102838095D01*
X161959695Y-101619047D02*
X161426361Y-101619047D01*
X161578742Y-101619047D02*
X161502552Y-101580952D01*
X161502552Y-101580952D02*
X161464457Y-101542857D01*
X161464457Y-101542857D02*
X161426361Y-101466666D01*
X161426361Y-101466666D02*
X161426361Y-101390476D01*
X161921600Y-100819047D02*
X161959695Y-100895238D01*
X161959695Y-100895238D02*
X161959695Y-101047619D01*
X161959695Y-101047619D02*
X161921600Y-101123809D01*
X161921600Y-101123809D02*
X161845409Y-101161905D01*
X161845409Y-101161905D02*
X161540647Y-101161905D01*
X161540647Y-101161905D02*
X161464457Y-101123809D01*
X161464457Y-101123809D02*
X161426361Y-101047619D01*
X161426361Y-101047619D02*
X161426361Y-100895238D01*
X161426361Y-100895238D02*
X161464457Y-100819047D01*
X161464457Y-100819047D02*
X161540647Y-100780952D01*
X161540647Y-100780952D02*
X161616838Y-100780952D01*
X161616838Y-100780952D02*
X161693028Y-101161905D01*
X161426361Y-100552381D02*
X161426361Y-100247619D01*
X161159695Y-100438095D02*
X161845409Y-100438095D01*
X161845409Y-100438095D02*
X161921600Y-100400000D01*
X161921600Y-100400000D02*
X161959695Y-100323810D01*
X161959695Y-100323810D02*
X161959695Y-100247619D01*
X161426361Y-99638095D02*
X161959695Y-99638095D01*
X161426361Y-99980952D02*
X161845409Y-99980952D01*
X161845409Y-99980952D02*
X161921600Y-99942857D01*
X161921600Y-99942857D02*
X161959695Y-99866667D01*
X161959695Y-99866667D02*
X161959695Y-99752381D01*
X161959695Y-99752381D02*
X161921600Y-99676190D01*
X161921600Y-99676190D02*
X161883504Y-99638095D01*
X161959695Y-99257142D02*
X161426361Y-99257142D01*
X161578742Y-99257142D02*
X161502552Y-99219047D01*
X161502552Y-99219047D02*
X161464457Y-99180952D01*
X161464457Y-99180952D02*
X161426361Y-99104761D01*
X161426361Y-99104761D02*
X161426361Y-99028571D01*
X161426361Y-98761904D02*
X161959695Y-98761904D01*
X161502552Y-98761904D02*
X161464457Y-98723809D01*
X161464457Y-98723809D02*
X161426361Y-98647619D01*
X161426361Y-98647619D02*
X161426361Y-98533333D01*
X161426361Y-98533333D02*
X161464457Y-98457142D01*
X161464457Y-98457142D02*
X161540647Y-98419047D01*
X161540647Y-98419047D02*
X161959695Y-98419047D01*
X161959695Y-97428570D02*
X161159695Y-97428570D01*
X161959695Y-97085713D02*
X161540647Y-97085713D01*
X161540647Y-97085713D02*
X161464457Y-97123808D01*
X161464457Y-97123808D02*
X161426361Y-97199999D01*
X161426361Y-97199999D02*
X161426361Y-97314285D01*
X161426361Y-97314285D02*
X161464457Y-97390475D01*
X161464457Y-97390475D02*
X161502552Y-97428570D01*
X161959695Y-96590475D02*
X161921600Y-96666665D01*
X161921600Y-96666665D02*
X161883504Y-96704760D01*
X161883504Y-96704760D02*
X161807314Y-96742856D01*
X161807314Y-96742856D02*
X161578742Y-96742856D01*
X161578742Y-96742856D02*
X161502552Y-96704760D01*
X161502552Y-96704760D02*
X161464457Y-96666665D01*
X161464457Y-96666665D02*
X161426361Y-96590475D01*
X161426361Y-96590475D02*
X161426361Y-96476189D01*
X161426361Y-96476189D02*
X161464457Y-96399998D01*
X161464457Y-96399998D02*
X161502552Y-96361903D01*
X161502552Y-96361903D02*
X161578742Y-96323808D01*
X161578742Y-96323808D02*
X161807314Y-96323808D01*
X161807314Y-96323808D02*
X161883504Y-96361903D01*
X161883504Y-96361903D02*
X161921600Y-96399998D01*
X161921600Y-96399998D02*
X161959695Y-96476189D01*
X161959695Y-96476189D02*
X161959695Y-96590475D01*
X161959695Y-95980950D02*
X161426361Y-95980950D01*
X161502552Y-95980950D02*
X161464457Y-95942855D01*
X161464457Y-95942855D02*
X161426361Y-95866665D01*
X161426361Y-95866665D02*
X161426361Y-95752379D01*
X161426361Y-95752379D02*
X161464457Y-95676188D01*
X161464457Y-95676188D02*
X161540647Y-95638093D01*
X161540647Y-95638093D02*
X161959695Y-95638093D01*
X161540647Y-95638093D02*
X161464457Y-95599998D01*
X161464457Y-95599998D02*
X161426361Y-95523807D01*
X161426361Y-95523807D02*
X161426361Y-95409522D01*
X161426361Y-95409522D02*
X161464457Y-95333331D01*
X161464457Y-95333331D02*
X161540647Y-95295236D01*
X161540647Y-95295236D02*
X161959695Y-95295236D01*
X161921600Y-94609521D02*
X161959695Y-94685712D01*
X161959695Y-94685712D02*
X161959695Y-94838093D01*
X161959695Y-94838093D02*
X161921600Y-94914283D01*
X161921600Y-94914283D02*
X161845409Y-94952379D01*
X161845409Y-94952379D02*
X161540647Y-94952379D01*
X161540647Y-94952379D02*
X161464457Y-94914283D01*
X161464457Y-94914283D02*
X161426361Y-94838093D01*
X161426361Y-94838093D02*
X161426361Y-94685712D01*
X161426361Y-94685712D02*
X161464457Y-94609521D01*
X161464457Y-94609521D02*
X161540647Y-94571426D01*
X161540647Y-94571426D02*
X161616838Y-94571426D01*
X161616838Y-94571426D02*
X161693028Y-94952379D01*
X187227763Y-101866667D02*
X188027763Y-101676191D01*
X188027763Y-101676191D02*
X187456334Y-101523810D01*
X187456334Y-101523810D02*
X188027763Y-101371429D01*
X188027763Y-101371429D02*
X187227763Y-101180953D01*
X188027763Y-100876190D02*
X187227763Y-100876190D01*
X188027763Y-100533333D02*
X187608715Y-100533333D01*
X187608715Y-100533333D02*
X187532525Y-100571428D01*
X187532525Y-100571428D02*
X187494429Y-100647619D01*
X187494429Y-100647619D02*
X187494429Y-100761905D01*
X187494429Y-100761905D02*
X187532525Y-100838095D01*
X187532525Y-100838095D02*
X187570620Y-100876190D01*
X188027763Y-100038095D02*
X187989668Y-100114285D01*
X187989668Y-100114285D02*
X187951572Y-100152380D01*
X187951572Y-100152380D02*
X187875382Y-100190476D01*
X187875382Y-100190476D02*
X187646810Y-100190476D01*
X187646810Y-100190476D02*
X187570620Y-100152380D01*
X187570620Y-100152380D02*
X187532525Y-100114285D01*
X187532525Y-100114285D02*
X187494429Y-100038095D01*
X187494429Y-100038095D02*
X187494429Y-99923809D01*
X187494429Y-99923809D02*
X187532525Y-99847618D01*
X187532525Y-99847618D02*
X187570620Y-99809523D01*
X187570620Y-99809523D02*
X187646810Y-99771428D01*
X187646810Y-99771428D02*
X187875382Y-99771428D01*
X187875382Y-99771428D02*
X187951572Y-99809523D01*
X187951572Y-99809523D02*
X187989668Y-99847618D01*
X187989668Y-99847618D02*
X188027763Y-99923809D01*
X188027763Y-99923809D02*
X188027763Y-100038095D01*
X188782384Y-102342856D02*
X189315718Y-102342856D01*
X188858575Y-102342856D02*
X188820480Y-102304761D01*
X188820480Y-102304761D02*
X188782384Y-102228571D01*
X188782384Y-102228571D02*
X188782384Y-102114285D01*
X188782384Y-102114285D02*
X188820480Y-102038094D01*
X188820480Y-102038094D02*
X188896670Y-101999999D01*
X188896670Y-101999999D02*
X189315718Y-101999999D01*
X189277623Y-101314284D02*
X189315718Y-101390475D01*
X189315718Y-101390475D02*
X189315718Y-101542856D01*
X189315718Y-101542856D02*
X189277623Y-101619046D01*
X189277623Y-101619046D02*
X189201432Y-101657142D01*
X189201432Y-101657142D02*
X188896670Y-101657142D01*
X188896670Y-101657142D02*
X188820480Y-101619046D01*
X188820480Y-101619046D02*
X188782384Y-101542856D01*
X188782384Y-101542856D02*
X188782384Y-101390475D01*
X188782384Y-101390475D02*
X188820480Y-101314284D01*
X188820480Y-101314284D02*
X188896670Y-101276189D01*
X188896670Y-101276189D02*
X188972861Y-101276189D01*
X188972861Y-101276189D02*
X189049051Y-101657142D01*
X189277623Y-100628570D02*
X189315718Y-100704761D01*
X189315718Y-100704761D02*
X189315718Y-100857142D01*
X189315718Y-100857142D02*
X189277623Y-100933332D01*
X189277623Y-100933332D02*
X189201432Y-100971428D01*
X189201432Y-100971428D02*
X188896670Y-100971428D01*
X188896670Y-100971428D02*
X188820480Y-100933332D01*
X188820480Y-100933332D02*
X188782384Y-100857142D01*
X188782384Y-100857142D02*
X188782384Y-100704761D01*
X188782384Y-100704761D02*
X188820480Y-100628570D01*
X188820480Y-100628570D02*
X188896670Y-100590475D01*
X188896670Y-100590475D02*
X188972861Y-100590475D01*
X188972861Y-100590475D02*
X189049051Y-100971428D01*
X189315718Y-99904761D02*
X188515718Y-99904761D01*
X189277623Y-99904761D02*
X189315718Y-99980952D01*
X189315718Y-99980952D02*
X189315718Y-100133333D01*
X189315718Y-100133333D02*
X189277623Y-100209523D01*
X189277623Y-100209523D02*
X189239527Y-100247618D01*
X189239527Y-100247618D02*
X189163337Y-100285714D01*
X189163337Y-100285714D02*
X188934765Y-100285714D01*
X188934765Y-100285714D02*
X188858575Y-100247618D01*
X188858575Y-100247618D02*
X188820480Y-100209523D01*
X188820480Y-100209523D02*
X188782384Y-100133333D01*
X188782384Y-100133333D02*
X188782384Y-99980952D01*
X188782384Y-99980952D02*
X188820480Y-99904761D01*
X189277623Y-99561904D02*
X189315718Y-99485713D01*
X189315718Y-99485713D02*
X189315718Y-99333332D01*
X189315718Y-99333332D02*
X189277623Y-99257142D01*
X189277623Y-99257142D02*
X189201432Y-99219046D01*
X189201432Y-99219046D02*
X189163337Y-99219046D01*
X189163337Y-99219046D02*
X189087146Y-99257142D01*
X189087146Y-99257142D02*
X189049051Y-99333332D01*
X189049051Y-99333332D02*
X189049051Y-99447618D01*
X189049051Y-99447618D02*
X189010956Y-99523808D01*
X189010956Y-99523808D02*
X188934765Y-99561904D01*
X188934765Y-99561904D02*
X188896670Y-99561904D01*
X188896670Y-99561904D02*
X188820480Y-99523808D01*
X188820480Y-99523808D02*
X188782384Y-99447618D01*
X188782384Y-99447618D02*
X188782384Y-99333332D01*
X188782384Y-99333332D02*
X188820480Y-99257142D01*
X190565578Y-104742857D02*
X190603673Y-104666666D01*
X190603673Y-104666666D02*
X190603673Y-104514285D01*
X190603673Y-104514285D02*
X190565578Y-104438095D01*
X190565578Y-104438095D02*
X190489387Y-104399999D01*
X190489387Y-104399999D02*
X190451292Y-104399999D01*
X190451292Y-104399999D02*
X190375101Y-104438095D01*
X190375101Y-104438095D02*
X190337006Y-104514285D01*
X190337006Y-104514285D02*
X190337006Y-104628571D01*
X190337006Y-104628571D02*
X190298911Y-104704761D01*
X190298911Y-104704761D02*
X190222720Y-104742857D01*
X190222720Y-104742857D02*
X190184625Y-104742857D01*
X190184625Y-104742857D02*
X190108435Y-104704761D01*
X190108435Y-104704761D02*
X190070339Y-104628571D01*
X190070339Y-104628571D02*
X190070339Y-104514285D01*
X190070339Y-104514285D02*
X190108435Y-104438095D01*
X190565578Y-103714285D02*
X190603673Y-103790476D01*
X190603673Y-103790476D02*
X190603673Y-103942857D01*
X190603673Y-103942857D02*
X190565578Y-104019047D01*
X190565578Y-104019047D02*
X190527482Y-104057142D01*
X190527482Y-104057142D02*
X190451292Y-104095238D01*
X190451292Y-104095238D02*
X190222720Y-104095238D01*
X190222720Y-104095238D02*
X190146530Y-104057142D01*
X190146530Y-104057142D02*
X190108435Y-104019047D01*
X190108435Y-104019047D02*
X190070339Y-103942857D01*
X190070339Y-103942857D02*
X190070339Y-103790476D01*
X190070339Y-103790476D02*
X190108435Y-103714285D01*
X190603673Y-103371428D02*
X190070339Y-103371428D01*
X190222720Y-103371428D02*
X190146530Y-103333333D01*
X190146530Y-103333333D02*
X190108435Y-103295238D01*
X190108435Y-103295238D02*
X190070339Y-103219047D01*
X190070339Y-103219047D02*
X190070339Y-103142857D01*
X190603673Y-102876190D02*
X190070339Y-102876190D01*
X189803673Y-102876190D02*
X189841768Y-102914286D01*
X189841768Y-102914286D02*
X189879863Y-102876190D01*
X189879863Y-102876190D02*
X189841768Y-102838095D01*
X189841768Y-102838095D02*
X189803673Y-102876190D01*
X189803673Y-102876190D02*
X189879863Y-102876190D01*
X190070339Y-102495238D02*
X190870339Y-102495238D01*
X190108435Y-102495238D02*
X190070339Y-102419048D01*
X190070339Y-102419048D02*
X190070339Y-102266667D01*
X190070339Y-102266667D02*
X190108435Y-102190476D01*
X190108435Y-102190476D02*
X190146530Y-102152381D01*
X190146530Y-102152381D02*
X190222720Y-102114286D01*
X190222720Y-102114286D02*
X190451292Y-102114286D01*
X190451292Y-102114286D02*
X190527482Y-102152381D01*
X190527482Y-102152381D02*
X190565578Y-102190476D01*
X190565578Y-102190476D02*
X190603673Y-102266667D01*
X190603673Y-102266667D02*
X190603673Y-102419048D01*
X190603673Y-102419048D02*
X190565578Y-102495238D01*
X190070339Y-101885714D02*
X190070339Y-101580952D01*
X189803673Y-101771428D02*
X190489387Y-101771428D01*
X190489387Y-101771428D02*
X190565578Y-101733333D01*
X190565578Y-101733333D02*
X190603673Y-101657143D01*
X190603673Y-101657143D02*
X190603673Y-101580952D01*
X190070339Y-100780952D02*
X190603673Y-100628571D01*
X190603673Y-100628571D02*
X190222720Y-100476190D01*
X190222720Y-100476190D02*
X190603673Y-100323809D01*
X190603673Y-100323809D02*
X190070339Y-100171428D01*
X190603673Y-99866666D02*
X189803673Y-99866666D01*
X190603673Y-99523809D02*
X190184625Y-99523809D01*
X190184625Y-99523809D02*
X190108435Y-99561904D01*
X190108435Y-99561904D02*
X190070339Y-99638095D01*
X190070339Y-99638095D02*
X190070339Y-99752381D01*
X190070339Y-99752381D02*
X190108435Y-99828571D01*
X190108435Y-99828571D02*
X190146530Y-99866666D01*
X190565578Y-98838094D02*
X190603673Y-98914285D01*
X190603673Y-98914285D02*
X190603673Y-99066666D01*
X190603673Y-99066666D02*
X190565578Y-99142856D01*
X190565578Y-99142856D02*
X190489387Y-99180952D01*
X190489387Y-99180952D02*
X190184625Y-99180952D01*
X190184625Y-99180952D02*
X190108435Y-99142856D01*
X190108435Y-99142856D02*
X190070339Y-99066666D01*
X190070339Y-99066666D02*
X190070339Y-98914285D01*
X190070339Y-98914285D02*
X190108435Y-98838094D01*
X190108435Y-98838094D02*
X190184625Y-98799999D01*
X190184625Y-98799999D02*
X190260816Y-98799999D01*
X190260816Y-98799999D02*
X190337006Y-99180952D01*
X190070339Y-98457142D02*
X190603673Y-98457142D01*
X190146530Y-98457142D02*
X190108435Y-98419047D01*
X190108435Y-98419047D02*
X190070339Y-98342857D01*
X190070339Y-98342857D02*
X190070339Y-98228571D01*
X190070339Y-98228571D02*
X190108435Y-98152380D01*
X190108435Y-98152380D02*
X190184625Y-98114285D01*
X190184625Y-98114285D02*
X190603673Y-98114285D01*
X191358294Y-107714286D02*
X191891628Y-107523810D01*
X191358294Y-107333333D02*
X191891628Y-107523810D01*
X191891628Y-107523810D02*
X192082104Y-107600000D01*
X192082104Y-107600000D02*
X192120199Y-107638095D01*
X192120199Y-107638095D02*
X192158294Y-107714286D01*
X191891628Y-106914286D02*
X191853533Y-106990476D01*
X191853533Y-106990476D02*
X191815437Y-107028571D01*
X191815437Y-107028571D02*
X191739247Y-107066667D01*
X191739247Y-107066667D02*
X191510675Y-107066667D01*
X191510675Y-107066667D02*
X191434485Y-107028571D01*
X191434485Y-107028571D02*
X191396390Y-106990476D01*
X191396390Y-106990476D02*
X191358294Y-106914286D01*
X191358294Y-106914286D02*
X191358294Y-106800000D01*
X191358294Y-106800000D02*
X191396390Y-106723809D01*
X191396390Y-106723809D02*
X191434485Y-106685714D01*
X191434485Y-106685714D02*
X191510675Y-106647619D01*
X191510675Y-106647619D02*
X191739247Y-106647619D01*
X191739247Y-106647619D02*
X191815437Y-106685714D01*
X191815437Y-106685714D02*
X191853533Y-106723809D01*
X191853533Y-106723809D02*
X191891628Y-106800000D01*
X191891628Y-106800000D02*
X191891628Y-106914286D01*
X191358294Y-105961904D02*
X191891628Y-105961904D01*
X191358294Y-106304761D02*
X191777342Y-106304761D01*
X191777342Y-106304761D02*
X191853533Y-106266666D01*
X191853533Y-106266666D02*
X191891628Y-106190476D01*
X191891628Y-106190476D02*
X191891628Y-106076190D01*
X191891628Y-106076190D02*
X191853533Y-105999999D01*
X191853533Y-105999999D02*
X191815437Y-105961904D01*
X191091628Y-105542856D02*
X191244009Y-105619047D01*
X191358294Y-105276190D02*
X191891628Y-105085714D01*
X191891628Y-105085714D02*
X191358294Y-104895237D01*
X191853533Y-104285713D02*
X191891628Y-104361904D01*
X191891628Y-104361904D02*
X191891628Y-104514285D01*
X191891628Y-104514285D02*
X191853533Y-104590475D01*
X191853533Y-104590475D02*
X191777342Y-104628571D01*
X191777342Y-104628571D02*
X191472580Y-104628571D01*
X191472580Y-104628571D02*
X191396390Y-104590475D01*
X191396390Y-104590475D02*
X191358294Y-104514285D01*
X191358294Y-104514285D02*
X191358294Y-104361904D01*
X191358294Y-104361904D02*
X191396390Y-104285713D01*
X191396390Y-104285713D02*
X191472580Y-104247618D01*
X191472580Y-104247618D02*
X191548771Y-104247618D01*
X191548771Y-104247618D02*
X191624961Y-104628571D01*
X191358294Y-102952380D02*
X192005913Y-102952380D01*
X192005913Y-102952380D02*
X192082104Y-102990475D01*
X192082104Y-102990475D02*
X192120199Y-103028571D01*
X192120199Y-103028571D02*
X192158294Y-103104761D01*
X192158294Y-103104761D02*
X192158294Y-103219047D01*
X192158294Y-103219047D02*
X192120199Y-103295237D01*
X191853533Y-102952380D02*
X191891628Y-103028571D01*
X191891628Y-103028571D02*
X191891628Y-103180952D01*
X191891628Y-103180952D02*
X191853533Y-103257142D01*
X191853533Y-103257142D02*
X191815437Y-103295237D01*
X191815437Y-103295237D02*
X191739247Y-103333333D01*
X191739247Y-103333333D02*
X191510675Y-103333333D01*
X191510675Y-103333333D02*
X191434485Y-103295237D01*
X191434485Y-103295237D02*
X191396390Y-103257142D01*
X191396390Y-103257142D02*
X191358294Y-103180952D01*
X191358294Y-103180952D02*
X191358294Y-103028571D01*
X191358294Y-103028571D02*
X191396390Y-102952380D01*
X191891628Y-102457142D02*
X191853533Y-102533332D01*
X191853533Y-102533332D02*
X191815437Y-102571427D01*
X191815437Y-102571427D02*
X191739247Y-102609523D01*
X191739247Y-102609523D02*
X191510675Y-102609523D01*
X191510675Y-102609523D02*
X191434485Y-102571427D01*
X191434485Y-102571427D02*
X191396390Y-102533332D01*
X191396390Y-102533332D02*
X191358294Y-102457142D01*
X191358294Y-102457142D02*
X191358294Y-102342856D01*
X191358294Y-102342856D02*
X191396390Y-102266665D01*
X191396390Y-102266665D02*
X191434485Y-102228570D01*
X191434485Y-102228570D02*
X191510675Y-102190475D01*
X191510675Y-102190475D02*
X191739247Y-102190475D01*
X191739247Y-102190475D02*
X191815437Y-102228570D01*
X191815437Y-102228570D02*
X191853533Y-102266665D01*
X191853533Y-102266665D02*
X191891628Y-102342856D01*
X191891628Y-102342856D02*
X191891628Y-102457142D01*
X191358294Y-101961903D02*
X191358294Y-101657141D01*
X191091628Y-101847617D02*
X191777342Y-101847617D01*
X191777342Y-101847617D02*
X191853533Y-101809522D01*
X191853533Y-101809522D02*
X191891628Y-101733332D01*
X191891628Y-101733332D02*
X191891628Y-101657141D01*
X192196390Y-100552379D02*
X192158294Y-100590474D01*
X192158294Y-100590474D02*
X192044009Y-100666665D01*
X192044009Y-100666665D02*
X191967818Y-100704760D01*
X191967818Y-100704760D02*
X191853533Y-100742855D01*
X191853533Y-100742855D02*
X191663056Y-100780950D01*
X191663056Y-100780950D02*
X191510675Y-100780950D01*
X191510675Y-100780950D02*
X191320199Y-100742855D01*
X191320199Y-100742855D02*
X191205913Y-100704760D01*
X191205913Y-100704760D02*
X191129723Y-100666665D01*
X191129723Y-100666665D02*
X191015437Y-100590474D01*
X191015437Y-100590474D02*
X190977342Y-100552379D01*
X191358294Y-100361903D02*
X191358294Y-100057141D01*
X191091628Y-100247617D02*
X191777342Y-100247617D01*
X191777342Y-100247617D02*
X191853533Y-100209522D01*
X191853533Y-100209522D02*
X191891628Y-100133332D01*
X191891628Y-100133332D02*
X191891628Y-100057141D01*
X191891628Y-99790474D02*
X191358294Y-99790474D01*
X191510675Y-99790474D02*
X191434485Y-99752379D01*
X191434485Y-99752379D02*
X191396390Y-99714284D01*
X191396390Y-99714284D02*
X191358294Y-99638093D01*
X191358294Y-99638093D02*
X191358294Y-99561903D01*
X191891628Y-99295236D02*
X191358294Y-99295236D01*
X191091628Y-99295236D02*
X191129723Y-99333332D01*
X191129723Y-99333332D02*
X191167818Y-99295236D01*
X191167818Y-99295236D02*
X191129723Y-99257141D01*
X191129723Y-99257141D02*
X191091628Y-99295236D01*
X191091628Y-99295236D02*
X191167818Y-99295236D01*
X191358294Y-98914284D02*
X192158294Y-98914284D01*
X191396390Y-98914284D02*
X191358294Y-98838094D01*
X191358294Y-98838094D02*
X191358294Y-98685713D01*
X191358294Y-98685713D02*
X191396390Y-98609522D01*
X191396390Y-98609522D02*
X191434485Y-98571427D01*
X191434485Y-98571427D02*
X191510675Y-98533332D01*
X191510675Y-98533332D02*
X191739247Y-98533332D01*
X191739247Y-98533332D02*
X191815437Y-98571427D01*
X191815437Y-98571427D02*
X191853533Y-98609522D01*
X191853533Y-98609522D02*
X191891628Y-98685713D01*
X191891628Y-98685713D02*
X191891628Y-98838094D01*
X191891628Y-98838094D02*
X191853533Y-98914284D01*
X192196390Y-98266665D02*
X192158294Y-98228570D01*
X192158294Y-98228570D02*
X192044009Y-98152379D01*
X192044009Y-98152379D02*
X191967818Y-98114284D01*
X191967818Y-98114284D02*
X191853533Y-98076189D01*
X191853533Y-98076189D02*
X191663056Y-98038093D01*
X191663056Y-98038093D02*
X191510675Y-98038093D01*
X191510675Y-98038093D02*
X191320199Y-98076189D01*
X191320199Y-98076189D02*
X191205913Y-98114284D01*
X191205913Y-98114284D02*
X191129723Y-98152379D01*
X191129723Y-98152379D02*
X191015437Y-98228570D01*
X191015437Y-98228570D02*
X190977342Y-98266665D01*
X191853533Y-97314284D02*
X191891628Y-97390475D01*
X191891628Y-97390475D02*
X191891628Y-97542856D01*
X191891628Y-97542856D02*
X191853533Y-97619046D01*
X191853533Y-97619046D02*
X191815437Y-97657141D01*
X191815437Y-97657141D02*
X191739247Y-97695237D01*
X191739247Y-97695237D02*
X191510675Y-97695237D01*
X191510675Y-97695237D02*
X191434485Y-97657141D01*
X191434485Y-97657141D02*
X191396390Y-97619046D01*
X191396390Y-97619046D02*
X191358294Y-97542856D01*
X191358294Y-97542856D02*
X191358294Y-97390475D01*
X191358294Y-97390475D02*
X191396390Y-97314284D01*
X191891628Y-96971427D02*
X191091628Y-96971427D01*
X191891628Y-96628570D02*
X191472580Y-96628570D01*
X191472580Y-96628570D02*
X191396390Y-96666665D01*
X191396390Y-96666665D02*
X191358294Y-96742856D01*
X191358294Y-96742856D02*
X191358294Y-96857142D01*
X191358294Y-96857142D02*
X191396390Y-96933332D01*
X191396390Y-96933332D02*
X191434485Y-96971427D01*
X191891628Y-95904760D02*
X191472580Y-95904760D01*
X191472580Y-95904760D02*
X191396390Y-95942855D01*
X191396390Y-95942855D02*
X191358294Y-96019046D01*
X191358294Y-96019046D02*
X191358294Y-96171427D01*
X191358294Y-96171427D02*
X191396390Y-96247617D01*
X191853533Y-95904760D02*
X191891628Y-95980951D01*
X191891628Y-95980951D02*
X191891628Y-96171427D01*
X191891628Y-96171427D02*
X191853533Y-96247617D01*
X191853533Y-96247617D02*
X191777342Y-96285713D01*
X191777342Y-96285713D02*
X191701152Y-96285713D01*
X191701152Y-96285713D02*
X191624961Y-96247617D01*
X191624961Y-96247617D02*
X191586866Y-96171427D01*
X191586866Y-96171427D02*
X191586866Y-95980951D01*
X191586866Y-95980951D02*
X191548771Y-95904760D01*
X191891628Y-95523807D02*
X191358294Y-95523807D01*
X191510675Y-95523807D02*
X191434485Y-95485712D01*
X191434485Y-95485712D02*
X191396390Y-95447617D01*
X191396390Y-95447617D02*
X191358294Y-95371426D01*
X191358294Y-95371426D02*
X191358294Y-95295236D01*
X191891628Y-95028569D02*
X191358294Y-95028569D01*
X191434485Y-95028569D02*
X191396390Y-94990474D01*
X191396390Y-94990474D02*
X191358294Y-94914284D01*
X191358294Y-94914284D02*
X191358294Y-94799998D01*
X191358294Y-94799998D02*
X191396390Y-94723807D01*
X191396390Y-94723807D02*
X191472580Y-94685712D01*
X191472580Y-94685712D02*
X191891628Y-94685712D01*
X191472580Y-94685712D02*
X191396390Y-94647617D01*
X191396390Y-94647617D02*
X191358294Y-94571426D01*
X191358294Y-94571426D02*
X191358294Y-94457141D01*
X191358294Y-94457141D02*
X191396390Y-94380950D01*
X191396390Y-94380950D02*
X191472580Y-94342855D01*
X191472580Y-94342855D02*
X191891628Y-94342855D01*
X191815437Y-93961902D02*
X191853533Y-93923807D01*
X191853533Y-93923807D02*
X191891628Y-93961902D01*
X191891628Y-93961902D02*
X191853533Y-93999998D01*
X191853533Y-93999998D02*
X191815437Y-93961902D01*
X191815437Y-93961902D02*
X191891628Y-93961902D01*
X177114284Y-119026361D02*
X177685713Y-119026361D01*
X177342856Y-118683504D02*
X177114284Y-119712076D01*
X177609523Y-119369219D02*
X177038094Y-119369219D01*
X177380951Y-119712076D02*
X177609523Y-118683504D01*
X177952380Y-119559695D02*
X177952380Y-119026361D01*
X177952380Y-118759695D02*
X177914284Y-118797790D01*
X177914284Y-118797790D02*
X177952380Y-118835885D01*
X177952380Y-118835885D02*
X177990475Y-118797790D01*
X177990475Y-118797790D02*
X177952380Y-118759695D01*
X177952380Y-118759695D02*
X177952380Y-118835885D01*
X178333332Y-119026361D02*
X178333332Y-119559695D01*
X178333332Y-119102552D02*
X178371427Y-119064457D01*
X178371427Y-119064457D02*
X178447617Y-119026361D01*
X178447617Y-119026361D02*
X178561903Y-119026361D01*
X178561903Y-119026361D02*
X178638094Y-119064457D01*
X178638094Y-119064457D02*
X178676189Y-119140647D01*
X178676189Y-119140647D02*
X178676189Y-119559695D01*
X179399999Y-119521600D02*
X179323808Y-119559695D01*
X179323808Y-119559695D02*
X179171427Y-119559695D01*
X179171427Y-119559695D02*
X179095237Y-119521600D01*
X179095237Y-119521600D02*
X179057142Y-119483504D01*
X179057142Y-119483504D02*
X179019046Y-119407314D01*
X179019046Y-119407314D02*
X179019046Y-119178742D01*
X179019046Y-119178742D02*
X179057142Y-119102552D01*
X179057142Y-119102552D02*
X179095237Y-119064457D01*
X179095237Y-119064457D02*
X179171427Y-119026361D01*
X179171427Y-119026361D02*
X179323808Y-119026361D01*
X179323808Y-119026361D02*
X179399999Y-119064457D01*
X179857141Y-119559695D02*
X179780951Y-119521600D01*
X179780951Y-119521600D02*
X179742856Y-119445409D01*
X179742856Y-119445409D02*
X179742856Y-118759695D01*
X180504761Y-119026361D02*
X180504761Y-119559695D01*
X180161904Y-119026361D02*
X180161904Y-119445409D01*
X180161904Y-119445409D02*
X180199999Y-119521600D01*
X180199999Y-119521600D02*
X180276189Y-119559695D01*
X180276189Y-119559695D02*
X180390475Y-119559695D01*
X180390475Y-119559695D02*
X180466666Y-119521600D01*
X180466666Y-119521600D02*
X180504761Y-119483504D01*
X181228571Y-119559695D02*
X181228571Y-118759695D01*
X181228571Y-119521600D02*
X181152380Y-119559695D01*
X181152380Y-119559695D02*
X180999999Y-119559695D01*
X180999999Y-119559695D02*
X180923809Y-119521600D01*
X180923809Y-119521600D02*
X180885714Y-119483504D01*
X180885714Y-119483504D02*
X180847618Y-119407314D01*
X180847618Y-119407314D02*
X180847618Y-119178742D01*
X180847618Y-119178742D02*
X180885714Y-119102552D01*
X180885714Y-119102552D02*
X180923809Y-119064457D01*
X180923809Y-119064457D02*
X180999999Y-119026361D01*
X180999999Y-119026361D02*
X181152380Y-119026361D01*
X181152380Y-119026361D02*
X181228571Y-119064457D01*
X181914286Y-119521600D02*
X181838095Y-119559695D01*
X181838095Y-119559695D02*
X181685714Y-119559695D01*
X181685714Y-119559695D02*
X181609524Y-119521600D01*
X181609524Y-119521600D02*
X181571428Y-119445409D01*
X181571428Y-119445409D02*
X181571428Y-119140647D01*
X181571428Y-119140647D02*
X181609524Y-119064457D01*
X181609524Y-119064457D02*
X181685714Y-119026361D01*
X181685714Y-119026361D02*
X181838095Y-119026361D01*
X181838095Y-119026361D02*
X181914286Y-119064457D01*
X181914286Y-119064457D02*
X181952381Y-119140647D01*
X181952381Y-119140647D02*
X181952381Y-119216838D01*
X181952381Y-119216838D02*
X181571428Y-119293028D01*
X183514286Y-119026361D02*
X182904762Y-119254933D01*
X182904762Y-119254933D02*
X183514286Y-119483504D01*
X184009523Y-119559695D02*
X183933333Y-119521600D01*
X183933333Y-119521600D02*
X183895238Y-119445409D01*
X183895238Y-119445409D02*
X183895238Y-118759695D01*
X184428571Y-119559695D02*
X184352381Y-119521600D01*
X184352381Y-119521600D02*
X184314286Y-119483504D01*
X184314286Y-119483504D02*
X184276190Y-119407314D01*
X184276190Y-119407314D02*
X184276190Y-119178742D01*
X184276190Y-119178742D02*
X184314286Y-119102552D01*
X184314286Y-119102552D02*
X184352381Y-119064457D01*
X184352381Y-119064457D02*
X184428571Y-119026361D01*
X184428571Y-119026361D02*
X184542857Y-119026361D01*
X184542857Y-119026361D02*
X184619048Y-119064457D01*
X184619048Y-119064457D02*
X184657143Y-119102552D01*
X184657143Y-119102552D02*
X184695238Y-119178742D01*
X184695238Y-119178742D02*
X184695238Y-119407314D01*
X184695238Y-119407314D02*
X184657143Y-119483504D01*
X184657143Y-119483504D02*
X184619048Y-119521600D01*
X184619048Y-119521600D02*
X184542857Y-119559695D01*
X184542857Y-119559695D02*
X184428571Y-119559695D01*
X184961905Y-119026361D02*
X185152381Y-119559695D01*
X185152381Y-119559695D02*
X185342858Y-119026361D01*
X185952382Y-119521600D02*
X185876191Y-119559695D01*
X185876191Y-119559695D02*
X185723810Y-119559695D01*
X185723810Y-119559695D02*
X185647620Y-119521600D01*
X185647620Y-119521600D02*
X185609524Y-119445409D01*
X185609524Y-119445409D02*
X185609524Y-119140647D01*
X185609524Y-119140647D02*
X185647620Y-119064457D01*
X185647620Y-119064457D02*
X185723810Y-119026361D01*
X185723810Y-119026361D02*
X185876191Y-119026361D01*
X185876191Y-119026361D02*
X185952382Y-119064457D01*
X185952382Y-119064457D02*
X185990477Y-119140647D01*
X185990477Y-119140647D02*
X185990477Y-119216838D01*
X185990477Y-119216838D02*
X185609524Y-119293028D01*
X186333334Y-119483504D02*
X186371429Y-119521600D01*
X186371429Y-119521600D02*
X186333334Y-119559695D01*
X186333334Y-119559695D02*
X186295238Y-119521600D01*
X186295238Y-119521600D02*
X186333334Y-119483504D01*
X186333334Y-119483504D02*
X186333334Y-119559695D01*
X186714286Y-119559695D02*
X186714286Y-118759695D01*
X187057143Y-119559695D02*
X187057143Y-119140647D01*
X187057143Y-119140647D02*
X187019048Y-119064457D01*
X187019048Y-119064457D02*
X186942857Y-119026361D01*
X186942857Y-119026361D02*
X186828571Y-119026361D01*
X186828571Y-119026361D02*
X186752381Y-119064457D01*
X186752381Y-119064457D02*
X186714286Y-119102552D01*
X187438096Y-119026361D02*
X188047620Y-119254933D01*
X188047620Y-119254933D02*
X187438096Y-119483504D01*
X145947619Y-98315718D02*
X146047619Y-97515718D01*
X146047619Y-97515718D02*
X146404762Y-98315718D01*
X146404762Y-98315718D02*
X146504762Y-97515718D01*
X147252380Y-98239527D02*
X147209523Y-98277623D01*
X147209523Y-98277623D02*
X147090476Y-98315718D01*
X147090476Y-98315718D02*
X147014285Y-98315718D01*
X147014285Y-98315718D02*
X146904761Y-98277623D01*
X146904761Y-98277623D02*
X146838095Y-98201432D01*
X146838095Y-98201432D02*
X146809523Y-98125242D01*
X146809523Y-98125242D02*
X146790476Y-97972861D01*
X146790476Y-97972861D02*
X146804761Y-97858575D01*
X146804761Y-97858575D02*
X146861904Y-97706194D01*
X146861904Y-97706194D02*
X146909523Y-97630003D01*
X146909523Y-97630003D02*
X146995238Y-97553813D01*
X146995238Y-97553813D02*
X147114285Y-97515718D01*
X147114285Y-97515718D02*
X147190476Y-97515718D01*
X147190476Y-97515718D02*
X147300000Y-97553813D01*
X147300000Y-97553813D02*
X147333333Y-97591908D01*
X147609523Y-97515718D02*
X148042857Y-98315718D01*
X148142857Y-97515718D02*
X147509523Y-98315718D01*
X148390476Y-98277623D02*
X148385714Y-98315718D01*
X148385714Y-98315718D02*
X148338095Y-98391908D01*
X148338095Y-98391908D02*
X148295238Y-98430003D01*
X149323809Y-97515718D02*
X149780952Y-97515718D01*
X149452381Y-98315718D02*
X149552381Y-97515718D01*
X149971428Y-97515718D02*
X150061905Y-98315718D01*
X150061905Y-98315718D02*
X150285714Y-97744289D01*
X150285714Y-97744289D02*
X150366666Y-98315718D01*
X150366666Y-98315718D02*
X150657143Y-97515718D01*
X150885714Y-97515718D02*
X151319048Y-98315718D01*
X151419048Y-97515718D02*
X150785714Y-98315718D01*
X145952380Y-98803673D02*
X146042857Y-99603673D01*
X146042857Y-99603673D02*
X146266666Y-99032244D01*
X146266666Y-99032244D02*
X146347618Y-99603673D01*
X146347618Y-99603673D02*
X146638095Y-98803673D01*
X147042857Y-99222720D02*
X146995238Y-99603673D01*
X146828571Y-98803673D02*
X147042857Y-99222720D01*
X147042857Y-99222720D02*
X147361904Y-98803673D01*
X147857142Y-98803673D02*
X147785714Y-99375101D01*
X147785714Y-99375101D02*
X147733333Y-99489387D01*
X147733333Y-99489387D02*
X147647618Y-99565578D01*
X147647618Y-99565578D02*
X147528571Y-99603673D01*
X147528571Y-99603673D02*
X147452380Y-99603673D01*
X148180952Y-99565578D02*
X148176190Y-99603673D01*
X148176190Y-99603673D02*
X148128571Y-99679863D01*
X148128571Y-99679863D02*
X148085714Y-99717958D01*
X149128571Y-99603673D02*
X149228571Y-98803673D01*
X149180952Y-99184625D02*
X149638095Y-99184625D01*
X149585714Y-99603673D02*
X149685714Y-98803673D01*
X149966666Y-99603673D02*
X150066666Y-98803673D01*
X150066666Y-98803673D02*
X150261904Y-99375101D01*
X150261904Y-99375101D02*
X150599999Y-98803673D01*
X150599999Y-98803673D02*
X150499999Y-99603673D01*
X150904761Y-98803673D02*
X151438095Y-98803673D01*
X151438095Y-98803673D02*
X150804761Y-99603673D01*
X150804761Y-99603673D02*
X151338095Y-99603673D01*
X148085714Y-114483504D02*
X148047618Y-114521600D01*
X148047618Y-114521600D02*
X147933333Y-114559695D01*
X147933333Y-114559695D02*
X147857142Y-114559695D01*
X147857142Y-114559695D02*
X147742856Y-114521600D01*
X147742856Y-114521600D02*
X147666666Y-114445409D01*
X147666666Y-114445409D02*
X147628571Y-114369219D01*
X147628571Y-114369219D02*
X147590475Y-114216838D01*
X147590475Y-114216838D02*
X147590475Y-114102552D01*
X147590475Y-114102552D02*
X147628571Y-113950171D01*
X147628571Y-113950171D02*
X147666666Y-113873980D01*
X147666666Y-113873980D02*
X147742856Y-113797790D01*
X147742856Y-113797790D02*
X147857142Y-113759695D01*
X147857142Y-113759695D02*
X147933333Y-113759695D01*
X147933333Y-113759695D02*
X148047618Y-113797790D01*
X148047618Y-113797790D02*
X148085714Y-113835885D01*
X148847618Y-114559695D02*
X148390475Y-114559695D01*
X148619047Y-114559695D02*
X148619047Y-113759695D01*
X148619047Y-113759695D02*
X148542856Y-113873980D01*
X148542856Y-113873980D02*
X148466666Y-113950171D01*
X148466666Y-113950171D02*
X148390475Y-113988266D01*
X149609523Y-114559695D02*
X149152380Y-114559695D01*
X149380952Y-114559695D02*
X149380952Y-113759695D01*
X149380952Y-113759695D02*
X149304761Y-113873980D01*
X149304761Y-113873980D02*
X149228571Y-113950171D01*
X149228571Y-113950171D02*
X149152380Y-113988266D01*
X154248714Y-105959504D02*
X154210618Y-105997600D01*
X154210618Y-105997600D02*
X154096333Y-106035695D01*
X154096333Y-106035695D02*
X154020142Y-106035695D01*
X154020142Y-106035695D02*
X153905856Y-105997600D01*
X153905856Y-105997600D02*
X153829666Y-105921409D01*
X153829666Y-105921409D02*
X153791571Y-105845219D01*
X153791571Y-105845219D02*
X153753475Y-105692838D01*
X153753475Y-105692838D02*
X153753475Y-105578552D01*
X153753475Y-105578552D02*
X153791571Y-105426171D01*
X153791571Y-105426171D02*
X153829666Y-105349980D01*
X153829666Y-105349980D02*
X153905856Y-105273790D01*
X153905856Y-105273790D02*
X154020142Y-105235695D01*
X154020142Y-105235695D02*
X154096333Y-105235695D01*
X154096333Y-105235695D02*
X154210618Y-105273790D01*
X154210618Y-105273790D02*
X154248714Y-105311885D01*
X155010618Y-106035695D02*
X154553475Y-106035695D01*
X154782047Y-106035695D02*
X154782047Y-105235695D01*
X154782047Y-105235695D02*
X154705856Y-105349980D01*
X154705856Y-105349980D02*
X154629666Y-105426171D01*
X154629666Y-105426171D02*
X154553475Y-105464266D01*
X155391571Y-106035695D02*
X155543952Y-106035695D01*
X155543952Y-106035695D02*
X155620142Y-105997600D01*
X155620142Y-105997600D02*
X155658238Y-105959504D01*
X155658238Y-105959504D02*
X155734428Y-105845219D01*
X155734428Y-105845219D02*
X155772523Y-105692838D01*
X155772523Y-105692838D02*
X155772523Y-105388076D01*
X155772523Y-105388076D02*
X155734428Y-105311885D01*
X155734428Y-105311885D02*
X155696333Y-105273790D01*
X155696333Y-105273790D02*
X155620142Y-105235695D01*
X155620142Y-105235695D02*
X155467761Y-105235695D01*
X155467761Y-105235695D02*
X155391571Y-105273790D01*
X155391571Y-105273790D02*
X155353476Y-105311885D01*
X155353476Y-105311885D02*
X155315380Y-105388076D01*
X155315380Y-105388076D02*
X155315380Y-105578552D01*
X155315380Y-105578552D02*
X155353476Y-105654742D01*
X155353476Y-105654742D02*
X155391571Y-105692838D01*
X155391571Y-105692838D02*
X155467761Y-105730933D01*
X155467761Y-105730933D02*
X155620142Y-105730933D01*
X155620142Y-105730933D02*
X155696333Y-105692838D01*
X155696333Y-105692838D02*
X155734428Y-105654742D01*
X155734428Y-105654742D02*
X155772523Y-105578552D01*
X176315476Y-81759695D02*
X176772619Y-81759695D01*
X176544047Y-82559695D02*
X176544047Y-81759695D01*
X177039286Y-82559695D02*
X177039286Y-81759695D01*
X177039286Y-81759695D02*
X177344048Y-81759695D01*
X177344048Y-81759695D02*
X177420238Y-81797790D01*
X177420238Y-81797790D02*
X177458333Y-81835885D01*
X177458333Y-81835885D02*
X177496429Y-81912076D01*
X177496429Y-81912076D02*
X177496429Y-82026361D01*
X177496429Y-82026361D02*
X177458333Y-82102552D01*
X177458333Y-82102552D02*
X177420238Y-82140647D01*
X177420238Y-82140647D02*
X177344048Y-82178742D01*
X177344048Y-82178742D02*
X177039286Y-82178742D01*
X178258333Y-82559695D02*
X177801190Y-82559695D01*
X178029762Y-82559695D02*
X178029762Y-81759695D01*
X178029762Y-81759695D02*
X177953571Y-81873980D01*
X177953571Y-81873980D02*
X177877381Y-81950171D01*
X177877381Y-81950171D02*
X177801190Y-81988266D01*
X154266667Y-119559695D02*
X154000000Y-119178742D01*
X153809524Y-119559695D02*
X153809524Y-118759695D01*
X153809524Y-118759695D02*
X154114286Y-118759695D01*
X154114286Y-118759695D02*
X154190476Y-118797790D01*
X154190476Y-118797790D02*
X154228571Y-118835885D01*
X154228571Y-118835885D02*
X154266667Y-118912076D01*
X154266667Y-118912076D02*
X154266667Y-119026361D01*
X154266667Y-119026361D02*
X154228571Y-119102552D01*
X154228571Y-119102552D02*
X154190476Y-119140647D01*
X154190476Y-119140647D02*
X154114286Y-119178742D01*
X154114286Y-119178742D02*
X153809524Y-119178742D01*
X155028571Y-119559695D02*
X154571428Y-119559695D01*
X154800000Y-119559695D02*
X154800000Y-118759695D01*
X154800000Y-118759695D02*
X154723809Y-118873980D01*
X154723809Y-118873980D02*
X154647619Y-118950171D01*
X154647619Y-118950171D02*
X154571428Y-118988266D01*
X163716667Y-117833504D02*
X163678571Y-117871600D01*
X163678571Y-117871600D02*
X163564286Y-117909695D01*
X163564286Y-117909695D02*
X163488095Y-117909695D01*
X163488095Y-117909695D02*
X163373809Y-117871600D01*
X163373809Y-117871600D02*
X163297619Y-117795409D01*
X163297619Y-117795409D02*
X163259524Y-117719219D01*
X163259524Y-117719219D02*
X163221428Y-117566838D01*
X163221428Y-117566838D02*
X163221428Y-117452552D01*
X163221428Y-117452552D02*
X163259524Y-117300171D01*
X163259524Y-117300171D02*
X163297619Y-117223980D01*
X163297619Y-117223980D02*
X163373809Y-117147790D01*
X163373809Y-117147790D02*
X163488095Y-117109695D01*
X163488095Y-117109695D02*
X163564286Y-117109695D01*
X163564286Y-117109695D02*
X163678571Y-117147790D01*
X163678571Y-117147790D02*
X163716667Y-117185885D01*
X164173809Y-117452552D02*
X164097619Y-117414457D01*
X164097619Y-117414457D02*
X164059524Y-117376361D01*
X164059524Y-117376361D02*
X164021428Y-117300171D01*
X164021428Y-117300171D02*
X164021428Y-117262076D01*
X164021428Y-117262076D02*
X164059524Y-117185885D01*
X164059524Y-117185885D02*
X164097619Y-117147790D01*
X164097619Y-117147790D02*
X164173809Y-117109695D01*
X164173809Y-117109695D02*
X164326190Y-117109695D01*
X164326190Y-117109695D02*
X164402381Y-117147790D01*
X164402381Y-117147790D02*
X164440476Y-117185885D01*
X164440476Y-117185885D02*
X164478571Y-117262076D01*
X164478571Y-117262076D02*
X164478571Y-117300171D01*
X164478571Y-117300171D02*
X164440476Y-117376361D01*
X164440476Y-117376361D02*
X164402381Y-117414457D01*
X164402381Y-117414457D02*
X164326190Y-117452552D01*
X164326190Y-117452552D02*
X164173809Y-117452552D01*
X164173809Y-117452552D02*
X164097619Y-117490647D01*
X164097619Y-117490647D02*
X164059524Y-117528742D01*
X164059524Y-117528742D02*
X164021428Y-117604933D01*
X164021428Y-117604933D02*
X164021428Y-117757314D01*
X164021428Y-117757314D02*
X164059524Y-117833504D01*
X164059524Y-117833504D02*
X164097619Y-117871600D01*
X164097619Y-117871600D02*
X164173809Y-117909695D01*
X164173809Y-117909695D02*
X164326190Y-117909695D01*
X164326190Y-117909695D02*
X164402381Y-117871600D01*
X164402381Y-117871600D02*
X164440476Y-117833504D01*
X164440476Y-117833504D02*
X164478571Y-117757314D01*
X164478571Y-117757314D02*
X164478571Y-117604933D01*
X164478571Y-117604933D02*
X164440476Y-117528742D01*
X164440476Y-117528742D02*
X164402381Y-117490647D01*
X164402381Y-117490647D02*
X164326190Y-117452552D01*
X150383504Y-86333332D02*
X150421600Y-86371428D01*
X150421600Y-86371428D02*
X150459695Y-86485713D01*
X150459695Y-86485713D02*
X150459695Y-86561904D01*
X150459695Y-86561904D02*
X150421600Y-86676190D01*
X150421600Y-86676190D02*
X150345409Y-86752380D01*
X150345409Y-86752380D02*
X150269219Y-86790475D01*
X150269219Y-86790475D02*
X150116838Y-86828571D01*
X150116838Y-86828571D02*
X150002552Y-86828571D01*
X150002552Y-86828571D02*
X149850171Y-86790475D01*
X149850171Y-86790475D02*
X149773980Y-86752380D01*
X149773980Y-86752380D02*
X149697790Y-86676190D01*
X149697790Y-86676190D02*
X149659695Y-86561904D01*
X149659695Y-86561904D02*
X149659695Y-86485713D01*
X149659695Y-86485713D02*
X149697790Y-86371428D01*
X149697790Y-86371428D02*
X149735885Y-86333332D01*
X150459695Y-85952380D02*
X150459695Y-85799999D01*
X150459695Y-85799999D02*
X150421600Y-85723809D01*
X150421600Y-85723809D02*
X150383504Y-85685713D01*
X150383504Y-85685713D02*
X150269219Y-85609523D01*
X150269219Y-85609523D02*
X150116838Y-85571428D01*
X150116838Y-85571428D02*
X149812076Y-85571428D01*
X149812076Y-85571428D02*
X149735885Y-85609523D01*
X149735885Y-85609523D02*
X149697790Y-85647618D01*
X149697790Y-85647618D02*
X149659695Y-85723809D01*
X149659695Y-85723809D02*
X149659695Y-85876190D01*
X149659695Y-85876190D02*
X149697790Y-85952380D01*
X149697790Y-85952380D02*
X149735885Y-85990475D01*
X149735885Y-85990475D02*
X149812076Y-86028571D01*
X149812076Y-86028571D02*
X150002552Y-86028571D01*
X150002552Y-86028571D02*
X150078742Y-85990475D01*
X150078742Y-85990475D02*
X150116838Y-85952380D01*
X150116838Y-85952380D02*
X150154933Y-85876190D01*
X150154933Y-85876190D02*
X150154933Y-85723809D01*
X150154933Y-85723809D02*
X150116838Y-85647618D01*
X150116838Y-85647618D02*
X150078742Y-85609523D01*
X150078742Y-85609523D02*
X150002552Y-85571428D01*
X170333332Y-82921600D02*
X170447618Y-82959695D01*
X170447618Y-82959695D02*
X170638094Y-82959695D01*
X170638094Y-82959695D02*
X170714285Y-82921600D01*
X170714285Y-82921600D02*
X170752380Y-82883504D01*
X170752380Y-82883504D02*
X170790475Y-82807314D01*
X170790475Y-82807314D02*
X170790475Y-82731123D01*
X170790475Y-82731123D02*
X170752380Y-82654933D01*
X170752380Y-82654933D02*
X170714285Y-82616838D01*
X170714285Y-82616838D02*
X170638094Y-82578742D01*
X170638094Y-82578742D02*
X170485713Y-82540647D01*
X170485713Y-82540647D02*
X170409523Y-82502552D01*
X170409523Y-82502552D02*
X170371428Y-82464457D01*
X170371428Y-82464457D02*
X170333332Y-82388266D01*
X170333332Y-82388266D02*
X170333332Y-82312076D01*
X170333332Y-82312076D02*
X170371428Y-82235885D01*
X170371428Y-82235885D02*
X170409523Y-82197790D01*
X170409523Y-82197790D02*
X170485713Y-82159695D01*
X170485713Y-82159695D02*
X170676190Y-82159695D01*
X170676190Y-82159695D02*
X170790475Y-82197790D01*
X171057142Y-82159695D02*
X171247618Y-82959695D01*
X171247618Y-82959695D02*
X171399999Y-82388266D01*
X171399999Y-82388266D02*
X171552380Y-82959695D01*
X171552380Y-82959695D02*
X171742857Y-82159695D01*
X172009523Y-82235885D02*
X172047619Y-82197790D01*
X172047619Y-82197790D02*
X172123809Y-82159695D01*
X172123809Y-82159695D02*
X172314285Y-82159695D01*
X172314285Y-82159695D02*
X172390476Y-82197790D01*
X172390476Y-82197790D02*
X172428571Y-82235885D01*
X172428571Y-82235885D02*
X172466666Y-82312076D01*
X172466666Y-82312076D02*
X172466666Y-82388266D01*
X172466666Y-82388266D02*
X172428571Y-82502552D01*
X172428571Y-82502552D02*
X171971428Y-82959695D01*
X171971428Y-82959695D02*
X172466666Y-82959695D01*
X161483504Y-91114285D02*
X161521600Y-91152381D01*
X161521600Y-91152381D02*
X161559695Y-91266666D01*
X161559695Y-91266666D02*
X161559695Y-91342857D01*
X161559695Y-91342857D02*
X161521600Y-91457143D01*
X161521600Y-91457143D02*
X161445409Y-91533333D01*
X161445409Y-91533333D02*
X161369219Y-91571428D01*
X161369219Y-91571428D02*
X161216838Y-91609524D01*
X161216838Y-91609524D02*
X161102552Y-91609524D01*
X161102552Y-91609524D02*
X160950171Y-91571428D01*
X160950171Y-91571428D02*
X160873980Y-91533333D01*
X160873980Y-91533333D02*
X160797790Y-91457143D01*
X160797790Y-91457143D02*
X160759695Y-91342857D01*
X160759695Y-91342857D02*
X160759695Y-91266666D01*
X160759695Y-91266666D02*
X160797790Y-91152381D01*
X160797790Y-91152381D02*
X160835885Y-91114285D01*
X161559695Y-90352381D02*
X161559695Y-90809524D01*
X161559695Y-90580952D02*
X160759695Y-90580952D01*
X160759695Y-90580952D02*
X160873980Y-90657143D01*
X160873980Y-90657143D02*
X160950171Y-90733333D01*
X160950171Y-90733333D02*
X160988266Y-90809524D01*
X161026361Y-89666666D02*
X161559695Y-89666666D01*
X160721600Y-89857142D02*
X161293028Y-90047619D01*
X161293028Y-90047619D02*
X161293028Y-89552380D01*
X180447695Y-118078475D02*
X179647695Y-118078475D01*
X179647695Y-118078475D02*
X179647695Y-117887999D01*
X179647695Y-117887999D02*
X179685790Y-117773713D01*
X179685790Y-117773713D02*
X179761980Y-117697523D01*
X179761980Y-117697523D02*
X179838171Y-117659428D01*
X179838171Y-117659428D02*
X179990552Y-117621332D01*
X179990552Y-117621332D02*
X180104838Y-117621332D01*
X180104838Y-117621332D02*
X180257219Y-117659428D01*
X180257219Y-117659428D02*
X180333409Y-117697523D01*
X180333409Y-117697523D02*
X180409600Y-117773713D01*
X180409600Y-117773713D02*
X180447695Y-117887999D01*
X180447695Y-117887999D02*
X180447695Y-118078475D01*
X179647695Y-117354666D02*
X179647695Y-116859428D01*
X179647695Y-116859428D02*
X179952457Y-117126094D01*
X179952457Y-117126094D02*
X179952457Y-117011809D01*
X179952457Y-117011809D02*
X179990552Y-116935618D01*
X179990552Y-116935618D02*
X180028647Y-116897523D01*
X180028647Y-116897523D02*
X180104838Y-116859428D01*
X180104838Y-116859428D02*
X180295314Y-116859428D01*
X180295314Y-116859428D02*
X180371504Y-116897523D01*
X180371504Y-116897523D02*
X180409600Y-116935618D01*
X180409600Y-116935618D02*
X180447695Y-117011809D01*
X180447695Y-117011809D02*
X180447695Y-117240380D01*
X180447695Y-117240380D02*
X180409600Y-117316571D01*
X180409600Y-117316571D02*
X180371504Y-117354666D01*
X170454782Y-96383244D02*
X170073829Y-96649911D01*
X170454782Y-96840387D02*
X169654782Y-96840387D01*
X169654782Y-96840387D02*
X169654782Y-96535625D01*
X169654782Y-96535625D02*
X169692877Y-96459435D01*
X169692877Y-96459435D02*
X169730972Y-96421340D01*
X169730972Y-96421340D02*
X169807163Y-96383244D01*
X169807163Y-96383244D02*
X169921448Y-96383244D01*
X169921448Y-96383244D02*
X169997639Y-96421340D01*
X169997639Y-96421340D02*
X170035734Y-96459435D01*
X170035734Y-96459435D02*
X170073829Y-96535625D01*
X170073829Y-96535625D02*
X170073829Y-96840387D01*
X169654782Y-95697530D02*
X169654782Y-95849911D01*
X169654782Y-95849911D02*
X169692877Y-95926102D01*
X169692877Y-95926102D02*
X169730972Y-95964197D01*
X169730972Y-95964197D02*
X169845258Y-96040387D01*
X169845258Y-96040387D02*
X169997639Y-96078483D01*
X169997639Y-96078483D02*
X170302401Y-96078483D01*
X170302401Y-96078483D02*
X170378591Y-96040387D01*
X170378591Y-96040387D02*
X170416687Y-96002292D01*
X170416687Y-96002292D02*
X170454782Y-95926102D01*
X170454782Y-95926102D02*
X170454782Y-95773721D01*
X170454782Y-95773721D02*
X170416687Y-95697530D01*
X170416687Y-95697530D02*
X170378591Y-95659435D01*
X170378591Y-95659435D02*
X170302401Y-95621340D01*
X170302401Y-95621340D02*
X170111925Y-95621340D01*
X170111925Y-95621340D02*
X170035734Y-95659435D01*
X170035734Y-95659435D02*
X169997639Y-95697530D01*
X169997639Y-95697530D02*
X169959544Y-95773721D01*
X169959544Y-95773721D02*
X169959544Y-95926102D01*
X169959544Y-95926102D02*
X169997639Y-96002292D01*
X169997639Y-96002292D02*
X170035734Y-96040387D01*
X170035734Y-96040387D02*
X170111925Y-96078483D01*
X182771428Y-83340647D02*
X182885714Y-83378742D01*
X182885714Y-83378742D02*
X182923809Y-83416838D01*
X182923809Y-83416838D02*
X182961905Y-83493028D01*
X182961905Y-83493028D02*
X182961905Y-83607314D01*
X182961905Y-83607314D02*
X182923809Y-83683504D01*
X182923809Y-83683504D02*
X182885714Y-83721600D01*
X182885714Y-83721600D02*
X182809524Y-83759695D01*
X182809524Y-83759695D02*
X182504762Y-83759695D01*
X182504762Y-83759695D02*
X182504762Y-82959695D01*
X182504762Y-82959695D02*
X182771428Y-82959695D01*
X182771428Y-82959695D02*
X182847619Y-82997790D01*
X182847619Y-82997790D02*
X182885714Y-83035885D01*
X182885714Y-83035885D02*
X182923809Y-83112076D01*
X182923809Y-83112076D02*
X182923809Y-83188266D01*
X182923809Y-83188266D02*
X182885714Y-83264457D01*
X182885714Y-83264457D02*
X182847619Y-83302552D01*
X182847619Y-83302552D02*
X182771428Y-83340647D01*
X182771428Y-83340647D02*
X182504762Y-83340647D01*
X183190476Y-82959695D02*
X183647619Y-82959695D01*
X183419047Y-83759695D02*
X183419047Y-82959695D01*
X184333333Y-83759695D02*
X183876190Y-83759695D01*
X184104762Y-83759695D02*
X184104762Y-82959695D01*
X184104762Y-82959695D02*
X184028571Y-83073980D01*
X184028571Y-83073980D02*
X183952381Y-83150171D01*
X183952381Y-83150171D02*
X183876190Y-83188266D01*
X148383504Y-87933332D02*
X148421600Y-87971428D01*
X148421600Y-87971428D02*
X148459695Y-88085713D01*
X148459695Y-88085713D02*
X148459695Y-88161904D01*
X148459695Y-88161904D02*
X148421600Y-88276190D01*
X148421600Y-88276190D02*
X148345409Y-88352380D01*
X148345409Y-88352380D02*
X148269219Y-88390475D01*
X148269219Y-88390475D02*
X148116838Y-88428571D01*
X148116838Y-88428571D02*
X148002552Y-88428571D01*
X148002552Y-88428571D02*
X147850171Y-88390475D01*
X147850171Y-88390475D02*
X147773980Y-88352380D01*
X147773980Y-88352380D02*
X147697790Y-88276190D01*
X147697790Y-88276190D02*
X147659695Y-88161904D01*
X147659695Y-88161904D02*
X147659695Y-88085713D01*
X147659695Y-88085713D02*
X147697790Y-87971428D01*
X147697790Y-87971428D02*
X147735885Y-87933332D01*
X147659695Y-87666666D02*
X147659695Y-87133332D01*
X147659695Y-87133332D02*
X148459695Y-87476190D01*
X179047695Y-118078475D02*
X178247695Y-118078475D01*
X178247695Y-118078475D02*
X178247695Y-117887999D01*
X178247695Y-117887999D02*
X178285790Y-117773713D01*
X178285790Y-117773713D02*
X178361980Y-117697523D01*
X178361980Y-117697523D02*
X178438171Y-117659428D01*
X178438171Y-117659428D02*
X178590552Y-117621332D01*
X178590552Y-117621332D02*
X178704838Y-117621332D01*
X178704838Y-117621332D02*
X178857219Y-117659428D01*
X178857219Y-117659428D02*
X178933409Y-117697523D01*
X178933409Y-117697523D02*
X179009600Y-117773713D01*
X179009600Y-117773713D02*
X179047695Y-117887999D01*
X179047695Y-117887999D02*
X179047695Y-118078475D01*
X178514361Y-116935618D02*
X179047695Y-116935618D01*
X178209600Y-117126094D02*
X178781028Y-117316571D01*
X178781028Y-117316571D02*
X178781028Y-116821332D01*
X177571504Y-117621332D02*
X177609600Y-117659428D01*
X177609600Y-117659428D02*
X177647695Y-117773713D01*
X177647695Y-117773713D02*
X177647695Y-117849904D01*
X177647695Y-117849904D02*
X177609600Y-117964190D01*
X177609600Y-117964190D02*
X177533409Y-118040380D01*
X177533409Y-118040380D02*
X177457219Y-118078475D01*
X177457219Y-118078475D02*
X177304838Y-118116571D01*
X177304838Y-118116571D02*
X177190552Y-118116571D01*
X177190552Y-118116571D02*
X177038171Y-118078475D01*
X177038171Y-118078475D02*
X176961980Y-118040380D01*
X176961980Y-118040380D02*
X176885790Y-117964190D01*
X176885790Y-117964190D02*
X176847695Y-117849904D01*
X176847695Y-117849904D02*
X176847695Y-117773713D01*
X176847695Y-117773713D02*
X176885790Y-117659428D01*
X176885790Y-117659428D02*
X176923885Y-117621332D01*
X176847695Y-116897523D02*
X176847695Y-117278475D01*
X176847695Y-117278475D02*
X177228647Y-117316571D01*
X177228647Y-117316571D02*
X177190552Y-117278475D01*
X177190552Y-117278475D02*
X177152457Y-117202285D01*
X177152457Y-117202285D02*
X177152457Y-117011809D01*
X177152457Y-117011809D02*
X177190552Y-116935618D01*
X177190552Y-116935618D02*
X177228647Y-116897523D01*
X177228647Y-116897523D02*
X177304838Y-116859428D01*
X177304838Y-116859428D02*
X177495314Y-116859428D01*
X177495314Y-116859428D02*
X177571504Y-116897523D01*
X177571504Y-116897523D02*
X177609600Y-116935618D01*
X177609600Y-116935618D02*
X177647695Y-117011809D01*
X177647695Y-117011809D02*
X177647695Y-117202285D01*
X177647695Y-117202285D02*
X177609600Y-117278475D01*
X177609600Y-117278475D02*
X177571504Y-117316571D01*
X170334781Y-100558245D02*
X169953828Y-100824912D01*
X170334781Y-101015388D02*
X169534781Y-101015388D01*
X169534781Y-101015388D02*
X169534781Y-100710626D01*
X169534781Y-100710626D02*
X169572876Y-100634436D01*
X169572876Y-100634436D02*
X169610971Y-100596341D01*
X169610971Y-100596341D02*
X169687162Y-100558245D01*
X169687162Y-100558245D02*
X169801447Y-100558245D01*
X169801447Y-100558245D02*
X169877638Y-100596341D01*
X169877638Y-100596341D02*
X169915733Y-100634436D01*
X169915733Y-100634436D02*
X169953828Y-100710626D01*
X169953828Y-100710626D02*
X169953828Y-101015388D01*
X169534781Y-100291579D02*
X169534781Y-99796341D01*
X169534781Y-99796341D02*
X169839543Y-100063007D01*
X169839543Y-100063007D02*
X169839543Y-99948722D01*
X169839543Y-99948722D02*
X169877638Y-99872531D01*
X169877638Y-99872531D02*
X169915733Y-99834436D01*
X169915733Y-99834436D02*
X169991924Y-99796341D01*
X169991924Y-99796341D02*
X170182400Y-99796341D01*
X170182400Y-99796341D02*
X170258590Y-99834436D01*
X170258590Y-99834436D02*
X170296686Y-99872531D01*
X170296686Y-99872531D02*
X170334781Y-99948722D01*
X170334781Y-99948722D02*
X170334781Y-100177293D01*
X170334781Y-100177293D02*
X170296686Y-100253484D01*
X170296686Y-100253484D02*
X170258590Y-100291579D01*
X152683504Y-118914285D02*
X152721600Y-118952381D01*
X152721600Y-118952381D02*
X152759695Y-119066666D01*
X152759695Y-119066666D02*
X152759695Y-119142857D01*
X152759695Y-119142857D02*
X152721600Y-119257143D01*
X152721600Y-119257143D02*
X152645409Y-119333333D01*
X152645409Y-119333333D02*
X152569219Y-119371428D01*
X152569219Y-119371428D02*
X152416838Y-119409524D01*
X152416838Y-119409524D02*
X152302552Y-119409524D01*
X152302552Y-119409524D02*
X152150171Y-119371428D01*
X152150171Y-119371428D02*
X152073980Y-119333333D01*
X152073980Y-119333333D02*
X151997790Y-119257143D01*
X151997790Y-119257143D02*
X151959695Y-119142857D01*
X151959695Y-119142857D02*
X151959695Y-119066666D01*
X151959695Y-119066666D02*
X151997790Y-118952381D01*
X151997790Y-118952381D02*
X152035885Y-118914285D01*
X152759695Y-118152381D02*
X152759695Y-118609524D01*
X152759695Y-118380952D02*
X151959695Y-118380952D01*
X151959695Y-118380952D02*
X152073980Y-118457143D01*
X152073980Y-118457143D02*
X152150171Y-118533333D01*
X152150171Y-118533333D02*
X152188266Y-118609524D01*
X151959695Y-117885714D02*
X151959695Y-117390476D01*
X151959695Y-117390476D02*
X152264457Y-117657142D01*
X152264457Y-117657142D02*
X152264457Y-117542857D01*
X152264457Y-117542857D02*
X152302552Y-117466666D01*
X152302552Y-117466666D02*
X152340647Y-117428571D01*
X152340647Y-117428571D02*
X152416838Y-117390476D01*
X152416838Y-117390476D02*
X152607314Y-117390476D01*
X152607314Y-117390476D02*
X152683504Y-117428571D01*
X152683504Y-117428571D02*
X152721600Y-117466666D01*
X152721600Y-117466666D02*
X152759695Y-117542857D01*
X152759695Y-117542857D02*
X152759695Y-117771428D01*
X152759695Y-117771428D02*
X152721600Y-117847619D01*
X152721600Y-117847619D02*
X152683504Y-117885714D01*
X184083504Y-96714285D02*
X184121600Y-96752381D01*
X184121600Y-96752381D02*
X184159695Y-96866666D01*
X184159695Y-96866666D02*
X184159695Y-96942857D01*
X184159695Y-96942857D02*
X184121600Y-97057143D01*
X184121600Y-97057143D02*
X184045409Y-97133333D01*
X184045409Y-97133333D02*
X183969219Y-97171428D01*
X183969219Y-97171428D02*
X183816838Y-97209524D01*
X183816838Y-97209524D02*
X183702552Y-97209524D01*
X183702552Y-97209524D02*
X183550171Y-97171428D01*
X183550171Y-97171428D02*
X183473980Y-97133333D01*
X183473980Y-97133333D02*
X183397790Y-97057143D01*
X183397790Y-97057143D02*
X183359695Y-96942857D01*
X183359695Y-96942857D02*
X183359695Y-96866666D01*
X183359695Y-96866666D02*
X183397790Y-96752381D01*
X183397790Y-96752381D02*
X183435885Y-96714285D01*
X184159695Y-95952381D02*
X184159695Y-96409524D01*
X184159695Y-96180952D02*
X183359695Y-96180952D01*
X183359695Y-96180952D02*
X183473980Y-96257143D01*
X183473980Y-96257143D02*
X183550171Y-96333333D01*
X183550171Y-96333333D02*
X183588266Y-96409524D01*
X183359695Y-95685714D02*
X183359695Y-95152380D01*
X183359695Y-95152380D02*
X184159695Y-95495238D01*
X176358332Y-88921600D02*
X176472618Y-88959695D01*
X176472618Y-88959695D02*
X176663094Y-88959695D01*
X176663094Y-88959695D02*
X176739285Y-88921600D01*
X176739285Y-88921600D02*
X176777380Y-88883504D01*
X176777380Y-88883504D02*
X176815475Y-88807314D01*
X176815475Y-88807314D02*
X176815475Y-88731123D01*
X176815475Y-88731123D02*
X176777380Y-88654933D01*
X176777380Y-88654933D02*
X176739285Y-88616838D01*
X176739285Y-88616838D02*
X176663094Y-88578742D01*
X176663094Y-88578742D02*
X176510713Y-88540647D01*
X176510713Y-88540647D02*
X176434523Y-88502552D01*
X176434523Y-88502552D02*
X176396428Y-88464457D01*
X176396428Y-88464457D02*
X176358332Y-88388266D01*
X176358332Y-88388266D02*
X176358332Y-88312076D01*
X176358332Y-88312076D02*
X176396428Y-88235885D01*
X176396428Y-88235885D02*
X176434523Y-88197790D01*
X176434523Y-88197790D02*
X176510713Y-88159695D01*
X176510713Y-88159695D02*
X176701190Y-88159695D01*
X176701190Y-88159695D02*
X176815475Y-88197790D01*
X177082142Y-88159695D02*
X177272618Y-88959695D01*
X177272618Y-88959695D02*
X177424999Y-88388266D01*
X177424999Y-88388266D02*
X177577380Y-88959695D01*
X177577380Y-88959695D02*
X177767857Y-88159695D01*
X178491666Y-88959695D02*
X178034523Y-88959695D01*
X178263095Y-88959695D02*
X178263095Y-88159695D01*
X178263095Y-88159695D02*
X178186904Y-88273980D01*
X178186904Y-88273980D02*
X178110714Y-88350171D01*
X178110714Y-88350171D02*
X178034523Y-88388266D01*
X168133504Y-115064285D02*
X168171600Y-115102381D01*
X168171600Y-115102381D02*
X168209695Y-115216666D01*
X168209695Y-115216666D02*
X168209695Y-115292857D01*
X168209695Y-115292857D02*
X168171600Y-115407143D01*
X168171600Y-115407143D02*
X168095409Y-115483333D01*
X168095409Y-115483333D02*
X168019219Y-115521428D01*
X168019219Y-115521428D02*
X167866838Y-115559524D01*
X167866838Y-115559524D02*
X167752552Y-115559524D01*
X167752552Y-115559524D02*
X167600171Y-115521428D01*
X167600171Y-115521428D02*
X167523980Y-115483333D01*
X167523980Y-115483333D02*
X167447790Y-115407143D01*
X167447790Y-115407143D02*
X167409695Y-115292857D01*
X167409695Y-115292857D02*
X167409695Y-115216666D01*
X167409695Y-115216666D02*
X167447790Y-115102381D01*
X167447790Y-115102381D02*
X167485885Y-115064285D01*
X168209695Y-114302381D02*
X168209695Y-114759524D01*
X168209695Y-114530952D02*
X167409695Y-114530952D01*
X167409695Y-114530952D02*
X167523980Y-114607143D01*
X167523980Y-114607143D02*
X167600171Y-114683333D01*
X167600171Y-114683333D02*
X167638266Y-114759524D01*
X167409695Y-113807142D02*
X167409695Y-113730952D01*
X167409695Y-113730952D02*
X167447790Y-113654761D01*
X167447790Y-113654761D02*
X167485885Y-113616666D01*
X167485885Y-113616666D02*
X167562076Y-113578571D01*
X167562076Y-113578571D02*
X167714457Y-113540476D01*
X167714457Y-113540476D02*
X167904933Y-113540476D01*
X167904933Y-113540476D02*
X168057314Y-113578571D01*
X168057314Y-113578571D02*
X168133504Y-113616666D01*
X168133504Y-113616666D02*
X168171600Y-113654761D01*
X168171600Y-113654761D02*
X168209695Y-113730952D01*
X168209695Y-113730952D02*
X168209695Y-113807142D01*
X168209695Y-113807142D02*
X168171600Y-113883333D01*
X168171600Y-113883333D02*
X168133504Y-113921428D01*
X168133504Y-113921428D02*
X168057314Y-113959523D01*
X168057314Y-113959523D02*
X167904933Y-113997619D01*
X167904933Y-113997619D02*
X167714457Y-113997619D01*
X167714457Y-113997619D02*
X167562076Y-113959523D01*
X167562076Y-113959523D02*
X167485885Y-113921428D01*
X167485885Y-113921428D02*
X167447790Y-113883333D01*
X167447790Y-113883333D02*
X167409695Y-113807142D01*
X180323714Y-112934695D02*
X180057047Y-112553742D01*
X179866571Y-112934695D02*
X179866571Y-112134695D01*
X179866571Y-112134695D02*
X180171333Y-112134695D01*
X180171333Y-112134695D02*
X180247523Y-112172790D01*
X180247523Y-112172790D02*
X180285618Y-112210885D01*
X180285618Y-112210885D02*
X180323714Y-112287076D01*
X180323714Y-112287076D02*
X180323714Y-112401361D01*
X180323714Y-112401361D02*
X180285618Y-112477552D01*
X180285618Y-112477552D02*
X180247523Y-112515647D01*
X180247523Y-112515647D02*
X180171333Y-112553742D01*
X180171333Y-112553742D02*
X179866571Y-112553742D01*
X181085618Y-112934695D02*
X180628475Y-112934695D01*
X180857047Y-112934695D02*
X180857047Y-112134695D01*
X180857047Y-112134695D02*
X180780856Y-112248980D01*
X180780856Y-112248980D02*
X180704666Y-112325171D01*
X180704666Y-112325171D02*
X180628475Y-112363266D01*
X181580857Y-112134695D02*
X181657047Y-112134695D01*
X181657047Y-112134695D02*
X181733238Y-112172790D01*
X181733238Y-112172790D02*
X181771333Y-112210885D01*
X181771333Y-112210885D02*
X181809428Y-112287076D01*
X181809428Y-112287076D02*
X181847523Y-112439457D01*
X181847523Y-112439457D02*
X181847523Y-112629933D01*
X181847523Y-112629933D02*
X181809428Y-112782314D01*
X181809428Y-112782314D02*
X181771333Y-112858504D01*
X181771333Y-112858504D02*
X181733238Y-112896600D01*
X181733238Y-112896600D02*
X181657047Y-112934695D01*
X181657047Y-112934695D02*
X181580857Y-112934695D01*
X181580857Y-112934695D02*
X181504666Y-112896600D01*
X181504666Y-112896600D02*
X181466571Y-112858504D01*
X181466571Y-112858504D02*
X181428476Y-112782314D01*
X181428476Y-112782314D02*
X181390380Y-112629933D01*
X181390380Y-112629933D02*
X181390380Y-112439457D01*
X181390380Y-112439457D02*
X181428476Y-112287076D01*
X181428476Y-112287076D02*
X181466571Y-112210885D01*
X181466571Y-112210885D02*
X181504666Y-112172790D01*
X181504666Y-112172790D02*
X181580857Y-112134695D01*
X146959695Y-103114285D02*
X146578742Y-103380952D01*
X146959695Y-103571428D02*
X146159695Y-103571428D01*
X146159695Y-103571428D02*
X146159695Y-103266666D01*
X146159695Y-103266666D02*
X146197790Y-103190476D01*
X146197790Y-103190476D02*
X146235885Y-103152381D01*
X146235885Y-103152381D02*
X146312076Y-103114285D01*
X146312076Y-103114285D02*
X146426361Y-103114285D01*
X146426361Y-103114285D02*
X146502552Y-103152381D01*
X146502552Y-103152381D02*
X146540647Y-103190476D01*
X146540647Y-103190476D02*
X146578742Y-103266666D01*
X146578742Y-103266666D02*
X146578742Y-103571428D01*
X146959695Y-102352381D02*
X146959695Y-102809524D01*
X146959695Y-102580952D02*
X146159695Y-102580952D01*
X146159695Y-102580952D02*
X146273980Y-102657143D01*
X146273980Y-102657143D02*
X146350171Y-102733333D01*
X146350171Y-102733333D02*
X146388266Y-102809524D01*
X146159695Y-101666666D02*
X146159695Y-101819047D01*
X146159695Y-101819047D02*
X146197790Y-101895238D01*
X146197790Y-101895238D02*
X146235885Y-101933333D01*
X146235885Y-101933333D02*
X146350171Y-102009523D01*
X146350171Y-102009523D02*
X146502552Y-102047619D01*
X146502552Y-102047619D02*
X146807314Y-102047619D01*
X146807314Y-102047619D02*
X146883504Y-102009523D01*
X146883504Y-102009523D02*
X146921600Y-101971428D01*
X146921600Y-101971428D02*
X146959695Y-101895238D01*
X146959695Y-101895238D02*
X146959695Y-101742857D01*
X146959695Y-101742857D02*
X146921600Y-101666666D01*
X146921600Y-101666666D02*
X146883504Y-101628571D01*
X146883504Y-101628571D02*
X146807314Y-101590476D01*
X146807314Y-101590476D02*
X146616838Y-101590476D01*
X146616838Y-101590476D02*
X146540647Y-101628571D01*
X146540647Y-101628571D02*
X146502552Y-101666666D01*
X146502552Y-101666666D02*
X146464457Y-101742857D01*
X146464457Y-101742857D02*
X146464457Y-101895238D01*
X146464457Y-101895238D02*
X146502552Y-101971428D01*
X146502552Y-101971428D02*
X146540647Y-102009523D01*
X146540647Y-102009523D02*
X146616838Y-102047619D01*
X152459694Y-87914285D02*
X152078741Y-88180952D01*
X152459694Y-88371428D02*
X151659694Y-88371428D01*
X151659694Y-88371428D02*
X151659694Y-88066666D01*
X151659694Y-88066666D02*
X151697789Y-87990476D01*
X151697789Y-87990476D02*
X151735884Y-87952381D01*
X151735884Y-87952381D02*
X151812075Y-87914285D01*
X151812075Y-87914285D02*
X151926360Y-87914285D01*
X151926360Y-87914285D02*
X152002551Y-87952381D01*
X152002551Y-87952381D02*
X152040646Y-87990476D01*
X152040646Y-87990476D02*
X152078741Y-88066666D01*
X152078741Y-88066666D02*
X152078741Y-88371428D01*
X152459694Y-87152381D02*
X152459694Y-87609524D01*
X152459694Y-87380952D02*
X151659694Y-87380952D01*
X151659694Y-87380952D02*
X151773979Y-87457143D01*
X151773979Y-87457143D02*
X151850170Y-87533333D01*
X151850170Y-87533333D02*
X151888265Y-87609524D01*
X152459694Y-86390476D02*
X152459694Y-86847619D01*
X152459694Y-86619047D02*
X151659694Y-86619047D01*
X151659694Y-86619047D02*
X151773979Y-86695238D01*
X151773979Y-86695238D02*
X151850170Y-86771428D01*
X151850170Y-86771428D02*
X151888265Y-86847619D01*
X157977667Y-111159695D02*
X157711000Y-110778742D01*
X157520524Y-111159695D02*
X157520524Y-110359695D01*
X157520524Y-110359695D02*
X157825286Y-110359695D01*
X157825286Y-110359695D02*
X157901476Y-110397790D01*
X157901476Y-110397790D02*
X157939571Y-110435885D01*
X157939571Y-110435885D02*
X157977667Y-110512076D01*
X157977667Y-110512076D02*
X157977667Y-110626361D01*
X157977667Y-110626361D02*
X157939571Y-110702552D01*
X157939571Y-110702552D02*
X157901476Y-110740647D01*
X157901476Y-110740647D02*
X157825286Y-110778742D01*
X157825286Y-110778742D02*
X157520524Y-110778742D01*
X158282428Y-110435885D02*
X158320524Y-110397790D01*
X158320524Y-110397790D02*
X158396714Y-110359695D01*
X158396714Y-110359695D02*
X158587190Y-110359695D01*
X158587190Y-110359695D02*
X158663381Y-110397790D01*
X158663381Y-110397790D02*
X158701476Y-110435885D01*
X158701476Y-110435885D02*
X158739571Y-110512076D01*
X158739571Y-110512076D02*
X158739571Y-110588266D01*
X158739571Y-110588266D02*
X158701476Y-110702552D01*
X158701476Y-110702552D02*
X158244333Y-111159695D01*
X158244333Y-111159695D02*
X158739571Y-111159695D01*
X148459695Y-103114285D02*
X148078742Y-103380952D01*
X148459695Y-103571428D02*
X147659695Y-103571428D01*
X147659695Y-103571428D02*
X147659695Y-103266666D01*
X147659695Y-103266666D02*
X147697790Y-103190476D01*
X147697790Y-103190476D02*
X147735885Y-103152381D01*
X147735885Y-103152381D02*
X147812076Y-103114285D01*
X147812076Y-103114285D02*
X147926361Y-103114285D01*
X147926361Y-103114285D02*
X148002552Y-103152381D01*
X148002552Y-103152381D02*
X148040647Y-103190476D01*
X148040647Y-103190476D02*
X148078742Y-103266666D01*
X148078742Y-103266666D02*
X148078742Y-103571428D01*
X148459695Y-102352381D02*
X148459695Y-102809524D01*
X148459695Y-102580952D02*
X147659695Y-102580952D01*
X147659695Y-102580952D02*
X147773980Y-102657143D01*
X147773980Y-102657143D02*
X147850171Y-102733333D01*
X147850171Y-102733333D02*
X147888266Y-102809524D01*
X148459695Y-101971428D02*
X148459695Y-101819047D01*
X148459695Y-101819047D02*
X148421600Y-101742857D01*
X148421600Y-101742857D02*
X148383504Y-101704761D01*
X148383504Y-101704761D02*
X148269219Y-101628571D01*
X148269219Y-101628571D02*
X148116838Y-101590476D01*
X148116838Y-101590476D02*
X147812076Y-101590476D01*
X147812076Y-101590476D02*
X147735885Y-101628571D01*
X147735885Y-101628571D02*
X147697790Y-101666666D01*
X147697790Y-101666666D02*
X147659695Y-101742857D01*
X147659695Y-101742857D02*
X147659695Y-101895238D01*
X147659695Y-101895238D02*
X147697790Y-101971428D01*
X147697790Y-101971428D02*
X147735885Y-102009523D01*
X147735885Y-102009523D02*
X147812076Y-102047619D01*
X147812076Y-102047619D02*
X148002552Y-102047619D01*
X148002552Y-102047619D02*
X148078742Y-102009523D01*
X148078742Y-102009523D02*
X148116838Y-101971428D01*
X148116838Y-101971428D02*
X148154933Y-101895238D01*
X148154933Y-101895238D02*
X148154933Y-101742857D01*
X148154933Y-101742857D02*
X148116838Y-101666666D01*
X148116838Y-101666666D02*
X148078742Y-101628571D01*
X148078742Y-101628571D02*
X148002552Y-101590476D01*
X166533332Y-117621600D02*
X166647618Y-117659695D01*
X166647618Y-117659695D02*
X166838094Y-117659695D01*
X166838094Y-117659695D02*
X166914285Y-117621600D01*
X166914285Y-117621600D02*
X166952380Y-117583504D01*
X166952380Y-117583504D02*
X166990475Y-117507314D01*
X166990475Y-117507314D02*
X166990475Y-117431123D01*
X166990475Y-117431123D02*
X166952380Y-117354933D01*
X166952380Y-117354933D02*
X166914285Y-117316838D01*
X166914285Y-117316838D02*
X166838094Y-117278742D01*
X166838094Y-117278742D02*
X166685713Y-117240647D01*
X166685713Y-117240647D02*
X166609523Y-117202552D01*
X166609523Y-117202552D02*
X166571428Y-117164457D01*
X166571428Y-117164457D02*
X166533332Y-117088266D01*
X166533332Y-117088266D02*
X166533332Y-117012076D01*
X166533332Y-117012076D02*
X166571428Y-116935885D01*
X166571428Y-116935885D02*
X166609523Y-116897790D01*
X166609523Y-116897790D02*
X166685713Y-116859695D01*
X166685713Y-116859695D02*
X166876190Y-116859695D01*
X166876190Y-116859695D02*
X166990475Y-116897790D01*
X167257142Y-116859695D02*
X167447618Y-117659695D01*
X167447618Y-117659695D02*
X167599999Y-117088266D01*
X167599999Y-117088266D02*
X167752380Y-117659695D01*
X167752380Y-117659695D02*
X167942857Y-116859695D01*
X168171428Y-116859695D02*
X168666666Y-116859695D01*
X168666666Y-116859695D02*
X168400000Y-117164457D01*
X168400000Y-117164457D02*
X168514285Y-117164457D01*
X168514285Y-117164457D02*
X168590476Y-117202552D01*
X168590476Y-117202552D02*
X168628571Y-117240647D01*
X168628571Y-117240647D02*
X168666666Y-117316838D01*
X168666666Y-117316838D02*
X168666666Y-117507314D01*
X168666666Y-117507314D02*
X168628571Y-117583504D01*
X168628571Y-117583504D02*
X168590476Y-117621600D01*
X168590476Y-117621600D02*
X168514285Y-117659695D01*
X168514285Y-117659695D02*
X168285714Y-117659695D01*
X168285714Y-117659695D02*
X168209523Y-117621600D01*
X168209523Y-117621600D02*
X168171428Y-117583504D01*
X171209695Y-118314285D02*
X170828742Y-118580952D01*
X171209695Y-118771428D02*
X170409695Y-118771428D01*
X170409695Y-118771428D02*
X170409695Y-118466666D01*
X170409695Y-118466666D02*
X170447790Y-118390476D01*
X170447790Y-118390476D02*
X170485885Y-118352381D01*
X170485885Y-118352381D02*
X170562076Y-118314285D01*
X170562076Y-118314285D02*
X170676361Y-118314285D01*
X170676361Y-118314285D02*
X170752552Y-118352381D01*
X170752552Y-118352381D02*
X170790647Y-118390476D01*
X170790647Y-118390476D02*
X170828742Y-118466666D01*
X170828742Y-118466666D02*
X170828742Y-118771428D01*
X171209695Y-117552381D02*
X171209695Y-118009524D01*
X171209695Y-117780952D02*
X170409695Y-117780952D01*
X170409695Y-117780952D02*
X170523980Y-117857143D01*
X170523980Y-117857143D02*
X170600171Y-117933333D01*
X170600171Y-117933333D02*
X170638266Y-118009524D01*
X170485885Y-117247619D02*
X170447790Y-117209523D01*
X170447790Y-117209523D02*
X170409695Y-117133333D01*
X170409695Y-117133333D02*
X170409695Y-116942857D01*
X170409695Y-116942857D02*
X170447790Y-116866666D01*
X170447790Y-116866666D02*
X170485885Y-116828571D01*
X170485885Y-116828571D02*
X170562076Y-116790476D01*
X170562076Y-116790476D02*
X170638266Y-116790476D01*
X170638266Y-116790476D02*
X170752552Y-116828571D01*
X170752552Y-116828571D02*
X171209695Y-117285714D01*
X171209695Y-117285714D02*
X171209695Y-116790476D01*
X170733333Y-84559695D02*
X170733333Y-85131123D01*
X170733333Y-85131123D02*
X170695238Y-85245409D01*
X170695238Y-85245409D02*
X170619047Y-85321600D01*
X170619047Y-85321600D02*
X170504762Y-85359695D01*
X170504762Y-85359695D02*
X170428571Y-85359695D01*
X171533333Y-85359695D02*
X171076190Y-85359695D01*
X171304762Y-85359695D02*
X171304762Y-84559695D01*
X171304762Y-84559695D02*
X171228571Y-84673980D01*
X171228571Y-84673980D02*
X171152381Y-84750171D01*
X171152381Y-84750171D02*
X171076190Y-84788266D01*
X158216667Y-114883504D02*
X158178571Y-114921600D01*
X158178571Y-114921600D02*
X158064286Y-114959695D01*
X158064286Y-114959695D02*
X157988095Y-114959695D01*
X157988095Y-114959695D02*
X157873809Y-114921600D01*
X157873809Y-114921600D02*
X157797619Y-114845409D01*
X157797619Y-114845409D02*
X157759524Y-114769219D01*
X157759524Y-114769219D02*
X157721428Y-114616838D01*
X157721428Y-114616838D02*
X157721428Y-114502552D01*
X157721428Y-114502552D02*
X157759524Y-114350171D01*
X157759524Y-114350171D02*
X157797619Y-114273980D01*
X157797619Y-114273980D02*
X157873809Y-114197790D01*
X157873809Y-114197790D02*
X157988095Y-114159695D01*
X157988095Y-114159695D02*
X158064286Y-114159695D01*
X158064286Y-114159695D02*
X158178571Y-114197790D01*
X158178571Y-114197790D02*
X158216667Y-114235885D01*
X158902381Y-114426361D02*
X158902381Y-114959695D01*
X158711905Y-114121600D02*
X158521428Y-114693028D01*
X158521428Y-114693028D02*
X159016667Y-114693028D01*
X155866667Y-114883504D02*
X155828571Y-114921600D01*
X155828571Y-114921600D02*
X155714286Y-114959695D01*
X155714286Y-114959695D02*
X155638095Y-114959695D01*
X155638095Y-114959695D02*
X155523809Y-114921600D01*
X155523809Y-114921600D02*
X155447619Y-114845409D01*
X155447619Y-114845409D02*
X155409524Y-114769219D01*
X155409524Y-114769219D02*
X155371428Y-114616838D01*
X155371428Y-114616838D02*
X155371428Y-114502552D01*
X155371428Y-114502552D02*
X155409524Y-114350171D01*
X155409524Y-114350171D02*
X155447619Y-114273980D01*
X155447619Y-114273980D02*
X155523809Y-114197790D01*
X155523809Y-114197790D02*
X155638095Y-114159695D01*
X155638095Y-114159695D02*
X155714286Y-114159695D01*
X155714286Y-114159695D02*
X155828571Y-114197790D01*
X155828571Y-114197790D02*
X155866667Y-114235885D01*
X156628571Y-114959695D02*
X156171428Y-114959695D01*
X156400000Y-114959695D02*
X156400000Y-114159695D01*
X156400000Y-114159695D02*
X156323809Y-114273980D01*
X156323809Y-114273980D02*
X156247619Y-114350171D01*
X156247619Y-114350171D02*
X156171428Y-114388266D01*
X169709695Y-115564285D02*
X169328742Y-115830952D01*
X169709695Y-116021428D02*
X168909695Y-116021428D01*
X168909695Y-116021428D02*
X168909695Y-115716666D01*
X168909695Y-115716666D02*
X168947790Y-115640476D01*
X168947790Y-115640476D02*
X168985885Y-115602381D01*
X168985885Y-115602381D02*
X169062076Y-115564285D01*
X169062076Y-115564285D02*
X169176361Y-115564285D01*
X169176361Y-115564285D02*
X169252552Y-115602381D01*
X169252552Y-115602381D02*
X169290647Y-115640476D01*
X169290647Y-115640476D02*
X169328742Y-115716666D01*
X169328742Y-115716666D02*
X169328742Y-116021428D01*
X169709695Y-114802381D02*
X169709695Y-115259524D01*
X169709695Y-115030952D02*
X168909695Y-115030952D01*
X168909695Y-115030952D02*
X169023980Y-115107143D01*
X169023980Y-115107143D02*
X169100171Y-115183333D01*
X169100171Y-115183333D02*
X169138266Y-115259524D01*
X168909695Y-114535714D02*
X168909695Y-114040476D01*
X168909695Y-114040476D02*
X169214457Y-114307142D01*
X169214457Y-114307142D02*
X169214457Y-114192857D01*
X169214457Y-114192857D02*
X169252552Y-114116666D01*
X169252552Y-114116666D02*
X169290647Y-114078571D01*
X169290647Y-114078571D02*
X169366838Y-114040476D01*
X169366838Y-114040476D02*
X169557314Y-114040476D01*
X169557314Y-114040476D02*
X169633504Y-114078571D01*
X169633504Y-114078571D02*
X169671600Y-114116666D01*
X169671600Y-114116666D02*
X169709695Y-114192857D01*
X169709695Y-114192857D02*
X169709695Y-114421428D01*
X169709695Y-114421428D02*
X169671600Y-114497619D01*
X169671600Y-114497619D02*
X169633504Y-114535714D01*
X184209524Y-99159695D02*
X184209524Y-98359695D01*
X184209524Y-98359695D02*
X184400000Y-98359695D01*
X184400000Y-98359695D02*
X184514286Y-98397790D01*
X184514286Y-98397790D02*
X184590476Y-98473980D01*
X184590476Y-98473980D02*
X184628571Y-98550171D01*
X184628571Y-98550171D02*
X184666667Y-98702552D01*
X184666667Y-98702552D02*
X184666667Y-98816838D01*
X184666667Y-98816838D02*
X184628571Y-98969219D01*
X184628571Y-98969219D02*
X184590476Y-99045409D01*
X184590476Y-99045409D02*
X184514286Y-99121600D01*
X184514286Y-99121600D02*
X184400000Y-99159695D01*
X184400000Y-99159695D02*
X184209524Y-99159695D01*
X184933333Y-98359695D02*
X185466667Y-98359695D01*
X185466667Y-98359695D02*
X185123809Y-99159695D01*
X155019048Y-83759695D02*
X155019048Y-82959695D01*
X155857143Y-83683504D02*
X155819047Y-83721600D01*
X155819047Y-83721600D02*
X155704762Y-83759695D01*
X155704762Y-83759695D02*
X155628571Y-83759695D01*
X155628571Y-83759695D02*
X155514285Y-83721600D01*
X155514285Y-83721600D02*
X155438095Y-83645409D01*
X155438095Y-83645409D02*
X155400000Y-83569219D01*
X155400000Y-83569219D02*
X155361904Y-83416838D01*
X155361904Y-83416838D02*
X155361904Y-83302552D01*
X155361904Y-83302552D02*
X155400000Y-83150171D01*
X155400000Y-83150171D02*
X155438095Y-83073980D01*
X155438095Y-83073980D02*
X155514285Y-82997790D01*
X155514285Y-82997790D02*
X155628571Y-82959695D01*
X155628571Y-82959695D02*
X155704762Y-82959695D01*
X155704762Y-82959695D02*
X155819047Y-82997790D01*
X155819047Y-82997790D02*
X155857143Y-83035885D01*
X156580952Y-82959695D02*
X156200000Y-82959695D01*
X156200000Y-82959695D02*
X156161904Y-83340647D01*
X156161904Y-83340647D02*
X156200000Y-83302552D01*
X156200000Y-83302552D02*
X156276190Y-83264457D01*
X156276190Y-83264457D02*
X156466666Y-83264457D01*
X156466666Y-83264457D02*
X156542857Y-83302552D01*
X156542857Y-83302552D02*
X156580952Y-83340647D01*
X156580952Y-83340647D02*
X156619047Y-83416838D01*
X156619047Y-83416838D02*
X156619047Y-83607314D01*
X156619047Y-83607314D02*
X156580952Y-83683504D01*
X156580952Y-83683504D02*
X156542857Y-83721600D01*
X156542857Y-83721600D02*
X156466666Y-83759695D01*
X156466666Y-83759695D02*
X156276190Y-83759695D01*
X156276190Y-83759695D02*
X156200000Y-83721600D01*
X156200000Y-83721600D02*
X156161904Y-83683504D01*
X156802695Y-97914285D02*
X156421742Y-98180952D01*
X156802695Y-98371428D02*
X156002695Y-98371428D01*
X156002695Y-98371428D02*
X156002695Y-98066666D01*
X156002695Y-98066666D02*
X156040790Y-97990476D01*
X156040790Y-97990476D02*
X156078885Y-97952381D01*
X156078885Y-97952381D02*
X156155076Y-97914285D01*
X156155076Y-97914285D02*
X156269361Y-97914285D01*
X156269361Y-97914285D02*
X156345552Y-97952381D01*
X156345552Y-97952381D02*
X156383647Y-97990476D01*
X156383647Y-97990476D02*
X156421742Y-98066666D01*
X156421742Y-98066666D02*
X156421742Y-98371428D01*
X156078885Y-97609524D02*
X156040790Y-97571428D01*
X156040790Y-97571428D02*
X156002695Y-97495238D01*
X156002695Y-97495238D02*
X156002695Y-97304762D01*
X156002695Y-97304762D02*
X156040790Y-97228571D01*
X156040790Y-97228571D02*
X156078885Y-97190476D01*
X156078885Y-97190476D02*
X156155076Y-97152381D01*
X156155076Y-97152381D02*
X156231266Y-97152381D01*
X156231266Y-97152381D02*
X156345552Y-97190476D01*
X156345552Y-97190476D02*
X156802695Y-97647619D01*
X156802695Y-97647619D02*
X156802695Y-97152381D01*
X156078885Y-96847619D02*
X156040790Y-96809523D01*
X156040790Y-96809523D02*
X156002695Y-96733333D01*
X156002695Y-96733333D02*
X156002695Y-96542857D01*
X156002695Y-96542857D02*
X156040790Y-96466666D01*
X156040790Y-96466666D02*
X156078885Y-96428571D01*
X156078885Y-96428571D02*
X156155076Y-96390476D01*
X156155076Y-96390476D02*
X156231266Y-96390476D01*
X156231266Y-96390476D02*
X156345552Y-96428571D01*
X156345552Y-96428571D02*
X156802695Y-96885714D01*
X156802695Y-96885714D02*
X156802695Y-96390476D01*
X176390476Y-94859695D02*
X176847619Y-94859695D01*
X176619047Y-95659695D02*
X176619047Y-94859695D01*
X177114286Y-95659695D02*
X177114286Y-94859695D01*
X177114286Y-94859695D02*
X177419048Y-94859695D01*
X177419048Y-94859695D02*
X177495238Y-94897790D01*
X177495238Y-94897790D02*
X177533333Y-94935885D01*
X177533333Y-94935885D02*
X177571429Y-95012076D01*
X177571429Y-95012076D02*
X177571429Y-95126361D01*
X177571429Y-95126361D02*
X177533333Y-95202552D01*
X177533333Y-95202552D02*
X177495238Y-95240647D01*
X177495238Y-95240647D02*
X177419048Y-95278742D01*
X177419048Y-95278742D02*
X177114286Y-95278742D01*
X178295238Y-94859695D02*
X177914286Y-94859695D01*
X177914286Y-94859695D02*
X177876190Y-95240647D01*
X177876190Y-95240647D02*
X177914286Y-95202552D01*
X177914286Y-95202552D02*
X177990476Y-95164457D01*
X177990476Y-95164457D02*
X178180952Y-95164457D01*
X178180952Y-95164457D02*
X178257143Y-95202552D01*
X178257143Y-95202552D02*
X178295238Y-95240647D01*
X178295238Y-95240647D02*
X178333333Y-95316838D01*
X178333333Y-95316838D02*
X178333333Y-95507314D01*
X178333333Y-95507314D02*
X178295238Y-95583504D01*
X178295238Y-95583504D02*
X178257143Y-95621600D01*
X178257143Y-95621600D02*
X178180952Y-95659695D01*
X178180952Y-95659695D02*
X177990476Y-95659695D01*
X177990476Y-95659695D02*
X177914286Y-95621600D01*
X177914286Y-95621600D02*
X177876190Y-95583504D01*
X177539782Y-107134435D02*
X177539782Y-106677292D01*
X178339782Y-106905864D02*
X177539782Y-106905864D01*
X178339782Y-106410625D02*
X177539782Y-106410625D01*
X177539782Y-106410625D02*
X177539782Y-106105863D01*
X177539782Y-106105863D02*
X177577877Y-106029673D01*
X177577877Y-106029673D02*
X177615972Y-105991578D01*
X177615972Y-105991578D02*
X177692163Y-105953482D01*
X177692163Y-105953482D02*
X177806448Y-105953482D01*
X177806448Y-105953482D02*
X177882639Y-105991578D01*
X177882639Y-105991578D02*
X177920734Y-106029673D01*
X177920734Y-106029673D02*
X177958829Y-106105863D01*
X177958829Y-106105863D02*
X177958829Y-106410625D01*
X177539782Y-105267768D02*
X177539782Y-105420149D01*
X177539782Y-105420149D02*
X177577877Y-105496340D01*
X177577877Y-105496340D02*
X177615972Y-105534435D01*
X177615972Y-105534435D02*
X177730258Y-105610625D01*
X177730258Y-105610625D02*
X177882639Y-105648721D01*
X177882639Y-105648721D02*
X178187401Y-105648721D01*
X178187401Y-105648721D02*
X178263591Y-105610625D01*
X178263591Y-105610625D02*
X178301687Y-105572530D01*
X178301687Y-105572530D02*
X178339782Y-105496340D01*
X178339782Y-105496340D02*
X178339782Y-105343959D01*
X178339782Y-105343959D02*
X178301687Y-105267768D01*
X178301687Y-105267768D02*
X178263591Y-105229673D01*
X178263591Y-105229673D02*
X178187401Y-105191578D01*
X178187401Y-105191578D02*
X177996925Y-105191578D01*
X177996925Y-105191578D02*
X177920734Y-105229673D01*
X177920734Y-105229673D02*
X177882639Y-105267768D01*
X177882639Y-105267768D02*
X177844544Y-105343959D01*
X177844544Y-105343959D02*
X177844544Y-105496340D01*
X177844544Y-105496340D02*
X177882639Y-105572530D01*
X177882639Y-105572530D02*
X177920734Y-105610625D01*
X177920734Y-105610625D02*
X177996925Y-105648721D01*
X165428571Y-85359695D02*
X165428571Y-84559695D01*
X165428571Y-84559695D02*
X165619047Y-84559695D01*
X165619047Y-84559695D02*
X165733333Y-84597790D01*
X165733333Y-84597790D02*
X165809523Y-84673980D01*
X165809523Y-84673980D02*
X165847618Y-84750171D01*
X165847618Y-84750171D02*
X165885714Y-84902552D01*
X165885714Y-84902552D02*
X165885714Y-85016838D01*
X165885714Y-85016838D02*
X165847618Y-85169219D01*
X165847618Y-85169219D02*
X165809523Y-85245409D01*
X165809523Y-85245409D02*
X165733333Y-85321600D01*
X165733333Y-85321600D02*
X165619047Y-85359695D01*
X165619047Y-85359695D02*
X165428571Y-85359695D01*
X166647618Y-85359695D02*
X166190475Y-85359695D01*
X166419047Y-85359695D02*
X166419047Y-84559695D01*
X166419047Y-84559695D02*
X166342856Y-84673980D01*
X166342856Y-84673980D02*
X166266666Y-84750171D01*
X166266666Y-84750171D02*
X166190475Y-84788266D01*
X167142857Y-84559695D02*
X167219047Y-84559695D01*
X167219047Y-84559695D02*
X167295238Y-84597790D01*
X167295238Y-84597790D02*
X167333333Y-84635885D01*
X167333333Y-84635885D02*
X167371428Y-84712076D01*
X167371428Y-84712076D02*
X167409523Y-84864457D01*
X167409523Y-84864457D02*
X167409523Y-85054933D01*
X167409523Y-85054933D02*
X167371428Y-85207314D01*
X167371428Y-85207314D02*
X167333333Y-85283504D01*
X167333333Y-85283504D02*
X167295238Y-85321600D01*
X167295238Y-85321600D02*
X167219047Y-85359695D01*
X167219047Y-85359695D02*
X167142857Y-85359695D01*
X167142857Y-85359695D02*
X167066666Y-85321600D01*
X167066666Y-85321600D02*
X167028571Y-85283504D01*
X167028571Y-85283504D02*
X166990476Y-85207314D01*
X166990476Y-85207314D02*
X166952380Y-85054933D01*
X166952380Y-85054933D02*
X166952380Y-84864457D01*
X166952380Y-84864457D02*
X166990476Y-84712076D01*
X166990476Y-84712076D02*
X167028571Y-84635885D01*
X167028571Y-84635885D02*
X167066666Y-84597790D01*
X167066666Y-84597790D02*
X167142857Y-84559695D01*
X167035885Y-94276190D02*
X166997790Y-94352380D01*
X166997790Y-94352380D02*
X166921600Y-94428571D01*
X166921600Y-94428571D02*
X166807314Y-94542857D01*
X166807314Y-94542857D02*
X166769219Y-94619047D01*
X166769219Y-94619047D02*
X166769219Y-94695238D01*
X166959695Y-94657142D02*
X166921600Y-94733333D01*
X166921600Y-94733333D02*
X166845409Y-94809523D01*
X166845409Y-94809523D02*
X166693028Y-94847619D01*
X166693028Y-94847619D02*
X166426361Y-94847619D01*
X166426361Y-94847619D02*
X166273980Y-94809523D01*
X166273980Y-94809523D02*
X166197790Y-94733333D01*
X166197790Y-94733333D02*
X166159695Y-94657142D01*
X166159695Y-94657142D02*
X166159695Y-94504761D01*
X166159695Y-94504761D02*
X166197790Y-94428571D01*
X166197790Y-94428571D02*
X166273980Y-94352380D01*
X166273980Y-94352380D02*
X166426361Y-94314285D01*
X166426361Y-94314285D02*
X166693028Y-94314285D01*
X166693028Y-94314285D02*
X166845409Y-94352380D01*
X166845409Y-94352380D02*
X166921600Y-94428571D01*
X166921600Y-94428571D02*
X166959695Y-94504761D01*
X166959695Y-94504761D02*
X166959695Y-94657142D01*
X166235885Y-94009524D02*
X166197790Y-93971428D01*
X166197790Y-93971428D02*
X166159695Y-93895238D01*
X166159695Y-93895238D02*
X166159695Y-93704762D01*
X166159695Y-93704762D02*
X166197790Y-93628571D01*
X166197790Y-93628571D02*
X166235885Y-93590476D01*
X166235885Y-93590476D02*
X166312076Y-93552381D01*
X166312076Y-93552381D02*
X166388266Y-93552381D01*
X166388266Y-93552381D02*
X166502552Y-93590476D01*
X166502552Y-93590476D02*
X166959695Y-94047619D01*
X166959695Y-94047619D02*
X166959695Y-93552381D01*
X174559695Y-96809523D02*
X175207314Y-96809523D01*
X175207314Y-96809523D02*
X175283504Y-96771428D01*
X175283504Y-96771428D02*
X175321600Y-96733333D01*
X175321600Y-96733333D02*
X175359695Y-96657142D01*
X175359695Y-96657142D02*
X175359695Y-96504761D01*
X175359695Y-96504761D02*
X175321600Y-96428571D01*
X175321600Y-96428571D02*
X175283504Y-96390476D01*
X175283504Y-96390476D02*
X175207314Y-96352380D01*
X175207314Y-96352380D02*
X174559695Y-96352380D01*
X175359695Y-95552381D02*
X175359695Y-96009524D01*
X175359695Y-95780952D02*
X174559695Y-95780952D01*
X174559695Y-95780952D02*
X174673980Y-95857143D01*
X174673980Y-95857143D02*
X174750171Y-95933333D01*
X174750171Y-95933333D02*
X174788266Y-96009524D01*
X144866667Y-114683504D02*
X144828571Y-114721600D01*
X144828571Y-114721600D02*
X144714286Y-114759695D01*
X144714286Y-114759695D02*
X144638095Y-114759695D01*
X144638095Y-114759695D02*
X144523809Y-114721600D01*
X144523809Y-114721600D02*
X144447619Y-114645409D01*
X144447619Y-114645409D02*
X144409524Y-114569219D01*
X144409524Y-114569219D02*
X144371428Y-114416838D01*
X144371428Y-114416838D02*
X144371428Y-114302552D01*
X144371428Y-114302552D02*
X144409524Y-114150171D01*
X144409524Y-114150171D02*
X144447619Y-114073980D01*
X144447619Y-114073980D02*
X144523809Y-113997790D01*
X144523809Y-113997790D02*
X144638095Y-113959695D01*
X144638095Y-113959695D02*
X144714286Y-113959695D01*
X144714286Y-113959695D02*
X144828571Y-113997790D01*
X144828571Y-113997790D02*
X144866667Y-114035885D01*
X145133333Y-113959695D02*
X145628571Y-113959695D01*
X145628571Y-113959695D02*
X145361905Y-114264457D01*
X145361905Y-114264457D02*
X145476190Y-114264457D01*
X145476190Y-114264457D02*
X145552381Y-114302552D01*
X145552381Y-114302552D02*
X145590476Y-114340647D01*
X145590476Y-114340647D02*
X145628571Y-114416838D01*
X145628571Y-114416838D02*
X145628571Y-114607314D01*
X145628571Y-114607314D02*
X145590476Y-114683504D01*
X145590476Y-114683504D02*
X145552381Y-114721600D01*
X145552381Y-114721600D02*
X145476190Y-114759695D01*
X145476190Y-114759695D02*
X145247619Y-114759695D01*
X145247619Y-114759695D02*
X145171428Y-114721600D01*
X145171428Y-114721600D02*
X145133333Y-114683504D01*
X162159695Y-89190475D02*
X161359695Y-89190475D01*
X161359695Y-89190475D02*
X161359695Y-88999999D01*
X161359695Y-88999999D02*
X161397790Y-88885713D01*
X161397790Y-88885713D02*
X161473980Y-88809523D01*
X161473980Y-88809523D02*
X161550171Y-88771428D01*
X161550171Y-88771428D02*
X161702552Y-88733332D01*
X161702552Y-88733332D02*
X161816838Y-88733332D01*
X161816838Y-88733332D02*
X161969219Y-88771428D01*
X161969219Y-88771428D02*
X162045409Y-88809523D01*
X162045409Y-88809523D02*
X162121600Y-88885713D01*
X162121600Y-88885713D02*
X162159695Y-88999999D01*
X162159695Y-88999999D02*
X162159695Y-89190475D01*
X161359695Y-88009523D02*
X161359695Y-88390475D01*
X161359695Y-88390475D02*
X161740647Y-88428571D01*
X161740647Y-88428571D02*
X161702552Y-88390475D01*
X161702552Y-88390475D02*
X161664457Y-88314285D01*
X161664457Y-88314285D02*
X161664457Y-88123809D01*
X161664457Y-88123809D02*
X161702552Y-88047618D01*
X161702552Y-88047618D02*
X161740647Y-88009523D01*
X161740647Y-88009523D02*
X161816838Y-87971428D01*
X161816838Y-87971428D02*
X162007314Y-87971428D01*
X162007314Y-87971428D02*
X162083504Y-88009523D01*
X162083504Y-88009523D02*
X162121600Y-88047618D01*
X162121600Y-88047618D02*
X162159695Y-88123809D01*
X162159695Y-88123809D02*
X162159695Y-88314285D01*
X162159695Y-88314285D02*
X162121600Y-88390475D01*
X162121600Y-88390475D02*
X162083504Y-88428571D01*
X158572695Y-84590475D02*
X157772695Y-84590475D01*
X157772695Y-84590475D02*
X157772695Y-84399999D01*
X157772695Y-84399999D02*
X157810790Y-84285713D01*
X157810790Y-84285713D02*
X157886980Y-84209523D01*
X157886980Y-84209523D02*
X157963171Y-84171428D01*
X157963171Y-84171428D02*
X158115552Y-84133332D01*
X158115552Y-84133332D02*
X158229838Y-84133332D01*
X158229838Y-84133332D02*
X158382219Y-84171428D01*
X158382219Y-84171428D02*
X158458409Y-84209523D01*
X158458409Y-84209523D02*
X158534600Y-84285713D01*
X158534600Y-84285713D02*
X158572695Y-84399999D01*
X158572695Y-84399999D02*
X158572695Y-84590475D01*
X157772695Y-83447618D02*
X157772695Y-83599999D01*
X157772695Y-83599999D02*
X157810790Y-83676190D01*
X157810790Y-83676190D02*
X157848885Y-83714285D01*
X157848885Y-83714285D02*
X157963171Y-83790475D01*
X157963171Y-83790475D02*
X158115552Y-83828571D01*
X158115552Y-83828571D02*
X158420314Y-83828571D01*
X158420314Y-83828571D02*
X158496504Y-83790475D01*
X158496504Y-83790475D02*
X158534600Y-83752380D01*
X158534600Y-83752380D02*
X158572695Y-83676190D01*
X158572695Y-83676190D02*
X158572695Y-83523809D01*
X158572695Y-83523809D02*
X158534600Y-83447618D01*
X158534600Y-83447618D02*
X158496504Y-83409523D01*
X158496504Y-83409523D02*
X158420314Y-83371428D01*
X158420314Y-83371428D02*
X158229838Y-83371428D01*
X158229838Y-83371428D02*
X158153647Y-83409523D01*
X158153647Y-83409523D02*
X158115552Y-83447618D01*
X158115552Y-83447618D02*
X158077457Y-83523809D01*
X158077457Y-83523809D02*
X158077457Y-83676190D01*
X158077457Y-83676190D02*
X158115552Y-83752380D01*
X158115552Y-83752380D02*
X158153647Y-83790475D01*
X158153647Y-83790475D02*
X158229838Y-83828571D01*
X163883504Y-84914285D02*
X163921600Y-84952381D01*
X163921600Y-84952381D02*
X163959695Y-85066666D01*
X163959695Y-85066666D02*
X163959695Y-85142857D01*
X163959695Y-85142857D02*
X163921600Y-85257143D01*
X163921600Y-85257143D02*
X163845409Y-85333333D01*
X163845409Y-85333333D02*
X163769219Y-85371428D01*
X163769219Y-85371428D02*
X163616838Y-85409524D01*
X163616838Y-85409524D02*
X163502552Y-85409524D01*
X163502552Y-85409524D02*
X163350171Y-85371428D01*
X163350171Y-85371428D02*
X163273980Y-85333333D01*
X163273980Y-85333333D02*
X163197790Y-85257143D01*
X163197790Y-85257143D02*
X163159695Y-85142857D01*
X163159695Y-85142857D02*
X163159695Y-85066666D01*
X163159695Y-85066666D02*
X163197790Y-84952381D01*
X163197790Y-84952381D02*
X163235885Y-84914285D01*
X163959695Y-84152381D02*
X163959695Y-84609524D01*
X163959695Y-84380952D02*
X163159695Y-84380952D01*
X163159695Y-84380952D02*
X163273980Y-84457143D01*
X163273980Y-84457143D02*
X163350171Y-84533333D01*
X163350171Y-84533333D02*
X163388266Y-84609524D01*
X163159695Y-83466666D02*
X163159695Y-83619047D01*
X163159695Y-83619047D02*
X163197790Y-83695238D01*
X163197790Y-83695238D02*
X163235885Y-83733333D01*
X163235885Y-83733333D02*
X163350171Y-83809523D01*
X163350171Y-83809523D02*
X163502552Y-83847619D01*
X163502552Y-83847619D02*
X163807314Y-83847619D01*
X163807314Y-83847619D02*
X163883504Y-83809523D01*
X163883504Y-83809523D02*
X163921600Y-83771428D01*
X163921600Y-83771428D02*
X163959695Y-83695238D01*
X163959695Y-83695238D02*
X163959695Y-83542857D01*
X163959695Y-83542857D02*
X163921600Y-83466666D01*
X163921600Y-83466666D02*
X163883504Y-83428571D01*
X163883504Y-83428571D02*
X163807314Y-83390476D01*
X163807314Y-83390476D02*
X163616838Y-83390476D01*
X163616838Y-83390476D02*
X163540647Y-83428571D01*
X163540647Y-83428571D02*
X163502552Y-83466666D01*
X163502552Y-83466666D02*
X163464457Y-83542857D01*
X163464457Y-83542857D02*
X163464457Y-83695238D01*
X163464457Y-83695238D02*
X163502552Y-83771428D01*
X163502552Y-83771428D02*
X163540647Y-83809523D01*
X163540647Y-83809523D02*
X163616838Y-83847619D01*
X154466666Y-112359695D02*
X154085714Y-112359695D01*
X154085714Y-112359695D02*
X154085714Y-111559695D01*
X155152380Y-112359695D02*
X154695237Y-112359695D01*
X154923809Y-112359695D02*
X154923809Y-111559695D01*
X154923809Y-111559695D02*
X154847618Y-111673980D01*
X154847618Y-111673980D02*
X154771428Y-111750171D01*
X154771428Y-111750171D02*
X154695237Y-111788266D01*
X169966903Y-107385142D02*
X169966903Y-106927999D01*
X170766903Y-107156571D02*
X169966903Y-107156571D01*
X170766903Y-106661332D02*
X169966903Y-106661332D01*
X169966903Y-106661332D02*
X169966903Y-106356570D01*
X169966903Y-106356570D02*
X170004998Y-106280380D01*
X170004998Y-106280380D02*
X170043093Y-106242285D01*
X170043093Y-106242285D02*
X170119284Y-106204189D01*
X170119284Y-106204189D02*
X170233569Y-106204189D01*
X170233569Y-106204189D02*
X170309760Y-106242285D01*
X170309760Y-106242285D02*
X170347855Y-106280380D01*
X170347855Y-106280380D02*
X170385950Y-106356570D01*
X170385950Y-106356570D02*
X170385950Y-106661332D01*
X170233569Y-105518475D02*
X170766903Y-105518475D01*
X169928808Y-105708951D02*
X170500236Y-105899428D01*
X170500236Y-105899428D02*
X170500236Y-105404189D01*
X172141754Y-92184606D02*
X171875087Y-91803653D01*
X171684611Y-92184606D02*
X171684611Y-91384606D01*
X171684611Y-91384606D02*
X171989373Y-91384606D01*
X171989373Y-91384606D02*
X172065563Y-91422701D01*
X172065563Y-91422701D02*
X172103658Y-91460796D01*
X172103658Y-91460796D02*
X172141754Y-91536987D01*
X172141754Y-91536987D02*
X172141754Y-91651272D01*
X172141754Y-91651272D02*
X172103658Y-91727463D01*
X172103658Y-91727463D02*
X172065563Y-91765558D01*
X172065563Y-91765558D02*
X171989373Y-91803653D01*
X171989373Y-91803653D02*
X171684611Y-91803653D01*
X172408420Y-91384606D02*
X172941754Y-91384606D01*
X172941754Y-91384606D02*
X172598896Y-92184606D01*
X190435885Y-93476190D02*
X190397790Y-93552380D01*
X190397790Y-93552380D02*
X190321600Y-93628571D01*
X190321600Y-93628571D02*
X190207314Y-93742857D01*
X190207314Y-93742857D02*
X190169219Y-93819047D01*
X190169219Y-93819047D02*
X190169219Y-93895238D01*
X190359695Y-93857142D02*
X190321600Y-93933333D01*
X190321600Y-93933333D02*
X190245409Y-94009523D01*
X190245409Y-94009523D02*
X190093028Y-94047619D01*
X190093028Y-94047619D02*
X189826361Y-94047619D01*
X189826361Y-94047619D02*
X189673980Y-94009523D01*
X189673980Y-94009523D02*
X189597790Y-93933333D01*
X189597790Y-93933333D02*
X189559695Y-93857142D01*
X189559695Y-93857142D02*
X189559695Y-93704761D01*
X189559695Y-93704761D02*
X189597790Y-93628571D01*
X189597790Y-93628571D02*
X189673980Y-93552380D01*
X189673980Y-93552380D02*
X189826361Y-93514285D01*
X189826361Y-93514285D02*
X190093028Y-93514285D01*
X190093028Y-93514285D02*
X190245409Y-93552380D01*
X190245409Y-93552380D02*
X190321600Y-93628571D01*
X190321600Y-93628571D02*
X190359695Y-93704761D01*
X190359695Y-93704761D02*
X190359695Y-93857142D01*
X189559695Y-93247619D02*
X189559695Y-92752381D01*
X189559695Y-92752381D02*
X189864457Y-93019047D01*
X189864457Y-93019047D02*
X189864457Y-92904762D01*
X189864457Y-92904762D02*
X189902552Y-92828571D01*
X189902552Y-92828571D02*
X189940647Y-92790476D01*
X189940647Y-92790476D02*
X190016838Y-92752381D01*
X190016838Y-92752381D02*
X190207314Y-92752381D01*
X190207314Y-92752381D02*
X190283504Y-92790476D01*
X190283504Y-92790476D02*
X190321600Y-92828571D01*
X190321600Y-92828571D02*
X190359695Y-92904762D01*
X190359695Y-92904762D02*
X190359695Y-93133333D01*
X190359695Y-93133333D02*
X190321600Y-93209524D01*
X190321600Y-93209524D02*
X190283504Y-93247619D01*
X186940647Y-110848809D02*
X186978742Y-110734523D01*
X186978742Y-110734523D02*
X187016838Y-110696428D01*
X187016838Y-110696428D02*
X187093028Y-110658332D01*
X187093028Y-110658332D02*
X187207314Y-110658332D01*
X187207314Y-110658332D02*
X187283504Y-110696428D01*
X187283504Y-110696428D02*
X187321600Y-110734523D01*
X187321600Y-110734523D02*
X187359695Y-110810713D01*
X187359695Y-110810713D02*
X187359695Y-111115475D01*
X187359695Y-111115475D02*
X186559695Y-111115475D01*
X186559695Y-111115475D02*
X186559695Y-110848809D01*
X186559695Y-110848809D02*
X186597790Y-110772618D01*
X186597790Y-110772618D02*
X186635885Y-110734523D01*
X186635885Y-110734523D02*
X186712076Y-110696428D01*
X186712076Y-110696428D02*
X186788266Y-110696428D01*
X186788266Y-110696428D02*
X186864457Y-110734523D01*
X186864457Y-110734523D02*
X186902552Y-110772618D01*
X186902552Y-110772618D02*
X186940647Y-110848809D01*
X186940647Y-110848809D02*
X186940647Y-111115475D01*
X187359695Y-109896428D02*
X187359695Y-110353571D01*
X187359695Y-110124999D02*
X186559695Y-110124999D01*
X186559695Y-110124999D02*
X186673980Y-110201190D01*
X186673980Y-110201190D02*
X186750171Y-110277380D01*
X186750171Y-110277380D02*
X186788266Y-110353571D01*
X146959695Y-88990475D02*
X146159695Y-88990475D01*
X146159695Y-88990475D02*
X146159695Y-88799999D01*
X146159695Y-88799999D02*
X146197790Y-88685713D01*
X146197790Y-88685713D02*
X146273980Y-88609523D01*
X146273980Y-88609523D02*
X146350171Y-88571428D01*
X146350171Y-88571428D02*
X146502552Y-88533332D01*
X146502552Y-88533332D02*
X146616838Y-88533332D01*
X146616838Y-88533332D02*
X146769219Y-88571428D01*
X146769219Y-88571428D02*
X146845409Y-88609523D01*
X146845409Y-88609523D02*
X146921600Y-88685713D01*
X146921600Y-88685713D02*
X146959695Y-88799999D01*
X146959695Y-88799999D02*
X146959695Y-88990475D01*
X146959695Y-87771428D02*
X146959695Y-88228571D01*
X146959695Y-87999999D02*
X146159695Y-87999999D01*
X146159695Y-87999999D02*
X146273980Y-88076190D01*
X146273980Y-88076190D02*
X146350171Y-88152380D01*
X146350171Y-88152380D02*
X146388266Y-88228571D01*
X159683504Y-101452285D02*
X159721600Y-101490381D01*
X159721600Y-101490381D02*
X159759695Y-101604666D01*
X159759695Y-101604666D02*
X159759695Y-101680857D01*
X159759695Y-101680857D02*
X159721600Y-101795143D01*
X159721600Y-101795143D02*
X159645409Y-101871333D01*
X159645409Y-101871333D02*
X159569219Y-101909428D01*
X159569219Y-101909428D02*
X159416838Y-101947524D01*
X159416838Y-101947524D02*
X159302552Y-101947524D01*
X159302552Y-101947524D02*
X159150171Y-101909428D01*
X159150171Y-101909428D02*
X159073980Y-101871333D01*
X159073980Y-101871333D02*
X158997790Y-101795143D01*
X158997790Y-101795143D02*
X158959695Y-101680857D01*
X158959695Y-101680857D02*
X158959695Y-101604666D01*
X158959695Y-101604666D02*
X158997790Y-101490381D01*
X158997790Y-101490381D02*
X159035885Y-101452285D01*
X159035885Y-101147524D02*
X158997790Y-101109428D01*
X158997790Y-101109428D02*
X158959695Y-101033238D01*
X158959695Y-101033238D02*
X158959695Y-100842762D01*
X158959695Y-100842762D02*
X158997790Y-100766571D01*
X158997790Y-100766571D02*
X159035885Y-100728476D01*
X159035885Y-100728476D02*
X159112076Y-100690381D01*
X159112076Y-100690381D02*
X159188266Y-100690381D01*
X159188266Y-100690381D02*
X159302552Y-100728476D01*
X159302552Y-100728476D02*
X159759695Y-101185619D01*
X159759695Y-101185619D02*
X159759695Y-100690381D01*
X159035885Y-100385619D02*
X158997790Y-100347523D01*
X158997790Y-100347523D02*
X158959695Y-100271333D01*
X158959695Y-100271333D02*
X158959695Y-100080857D01*
X158959695Y-100080857D02*
X158997790Y-100004666D01*
X158997790Y-100004666D02*
X159035885Y-99966571D01*
X159035885Y-99966571D02*
X159112076Y-99928476D01*
X159112076Y-99928476D02*
X159188266Y-99928476D01*
X159188266Y-99928476D02*
X159302552Y-99966571D01*
X159302552Y-99966571D02*
X159759695Y-100423714D01*
X159759695Y-100423714D02*
X159759695Y-99928476D01*
X152628571Y-116959695D02*
X152628571Y-116159695D01*
X152628571Y-116159695D02*
X152933333Y-116159695D01*
X152933333Y-116159695D02*
X153009523Y-116197790D01*
X153009523Y-116197790D02*
X153047618Y-116235885D01*
X153047618Y-116235885D02*
X153085714Y-116312076D01*
X153085714Y-116312076D02*
X153085714Y-116426361D01*
X153085714Y-116426361D02*
X153047618Y-116502552D01*
X153047618Y-116502552D02*
X153009523Y-116540647D01*
X153009523Y-116540647D02*
X152933333Y-116578742D01*
X152933333Y-116578742D02*
X152628571Y-116578742D01*
X153390475Y-116921600D02*
X153504761Y-116959695D01*
X153504761Y-116959695D02*
X153695237Y-116959695D01*
X153695237Y-116959695D02*
X153771428Y-116921600D01*
X153771428Y-116921600D02*
X153809523Y-116883504D01*
X153809523Y-116883504D02*
X153847618Y-116807314D01*
X153847618Y-116807314D02*
X153847618Y-116731123D01*
X153847618Y-116731123D02*
X153809523Y-116654933D01*
X153809523Y-116654933D02*
X153771428Y-116616838D01*
X153771428Y-116616838D02*
X153695237Y-116578742D01*
X153695237Y-116578742D02*
X153542856Y-116540647D01*
X153542856Y-116540647D02*
X153466666Y-116502552D01*
X153466666Y-116502552D02*
X153428571Y-116464457D01*
X153428571Y-116464457D02*
X153390475Y-116388266D01*
X153390475Y-116388266D02*
X153390475Y-116312076D01*
X153390475Y-116312076D02*
X153428571Y-116235885D01*
X153428571Y-116235885D02*
X153466666Y-116197790D01*
X153466666Y-116197790D02*
X153542856Y-116159695D01*
X153542856Y-116159695D02*
X153733333Y-116159695D01*
X153733333Y-116159695D02*
X153847618Y-116197790D01*
X154609523Y-116959695D02*
X154152380Y-116959695D01*
X154380952Y-116959695D02*
X154380952Y-116159695D01*
X154380952Y-116159695D02*
X154304761Y-116273980D01*
X154304761Y-116273980D02*
X154228571Y-116350171D01*
X154228571Y-116350171D02*
X154152380Y-116388266D01*
X175959695Y-118314285D02*
X175578742Y-118580952D01*
X175959695Y-118771428D02*
X175159695Y-118771428D01*
X175159695Y-118771428D02*
X175159695Y-118466666D01*
X175159695Y-118466666D02*
X175197790Y-118390476D01*
X175197790Y-118390476D02*
X175235885Y-118352381D01*
X175235885Y-118352381D02*
X175312076Y-118314285D01*
X175312076Y-118314285D02*
X175426361Y-118314285D01*
X175426361Y-118314285D02*
X175502552Y-118352381D01*
X175502552Y-118352381D02*
X175540647Y-118390476D01*
X175540647Y-118390476D02*
X175578742Y-118466666D01*
X175578742Y-118466666D02*
X175578742Y-118771428D01*
X175959695Y-117552381D02*
X175959695Y-118009524D01*
X175959695Y-117780952D02*
X175159695Y-117780952D01*
X175159695Y-117780952D02*
X175273980Y-117857143D01*
X175273980Y-117857143D02*
X175350171Y-117933333D01*
X175350171Y-117933333D02*
X175388266Y-118009524D01*
X175426361Y-116866666D02*
X175959695Y-116866666D01*
X175121600Y-117057142D02*
X175693028Y-117247619D01*
X175693028Y-117247619D02*
X175693028Y-116752380D01*
X144359695Y-109409523D02*
X145007314Y-109409523D01*
X145007314Y-109409523D02*
X145083504Y-109371428D01*
X145083504Y-109371428D02*
X145121600Y-109333333D01*
X145121600Y-109333333D02*
X145159695Y-109257142D01*
X145159695Y-109257142D02*
X145159695Y-109104761D01*
X145159695Y-109104761D02*
X145121600Y-109028571D01*
X145121600Y-109028571D02*
X145083504Y-108990476D01*
X145083504Y-108990476D02*
X145007314Y-108952380D01*
X145007314Y-108952380D02*
X144359695Y-108952380D01*
X144435885Y-108609524D02*
X144397790Y-108571428D01*
X144397790Y-108571428D02*
X144359695Y-108495238D01*
X144359695Y-108495238D02*
X144359695Y-108304762D01*
X144359695Y-108304762D02*
X144397790Y-108228571D01*
X144397790Y-108228571D02*
X144435885Y-108190476D01*
X144435885Y-108190476D02*
X144512076Y-108152381D01*
X144512076Y-108152381D02*
X144588266Y-108152381D01*
X144588266Y-108152381D02*
X144702552Y-108190476D01*
X144702552Y-108190476D02*
X145159695Y-108647619D01*
X145159695Y-108647619D02*
X145159695Y-108152381D01*
X150485714Y-95359695D02*
X150219047Y-94978742D01*
X150028571Y-95359695D02*
X150028571Y-94559695D01*
X150028571Y-94559695D02*
X150333333Y-94559695D01*
X150333333Y-94559695D02*
X150409523Y-94597790D01*
X150409523Y-94597790D02*
X150447618Y-94635885D01*
X150447618Y-94635885D02*
X150485714Y-94712076D01*
X150485714Y-94712076D02*
X150485714Y-94826361D01*
X150485714Y-94826361D02*
X150447618Y-94902552D01*
X150447618Y-94902552D02*
X150409523Y-94940647D01*
X150409523Y-94940647D02*
X150333333Y-94978742D01*
X150333333Y-94978742D02*
X150028571Y-94978742D01*
X151247618Y-95359695D02*
X150790475Y-95359695D01*
X151019047Y-95359695D02*
X151019047Y-94559695D01*
X151019047Y-94559695D02*
X150942856Y-94673980D01*
X150942856Y-94673980D02*
X150866666Y-94750171D01*
X150866666Y-94750171D02*
X150790475Y-94788266D01*
X151971428Y-94559695D02*
X151590476Y-94559695D01*
X151590476Y-94559695D02*
X151552380Y-94940647D01*
X151552380Y-94940647D02*
X151590476Y-94902552D01*
X151590476Y-94902552D02*
X151666666Y-94864457D01*
X151666666Y-94864457D02*
X151857142Y-94864457D01*
X151857142Y-94864457D02*
X151933333Y-94902552D01*
X151933333Y-94902552D02*
X151971428Y-94940647D01*
X151971428Y-94940647D02*
X152009523Y-95016838D01*
X152009523Y-95016838D02*
X152009523Y-95207314D01*
X152009523Y-95207314D02*
X151971428Y-95283504D01*
X151971428Y-95283504D02*
X151933333Y-95321600D01*
X151933333Y-95321600D02*
X151857142Y-95359695D01*
X151857142Y-95359695D02*
X151666666Y-95359695D01*
X151666666Y-95359695D02*
X151590476Y-95321600D01*
X151590476Y-95321600D02*
X151552380Y-95283504D01*
X155285714Y-90683504D02*
X155247618Y-90721600D01*
X155247618Y-90721600D02*
X155133333Y-90759695D01*
X155133333Y-90759695D02*
X155057142Y-90759695D01*
X155057142Y-90759695D02*
X154942856Y-90721600D01*
X154942856Y-90721600D02*
X154866666Y-90645409D01*
X154866666Y-90645409D02*
X154828571Y-90569219D01*
X154828571Y-90569219D02*
X154790475Y-90416838D01*
X154790475Y-90416838D02*
X154790475Y-90302552D01*
X154790475Y-90302552D02*
X154828571Y-90150171D01*
X154828571Y-90150171D02*
X154866666Y-90073980D01*
X154866666Y-90073980D02*
X154942856Y-89997790D01*
X154942856Y-89997790D02*
X155057142Y-89959695D01*
X155057142Y-89959695D02*
X155133333Y-89959695D01*
X155133333Y-89959695D02*
X155247618Y-89997790D01*
X155247618Y-89997790D02*
X155285714Y-90035885D01*
X156047618Y-90759695D02*
X155590475Y-90759695D01*
X155819047Y-90759695D02*
X155819047Y-89959695D01*
X155819047Y-89959695D02*
X155742856Y-90073980D01*
X155742856Y-90073980D02*
X155666666Y-90150171D01*
X155666666Y-90150171D02*
X155590475Y-90188266D01*
X156504761Y-90302552D02*
X156428571Y-90264457D01*
X156428571Y-90264457D02*
X156390476Y-90226361D01*
X156390476Y-90226361D02*
X156352380Y-90150171D01*
X156352380Y-90150171D02*
X156352380Y-90112076D01*
X156352380Y-90112076D02*
X156390476Y-90035885D01*
X156390476Y-90035885D02*
X156428571Y-89997790D01*
X156428571Y-89997790D02*
X156504761Y-89959695D01*
X156504761Y-89959695D02*
X156657142Y-89959695D01*
X156657142Y-89959695D02*
X156733333Y-89997790D01*
X156733333Y-89997790D02*
X156771428Y-90035885D01*
X156771428Y-90035885D02*
X156809523Y-90112076D01*
X156809523Y-90112076D02*
X156809523Y-90150171D01*
X156809523Y-90150171D02*
X156771428Y-90226361D01*
X156771428Y-90226361D02*
X156733333Y-90264457D01*
X156733333Y-90264457D02*
X156657142Y-90302552D01*
X156657142Y-90302552D02*
X156504761Y-90302552D01*
X156504761Y-90302552D02*
X156428571Y-90340647D01*
X156428571Y-90340647D02*
X156390476Y-90378742D01*
X156390476Y-90378742D02*
X156352380Y-90454933D01*
X156352380Y-90454933D02*
X156352380Y-90607314D01*
X156352380Y-90607314D02*
X156390476Y-90683504D01*
X156390476Y-90683504D02*
X156428571Y-90721600D01*
X156428571Y-90721600D02*
X156504761Y-90759695D01*
X156504761Y-90759695D02*
X156657142Y-90759695D01*
X156657142Y-90759695D02*
X156733333Y-90721600D01*
X156733333Y-90721600D02*
X156771428Y-90683504D01*
X156771428Y-90683504D02*
X156809523Y-90607314D01*
X156809523Y-90607314D02*
X156809523Y-90454933D01*
X156809523Y-90454933D02*
X156771428Y-90378742D01*
X156771428Y-90378742D02*
X156733333Y-90340647D01*
X156733333Y-90340647D02*
X156657142Y-90302552D01*
X158266667Y-119483504D02*
X158228571Y-119521600D01*
X158228571Y-119521600D02*
X158114286Y-119559695D01*
X158114286Y-119559695D02*
X158038095Y-119559695D01*
X158038095Y-119559695D02*
X157923809Y-119521600D01*
X157923809Y-119521600D02*
X157847619Y-119445409D01*
X157847619Y-119445409D02*
X157809524Y-119369219D01*
X157809524Y-119369219D02*
X157771428Y-119216838D01*
X157771428Y-119216838D02*
X157771428Y-119102552D01*
X157771428Y-119102552D02*
X157809524Y-118950171D01*
X157809524Y-118950171D02*
X157847619Y-118873980D01*
X157847619Y-118873980D02*
X157923809Y-118797790D01*
X157923809Y-118797790D02*
X158038095Y-118759695D01*
X158038095Y-118759695D02*
X158114286Y-118759695D01*
X158114286Y-118759695D02*
X158228571Y-118797790D01*
X158228571Y-118797790D02*
X158266667Y-118835885D01*
X158952381Y-118759695D02*
X158800000Y-118759695D01*
X158800000Y-118759695D02*
X158723809Y-118797790D01*
X158723809Y-118797790D02*
X158685714Y-118835885D01*
X158685714Y-118835885D02*
X158609524Y-118950171D01*
X158609524Y-118950171D02*
X158571428Y-119102552D01*
X158571428Y-119102552D02*
X158571428Y-119407314D01*
X158571428Y-119407314D02*
X158609524Y-119483504D01*
X158609524Y-119483504D02*
X158647619Y-119521600D01*
X158647619Y-119521600D02*
X158723809Y-119559695D01*
X158723809Y-119559695D02*
X158876190Y-119559695D01*
X158876190Y-119559695D02*
X158952381Y-119521600D01*
X158952381Y-119521600D02*
X158990476Y-119483504D01*
X158990476Y-119483504D02*
X159028571Y-119407314D01*
X159028571Y-119407314D02*
X159028571Y-119216838D01*
X159028571Y-119216838D02*
X158990476Y-119140647D01*
X158990476Y-119140647D02*
X158952381Y-119102552D01*
X158952381Y-119102552D02*
X158876190Y-119064457D01*
X158876190Y-119064457D02*
X158723809Y-119064457D01*
X158723809Y-119064457D02*
X158647619Y-119102552D01*
X158647619Y-119102552D02*
X158609524Y-119140647D01*
X158609524Y-119140647D02*
X158571428Y-119216838D01*
X190589695Y-89245035D02*
X190208742Y-89511702D01*
X190589695Y-89702178D02*
X189789695Y-89702178D01*
X189789695Y-89702178D02*
X189789695Y-89397416D01*
X189789695Y-89397416D02*
X189827790Y-89321226D01*
X189827790Y-89321226D02*
X189865885Y-89283131D01*
X189865885Y-89283131D02*
X189942076Y-89245035D01*
X189942076Y-89245035D02*
X190056361Y-89245035D01*
X190056361Y-89245035D02*
X190132552Y-89283131D01*
X190132552Y-89283131D02*
X190170647Y-89321226D01*
X190170647Y-89321226D02*
X190208742Y-89397416D01*
X190208742Y-89397416D02*
X190208742Y-89702178D01*
X189865885Y-88940274D02*
X189827790Y-88902178D01*
X189827790Y-88902178D02*
X189789695Y-88825988D01*
X189789695Y-88825988D02*
X189789695Y-88635512D01*
X189789695Y-88635512D02*
X189827790Y-88559321D01*
X189827790Y-88559321D02*
X189865885Y-88521226D01*
X189865885Y-88521226D02*
X189942076Y-88483131D01*
X189942076Y-88483131D02*
X190018266Y-88483131D01*
X190018266Y-88483131D02*
X190132552Y-88521226D01*
X190132552Y-88521226D02*
X190589695Y-88978369D01*
X190589695Y-88978369D02*
X190589695Y-88483131D01*
X190589695Y-87721226D02*
X190589695Y-88178369D01*
X190589695Y-87949797D02*
X189789695Y-87949797D01*
X189789695Y-87949797D02*
X189903980Y-88025988D01*
X189903980Y-88025988D02*
X189980171Y-88102178D01*
X189980171Y-88102178D02*
X190018266Y-88178369D01*
X163069048Y-111409695D02*
X163069048Y-110609695D01*
X163907143Y-111333504D02*
X163869047Y-111371600D01*
X163869047Y-111371600D02*
X163754762Y-111409695D01*
X163754762Y-111409695D02*
X163678571Y-111409695D01*
X163678571Y-111409695D02*
X163564285Y-111371600D01*
X163564285Y-111371600D02*
X163488095Y-111295409D01*
X163488095Y-111295409D02*
X163450000Y-111219219D01*
X163450000Y-111219219D02*
X163411904Y-111066838D01*
X163411904Y-111066838D02*
X163411904Y-110952552D01*
X163411904Y-110952552D02*
X163450000Y-110800171D01*
X163450000Y-110800171D02*
X163488095Y-110723980D01*
X163488095Y-110723980D02*
X163564285Y-110647790D01*
X163564285Y-110647790D02*
X163678571Y-110609695D01*
X163678571Y-110609695D02*
X163754762Y-110609695D01*
X163754762Y-110609695D02*
X163869047Y-110647790D01*
X163869047Y-110647790D02*
X163907143Y-110685885D01*
X164211904Y-110685885D02*
X164250000Y-110647790D01*
X164250000Y-110647790D02*
X164326190Y-110609695D01*
X164326190Y-110609695D02*
X164516666Y-110609695D01*
X164516666Y-110609695D02*
X164592857Y-110647790D01*
X164592857Y-110647790D02*
X164630952Y-110685885D01*
X164630952Y-110685885D02*
X164669047Y-110762076D01*
X164669047Y-110762076D02*
X164669047Y-110838266D01*
X164669047Y-110838266D02*
X164630952Y-110952552D01*
X164630952Y-110952552D02*
X164173809Y-111409695D01*
X164173809Y-111409695D02*
X164669047Y-111409695D01*
X170258590Y-98558244D02*
X170296686Y-98596340D01*
X170296686Y-98596340D02*
X170334781Y-98710625D01*
X170334781Y-98710625D02*
X170334781Y-98786816D01*
X170334781Y-98786816D02*
X170296686Y-98901102D01*
X170296686Y-98901102D02*
X170220495Y-98977292D01*
X170220495Y-98977292D02*
X170144305Y-99015387D01*
X170144305Y-99015387D02*
X169991924Y-99053483D01*
X169991924Y-99053483D02*
X169877638Y-99053483D01*
X169877638Y-99053483D02*
X169725257Y-99015387D01*
X169725257Y-99015387D02*
X169649066Y-98977292D01*
X169649066Y-98977292D02*
X169572876Y-98901102D01*
X169572876Y-98901102D02*
X169534781Y-98786816D01*
X169534781Y-98786816D02*
X169534781Y-98710625D01*
X169534781Y-98710625D02*
X169572876Y-98596340D01*
X169572876Y-98596340D02*
X169610971Y-98558244D01*
X169610971Y-98253483D02*
X169572876Y-98215387D01*
X169572876Y-98215387D02*
X169534781Y-98139197D01*
X169534781Y-98139197D02*
X169534781Y-97948721D01*
X169534781Y-97948721D02*
X169572876Y-97872530D01*
X169572876Y-97872530D02*
X169610971Y-97834435D01*
X169610971Y-97834435D02*
X169687162Y-97796340D01*
X169687162Y-97796340D02*
X169763352Y-97796340D01*
X169763352Y-97796340D02*
X169877638Y-97834435D01*
X169877638Y-97834435D02*
X170334781Y-98291578D01*
X170334781Y-98291578D02*
X170334781Y-97796340D01*
X150901048Y-101547695D02*
X150901048Y-100747695D01*
X151739143Y-101471504D02*
X151701047Y-101509600D01*
X151701047Y-101509600D02*
X151586762Y-101547695D01*
X151586762Y-101547695D02*
X151510571Y-101547695D01*
X151510571Y-101547695D02*
X151396285Y-101509600D01*
X151396285Y-101509600D02*
X151320095Y-101433409D01*
X151320095Y-101433409D02*
X151282000Y-101357219D01*
X151282000Y-101357219D02*
X151243904Y-101204838D01*
X151243904Y-101204838D02*
X151243904Y-101090552D01*
X151243904Y-101090552D02*
X151282000Y-100938171D01*
X151282000Y-100938171D02*
X151320095Y-100861980D01*
X151320095Y-100861980D02*
X151396285Y-100785790D01*
X151396285Y-100785790D02*
X151510571Y-100747695D01*
X151510571Y-100747695D02*
X151586762Y-100747695D01*
X151586762Y-100747695D02*
X151701047Y-100785790D01*
X151701047Y-100785790D02*
X151739143Y-100823885D01*
X152424857Y-100747695D02*
X152272476Y-100747695D01*
X152272476Y-100747695D02*
X152196285Y-100785790D01*
X152196285Y-100785790D02*
X152158190Y-100823885D01*
X152158190Y-100823885D02*
X152082000Y-100938171D01*
X152082000Y-100938171D02*
X152043904Y-101090552D01*
X152043904Y-101090552D02*
X152043904Y-101395314D01*
X152043904Y-101395314D02*
X152082000Y-101471504D01*
X152082000Y-101471504D02*
X152120095Y-101509600D01*
X152120095Y-101509600D02*
X152196285Y-101547695D01*
X152196285Y-101547695D02*
X152348666Y-101547695D01*
X152348666Y-101547695D02*
X152424857Y-101509600D01*
X152424857Y-101509600D02*
X152462952Y-101471504D01*
X152462952Y-101471504D02*
X152501047Y-101395314D01*
X152501047Y-101395314D02*
X152501047Y-101204838D01*
X152501047Y-101204838D02*
X152462952Y-101128647D01*
X152462952Y-101128647D02*
X152424857Y-101090552D01*
X152424857Y-101090552D02*
X152348666Y-101052457D01*
X152348666Y-101052457D02*
X152196285Y-101052457D01*
X152196285Y-101052457D02*
X152120095Y-101090552D01*
X152120095Y-101090552D02*
X152082000Y-101128647D01*
X152082000Y-101128647D02*
X152043904Y-101204838D01*
X158399714Y-89759695D02*
X158133047Y-89378742D01*
X157942571Y-89759695D02*
X157942571Y-88959695D01*
X157942571Y-88959695D02*
X158247333Y-88959695D01*
X158247333Y-88959695D02*
X158323523Y-88997790D01*
X158323523Y-88997790D02*
X158361618Y-89035885D01*
X158361618Y-89035885D02*
X158399714Y-89112076D01*
X158399714Y-89112076D02*
X158399714Y-89226361D01*
X158399714Y-89226361D02*
X158361618Y-89302552D01*
X158361618Y-89302552D02*
X158323523Y-89340647D01*
X158323523Y-89340647D02*
X158247333Y-89378742D01*
X158247333Y-89378742D02*
X157942571Y-89378742D01*
X158704475Y-89035885D02*
X158742571Y-88997790D01*
X158742571Y-88997790D02*
X158818761Y-88959695D01*
X158818761Y-88959695D02*
X159009237Y-88959695D01*
X159009237Y-88959695D02*
X159085428Y-88997790D01*
X159085428Y-88997790D02*
X159123523Y-89035885D01*
X159123523Y-89035885D02*
X159161618Y-89112076D01*
X159161618Y-89112076D02*
X159161618Y-89188266D01*
X159161618Y-89188266D02*
X159123523Y-89302552D01*
X159123523Y-89302552D02*
X158666380Y-89759695D01*
X158666380Y-89759695D02*
X159161618Y-89759695D01*
X159428285Y-88959695D02*
X159923523Y-88959695D01*
X159923523Y-88959695D02*
X159656857Y-89264457D01*
X159656857Y-89264457D02*
X159771142Y-89264457D01*
X159771142Y-89264457D02*
X159847333Y-89302552D01*
X159847333Y-89302552D02*
X159885428Y-89340647D01*
X159885428Y-89340647D02*
X159923523Y-89416838D01*
X159923523Y-89416838D02*
X159923523Y-89607314D01*
X159923523Y-89607314D02*
X159885428Y-89683504D01*
X159885428Y-89683504D02*
X159847333Y-89721600D01*
X159847333Y-89721600D02*
X159771142Y-89759695D01*
X159771142Y-89759695D02*
X159542571Y-89759695D01*
X159542571Y-89759695D02*
X159466380Y-89721600D01*
X159466380Y-89721600D02*
X159428285Y-89683504D01*
X166835885Y-101076190D02*
X166797790Y-101152380D01*
X166797790Y-101152380D02*
X166721600Y-101228571D01*
X166721600Y-101228571D02*
X166607314Y-101342857D01*
X166607314Y-101342857D02*
X166569219Y-101419047D01*
X166569219Y-101419047D02*
X166569219Y-101495238D01*
X166759695Y-101457142D02*
X166721600Y-101533333D01*
X166721600Y-101533333D02*
X166645409Y-101609523D01*
X166645409Y-101609523D02*
X166493028Y-101647619D01*
X166493028Y-101647619D02*
X166226361Y-101647619D01*
X166226361Y-101647619D02*
X166073980Y-101609523D01*
X166073980Y-101609523D02*
X165997790Y-101533333D01*
X165997790Y-101533333D02*
X165959695Y-101457142D01*
X165959695Y-101457142D02*
X165959695Y-101304761D01*
X165959695Y-101304761D02*
X165997790Y-101228571D01*
X165997790Y-101228571D02*
X166073980Y-101152380D01*
X166073980Y-101152380D02*
X166226361Y-101114285D01*
X166226361Y-101114285D02*
X166493028Y-101114285D01*
X166493028Y-101114285D02*
X166645409Y-101152380D01*
X166645409Y-101152380D02*
X166721600Y-101228571D01*
X166721600Y-101228571D02*
X166759695Y-101304761D01*
X166759695Y-101304761D02*
X166759695Y-101457142D01*
X166759695Y-100352381D02*
X166759695Y-100809524D01*
X166759695Y-100580952D02*
X165959695Y-100580952D01*
X165959695Y-100580952D02*
X166073980Y-100657143D01*
X166073980Y-100657143D02*
X166150171Y-100733333D01*
X166150171Y-100733333D02*
X166188266Y-100809524D01*
X174459695Y-118580951D02*
X173659695Y-118580951D01*
X174383504Y-117742856D02*
X174421600Y-117780952D01*
X174421600Y-117780952D02*
X174459695Y-117895237D01*
X174459695Y-117895237D02*
X174459695Y-117971428D01*
X174459695Y-117971428D02*
X174421600Y-118085714D01*
X174421600Y-118085714D02*
X174345409Y-118161904D01*
X174345409Y-118161904D02*
X174269219Y-118199999D01*
X174269219Y-118199999D02*
X174116838Y-118238095D01*
X174116838Y-118238095D02*
X174002552Y-118238095D01*
X174002552Y-118238095D02*
X173850171Y-118199999D01*
X173850171Y-118199999D02*
X173773980Y-118161904D01*
X173773980Y-118161904D02*
X173697790Y-118085714D01*
X173697790Y-118085714D02*
X173659695Y-117971428D01*
X173659695Y-117971428D02*
X173659695Y-117895237D01*
X173659695Y-117895237D02*
X173697790Y-117780952D01*
X173697790Y-117780952D02*
X173735885Y-117742856D01*
X173659695Y-117476190D02*
X173659695Y-116980952D01*
X173659695Y-116980952D02*
X173964457Y-117247618D01*
X173964457Y-117247618D02*
X173964457Y-117133333D01*
X173964457Y-117133333D02*
X174002552Y-117057142D01*
X174002552Y-117057142D02*
X174040647Y-117019047D01*
X174040647Y-117019047D02*
X174116838Y-116980952D01*
X174116838Y-116980952D02*
X174307314Y-116980952D01*
X174307314Y-116980952D02*
X174383504Y-117019047D01*
X174383504Y-117019047D02*
X174421600Y-117057142D01*
X174421600Y-117057142D02*
X174459695Y-117133333D01*
X174459695Y-117133333D02*
X174459695Y-117361904D01*
X174459695Y-117361904D02*
X174421600Y-117438095D01*
X174421600Y-117438095D02*
X174383504Y-117476190D01*
X168685714Y-112883504D02*
X168647618Y-112921600D01*
X168647618Y-112921600D02*
X168533333Y-112959695D01*
X168533333Y-112959695D02*
X168457142Y-112959695D01*
X168457142Y-112959695D02*
X168342856Y-112921600D01*
X168342856Y-112921600D02*
X168266666Y-112845409D01*
X168266666Y-112845409D02*
X168228571Y-112769219D01*
X168228571Y-112769219D02*
X168190475Y-112616838D01*
X168190475Y-112616838D02*
X168190475Y-112502552D01*
X168190475Y-112502552D02*
X168228571Y-112350171D01*
X168228571Y-112350171D02*
X168266666Y-112273980D01*
X168266666Y-112273980D02*
X168342856Y-112197790D01*
X168342856Y-112197790D02*
X168457142Y-112159695D01*
X168457142Y-112159695D02*
X168533333Y-112159695D01*
X168533333Y-112159695D02*
X168647618Y-112197790D01*
X168647618Y-112197790D02*
X168685714Y-112235885D01*
X169447618Y-112959695D02*
X168990475Y-112959695D01*
X169219047Y-112959695D02*
X169219047Y-112159695D01*
X169219047Y-112159695D02*
X169142856Y-112273980D01*
X169142856Y-112273980D02*
X169066666Y-112350171D01*
X169066666Y-112350171D02*
X168990475Y-112388266D01*
X169752380Y-112235885D02*
X169790476Y-112197790D01*
X169790476Y-112197790D02*
X169866666Y-112159695D01*
X169866666Y-112159695D02*
X170057142Y-112159695D01*
X170057142Y-112159695D02*
X170133333Y-112197790D01*
X170133333Y-112197790D02*
X170171428Y-112235885D01*
X170171428Y-112235885D02*
X170209523Y-112312076D01*
X170209523Y-112312076D02*
X170209523Y-112388266D01*
X170209523Y-112388266D02*
X170171428Y-112502552D01*
X170171428Y-112502552D02*
X169714285Y-112959695D01*
X169714285Y-112959695D02*
X170209523Y-112959695D01*
X180204667Y-111434695D02*
X179938000Y-111053742D01*
X179747524Y-111434695D02*
X179747524Y-110634695D01*
X179747524Y-110634695D02*
X180052286Y-110634695D01*
X180052286Y-110634695D02*
X180128476Y-110672790D01*
X180128476Y-110672790D02*
X180166571Y-110710885D01*
X180166571Y-110710885D02*
X180204667Y-110787076D01*
X180204667Y-110787076D02*
X180204667Y-110901361D01*
X180204667Y-110901361D02*
X180166571Y-110977552D01*
X180166571Y-110977552D02*
X180128476Y-111015647D01*
X180128476Y-111015647D02*
X180052286Y-111053742D01*
X180052286Y-111053742D02*
X179747524Y-111053742D01*
X180585619Y-111434695D02*
X180738000Y-111434695D01*
X180738000Y-111434695D02*
X180814190Y-111396600D01*
X180814190Y-111396600D02*
X180852286Y-111358504D01*
X180852286Y-111358504D02*
X180928476Y-111244219D01*
X180928476Y-111244219D02*
X180966571Y-111091838D01*
X180966571Y-111091838D02*
X180966571Y-110787076D01*
X180966571Y-110787076D02*
X180928476Y-110710885D01*
X180928476Y-110710885D02*
X180890381Y-110672790D01*
X180890381Y-110672790D02*
X180814190Y-110634695D01*
X180814190Y-110634695D02*
X180661809Y-110634695D01*
X180661809Y-110634695D02*
X180585619Y-110672790D01*
X180585619Y-110672790D02*
X180547524Y-110710885D01*
X180547524Y-110710885D02*
X180509428Y-110787076D01*
X180509428Y-110787076D02*
X180509428Y-110977552D01*
X180509428Y-110977552D02*
X180547524Y-111053742D01*
X180547524Y-111053742D02*
X180585619Y-111091838D01*
X180585619Y-111091838D02*
X180661809Y-111129933D01*
X180661809Y-111129933D02*
X180814190Y-111129933D01*
X180814190Y-111129933D02*
X180890381Y-111091838D01*
X180890381Y-111091838D02*
X180928476Y-111053742D01*
X180928476Y-111053742D02*
X180966571Y-110977552D01*
X152885714Y-83683504D02*
X152847618Y-83721600D01*
X152847618Y-83721600D02*
X152733333Y-83759695D01*
X152733333Y-83759695D02*
X152657142Y-83759695D01*
X152657142Y-83759695D02*
X152542856Y-83721600D01*
X152542856Y-83721600D02*
X152466666Y-83645409D01*
X152466666Y-83645409D02*
X152428571Y-83569219D01*
X152428571Y-83569219D02*
X152390475Y-83416838D01*
X152390475Y-83416838D02*
X152390475Y-83302552D01*
X152390475Y-83302552D02*
X152428571Y-83150171D01*
X152428571Y-83150171D02*
X152466666Y-83073980D01*
X152466666Y-83073980D02*
X152542856Y-82997790D01*
X152542856Y-82997790D02*
X152657142Y-82959695D01*
X152657142Y-82959695D02*
X152733333Y-82959695D01*
X152733333Y-82959695D02*
X152847618Y-82997790D01*
X152847618Y-82997790D02*
X152885714Y-83035885D01*
X153190475Y-83035885D02*
X153228571Y-82997790D01*
X153228571Y-82997790D02*
X153304761Y-82959695D01*
X153304761Y-82959695D02*
X153495237Y-82959695D01*
X153495237Y-82959695D02*
X153571428Y-82997790D01*
X153571428Y-82997790D02*
X153609523Y-83035885D01*
X153609523Y-83035885D02*
X153647618Y-83112076D01*
X153647618Y-83112076D02*
X153647618Y-83188266D01*
X153647618Y-83188266D02*
X153609523Y-83302552D01*
X153609523Y-83302552D02*
X153152380Y-83759695D01*
X153152380Y-83759695D02*
X153647618Y-83759695D01*
X154409523Y-83759695D02*
X153952380Y-83759695D01*
X154180952Y-83759695D02*
X154180952Y-82959695D01*
X154180952Y-82959695D02*
X154104761Y-83073980D01*
X154104761Y-83073980D02*
X154028571Y-83150171D01*
X154028571Y-83150171D02*
X153952380Y-83188266D01*
X156266667Y-119559695D02*
X156000000Y-119178742D01*
X155809524Y-119559695D02*
X155809524Y-118759695D01*
X155809524Y-118759695D02*
X156114286Y-118759695D01*
X156114286Y-118759695D02*
X156190476Y-118797790D01*
X156190476Y-118797790D02*
X156228571Y-118835885D01*
X156228571Y-118835885D02*
X156266667Y-118912076D01*
X156266667Y-118912076D02*
X156266667Y-119026361D01*
X156266667Y-119026361D02*
X156228571Y-119102552D01*
X156228571Y-119102552D02*
X156190476Y-119140647D01*
X156190476Y-119140647D02*
X156114286Y-119178742D01*
X156114286Y-119178742D02*
X155809524Y-119178742D01*
X156990476Y-118759695D02*
X156609524Y-118759695D01*
X156609524Y-118759695D02*
X156571428Y-119140647D01*
X156571428Y-119140647D02*
X156609524Y-119102552D01*
X156609524Y-119102552D02*
X156685714Y-119064457D01*
X156685714Y-119064457D02*
X156876190Y-119064457D01*
X156876190Y-119064457D02*
X156952381Y-119102552D01*
X156952381Y-119102552D02*
X156990476Y-119140647D01*
X156990476Y-119140647D02*
X157028571Y-119216838D01*
X157028571Y-119216838D02*
X157028571Y-119407314D01*
X157028571Y-119407314D02*
X156990476Y-119483504D01*
X156990476Y-119483504D02*
X156952381Y-119521600D01*
X156952381Y-119521600D02*
X156876190Y-119559695D01*
X156876190Y-119559695D02*
X156685714Y-119559695D01*
X156685714Y-119559695D02*
X156609524Y-119521600D01*
X156609524Y-119521600D02*
X156571428Y-119483504D01*
X166159695Y-110809523D02*
X166159695Y-110352380D01*
X166959695Y-110580952D02*
X166159695Y-110580952D01*
X166959695Y-110085713D02*
X166159695Y-110085713D01*
X166159695Y-110085713D02*
X166159695Y-109780951D01*
X166159695Y-109780951D02*
X166197790Y-109704761D01*
X166197790Y-109704761D02*
X166235885Y-109666666D01*
X166235885Y-109666666D02*
X166312076Y-109628570D01*
X166312076Y-109628570D02*
X166426361Y-109628570D01*
X166426361Y-109628570D02*
X166502552Y-109666666D01*
X166502552Y-109666666D02*
X166540647Y-109704761D01*
X166540647Y-109704761D02*
X166578742Y-109780951D01*
X166578742Y-109780951D02*
X166578742Y-110085713D01*
X166159695Y-109361904D02*
X166159695Y-108828570D01*
X166159695Y-108828570D02*
X166959695Y-109171428D01*
X149959695Y-103114285D02*
X149578742Y-103380952D01*
X149959695Y-103571428D02*
X149159695Y-103571428D01*
X149159695Y-103571428D02*
X149159695Y-103266666D01*
X149159695Y-103266666D02*
X149197790Y-103190476D01*
X149197790Y-103190476D02*
X149235885Y-103152381D01*
X149235885Y-103152381D02*
X149312076Y-103114285D01*
X149312076Y-103114285D02*
X149426361Y-103114285D01*
X149426361Y-103114285D02*
X149502552Y-103152381D01*
X149502552Y-103152381D02*
X149540647Y-103190476D01*
X149540647Y-103190476D02*
X149578742Y-103266666D01*
X149578742Y-103266666D02*
X149578742Y-103571428D01*
X149959695Y-102352381D02*
X149959695Y-102809524D01*
X149959695Y-102580952D02*
X149159695Y-102580952D01*
X149159695Y-102580952D02*
X149273980Y-102657143D01*
X149273980Y-102657143D02*
X149350171Y-102733333D01*
X149350171Y-102733333D02*
X149388266Y-102809524D01*
X149502552Y-101895238D02*
X149464457Y-101971428D01*
X149464457Y-101971428D02*
X149426361Y-102009523D01*
X149426361Y-102009523D02*
X149350171Y-102047619D01*
X149350171Y-102047619D02*
X149312076Y-102047619D01*
X149312076Y-102047619D02*
X149235885Y-102009523D01*
X149235885Y-102009523D02*
X149197790Y-101971428D01*
X149197790Y-101971428D02*
X149159695Y-101895238D01*
X149159695Y-101895238D02*
X149159695Y-101742857D01*
X149159695Y-101742857D02*
X149197790Y-101666666D01*
X149197790Y-101666666D02*
X149235885Y-101628571D01*
X149235885Y-101628571D02*
X149312076Y-101590476D01*
X149312076Y-101590476D02*
X149350171Y-101590476D01*
X149350171Y-101590476D02*
X149426361Y-101628571D01*
X149426361Y-101628571D02*
X149464457Y-101666666D01*
X149464457Y-101666666D02*
X149502552Y-101742857D01*
X149502552Y-101742857D02*
X149502552Y-101895238D01*
X149502552Y-101895238D02*
X149540647Y-101971428D01*
X149540647Y-101971428D02*
X149578742Y-102009523D01*
X149578742Y-102009523D02*
X149654933Y-102047619D01*
X149654933Y-102047619D02*
X149807314Y-102047619D01*
X149807314Y-102047619D02*
X149883504Y-102009523D01*
X149883504Y-102009523D02*
X149921600Y-101971428D01*
X149921600Y-101971428D02*
X149959695Y-101895238D01*
X149959695Y-101895238D02*
X149959695Y-101742857D01*
X149959695Y-101742857D02*
X149921600Y-101666666D01*
X149921600Y-101666666D02*
X149883504Y-101628571D01*
X149883504Y-101628571D02*
X149807314Y-101590476D01*
X149807314Y-101590476D02*
X149654933Y-101590476D01*
X149654933Y-101590476D02*
X149578742Y-101628571D01*
X149578742Y-101628571D02*
X149540647Y-101666666D01*
X149540647Y-101666666D02*
X149502552Y-101742857D01*
X176390476Y-99859695D02*
X176847619Y-99859695D01*
X176619047Y-100659695D02*
X176619047Y-99859695D01*
X177114286Y-100659695D02*
X177114286Y-99859695D01*
X177114286Y-99859695D02*
X177419048Y-99859695D01*
X177419048Y-99859695D02*
X177495238Y-99897790D01*
X177495238Y-99897790D02*
X177533333Y-99935885D01*
X177533333Y-99935885D02*
X177571429Y-100012076D01*
X177571429Y-100012076D02*
X177571429Y-100126361D01*
X177571429Y-100126361D02*
X177533333Y-100202552D01*
X177533333Y-100202552D02*
X177495238Y-100240647D01*
X177495238Y-100240647D02*
X177419048Y-100278742D01*
X177419048Y-100278742D02*
X177114286Y-100278742D01*
X177876190Y-99935885D02*
X177914286Y-99897790D01*
X177914286Y-99897790D02*
X177990476Y-99859695D01*
X177990476Y-99859695D02*
X178180952Y-99859695D01*
X178180952Y-99859695D02*
X178257143Y-99897790D01*
X178257143Y-99897790D02*
X178295238Y-99935885D01*
X178295238Y-99935885D02*
X178333333Y-100012076D01*
X178333333Y-100012076D02*
X178333333Y-100088266D01*
X178333333Y-100088266D02*
X178295238Y-100202552D01*
X178295238Y-100202552D02*
X177838095Y-100659695D01*
X177838095Y-100659695D02*
X178333333Y-100659695D01*
X153959693Y-88390475D02*
X153159693Y-88390475D01*
X153159693Y-88390475D02*
X153159693Y-88199999D01*
X153159693Y-88199999D02*
X153197788Y-88085713D01*
X153197788Y-88085713D02*
X153273978Y-88009523D01*
X153273978Y-88009523D02*
X153350169Y-87971428D01*
X153350169Y-87971428D02*
X153502550Y-87933332D01*
X153502550Y-87933332D02*
X153616836Y-87933332D01*
X153616836Y-87933332D02*
X153769217Y-87971428D01*
X153769217Y-87971428D02*
X153845407Y-88009523D01*
X153845407Y-88009523D02*
X153921598Y-88085713D01*
X153921598Y-88085713D02*
X153959693Y-88199999D01*
X153959693Y-88199999D02*
X153959693Y-88390475D01*
X153235883Y-87628571D02*
X153197788Y-87590475D01*
X153197788Y-87590475D02*
X153159693Y-87514285D01*
X153159693Y-87514285D02*
X153159693Y-87323809D01*
X153159693Y-87323809D02*
X153197788Y-87247618D01*
X153197788Y-87247618D02*
X153235883Y-87209523D01*
X153235883Y-87209523D02*
X153312074Y-87171428D01*
X153312074Y-87171428D02*
X153388264Y-87171428D01*
X153388264Y-87171428D02*
X153502550Y-87209523D01*
X153502550Y-87209523D02*
X153959693Y-87666666D01*
X153959693Y-87666666D02*
X153959693Y-87171428D01*
X187759695Y-89514285D02*
X187378742Y-89780952D01*
X187759695Y-89971428D02*
X186959695Y-89971428D01*
X186959695Y-89971428D02*
X186959695Y-89666666D01*
X186959695Y-89666666D02*
X186997790Y-89590476D01*
X186997790Y-89590476D02*
X187035885Y-89552381D01*
X187035885Y-89552381D02*
X187112076Y-89514285D01*
X187112076Y-89514285D02*
X187226361Y-89514285D01*
X187226361Y-89514285D02*
X187302552Y-89552381D01*
X187302552Y-89552381D02*
X187340647Y-89590476D01*
X187340647Y-89590476D02*
X187378742Y-89666666D01*
X187378742Y-89666666D02*
X187378742Y-89971428D01*
X187035885Y-89209524D02*
X186997790Y-89171428D01*
X186997790Y-89171428D02*
X186959695Y-89095238D01*
X186959695Y-89095238D02*
X186959695Y-88904762D01*
X186959695Y-88904762D02*
X186997790Y-88828571D01*
X186997790Y-88828571D02*
X187035885Y-88790476D01*
X187035885Y-88790476D02*
X187112076Y-88752381D01*
X187112076Y-88752381D02*
X187188266Y-88752381D01*
X187188266Y-88752381D02*
X187302552Y-88790476D01*
X187302552Y-88790476D02*
X187759695Y-89247619D01*
X187759695Y-89247619D02*
X187759695Y-88752381D01*
X186959695Y-88257142D02*
X186959695Y-88180952D01*
X186959695Y-88180952D02*
X186997790Y-88104761D01*
X186997790Y-88104761D02*
X187035885Y-88066666D01*
X187035885Y-88066666D02*
X187112076Y-88028571D01*
X187112076Y-88028571D02*
X187264457Y-87990476D01*
X187264457Y-87990476D02*
X187454933Y-87990476D01*
X187454933Y-87990476D02*
X187607314Y-88028571D01*
X187607314Y-88028571D02*
X187683504Y-88066666D01*
X187683504Y-88066666D02*
X187721600Y-88104761D01*
X187721600Y-88104761D02*
X187759695Y-88180952D01*
X187759695Y-88180952D02*
X187759695Y-88257142D01*
X187759695Y-88257142D02*
X187721600Y-88333333D01*
X187721600Y-88333333D02*
X187683504Y-88371428D01*
X187683504Y-88371428D02*
X187607314Y-88409523D01*
X187607314Y-88409523D02*
X187454933Y-88447619D01*
X187454933Y-88447619D02*
X187264457Y-88447619D01*
X187264457Y-88447619D02*
X187112076Y-88409523D01*
X187112076Y-88409523D02*
X187035885Y-88371428D01*
X187035885Y-88371428D02*
X186997790Y-88333333D01*
X186997790Y-88333333D02*
X186959695Y-88257142D01*
X170334781Y-102558244D02*
X169953828Y-102824911D01*
X170334781Y-103015387D02*
X169534781Y-103015387D01*
X169534781Y-103015387D02*
X169534781Y-102710625D01*
X169534781Y-102710625D02*
X169572876Y-102634435D01*
X169572876Y-102634435D02*
X169610971Y-102596340D01*
X169610971Y-102596340D02*
X169687162Y-102558244D01*
X169687162Y-102558244D02*
X169801447Y-102558244D01*
X169801447Y-102558244D02*
X169877638Y-102596340D01*
X169877638Y-102596340D02*
X169915733Y-102634435D01*
X169915733Y-102634435D02*
X169953828Y-102710625D01*
X169953828Y-102710625D02*
X169953828Y-103015387D01*
X169877638Y-102101102D02*
X169839543Y-102177292D01*
X169839543Y-102177292D02*
X169801447Y-102215387D01*
X169801447Y-102215387D02*
X169725257Y-102253483D01*
X169725257Y-102253483D02*
X169687162Y-102253483D01*
X169687162Y-102253483D02*
X169610971Y-102215387D01*
X169610971Y-102215387D02*
X169572876Y-102177292D01*
X169572876Y-102177292D02*
X169534781Y-102101102D01*
X169534781Y-102101102D02*
X169534781Y-101948721D01*
X169534781Y-101948721D02*
X169572876Y-101872530D01*
X169572876Y-101872530D02*
X169610971Y-101834435D01*
X169610971Y-101834435D02*
X169687162Y-101796340D01*
X169687162Y-101796340D02*
X169725257Y-101796340D01*
X169725257Y-101796340D02*
X169801447Y-101834435D01*
X169801447Y-101834435D02*
X169839543Y-101872530D01*
X169839543Y-101872530D02*
X169877638Y-101948721D01*
X169877638Y-101948721D02*
X169877638Y-102101102D01*
X169877638Y-102101102D02*
X169915733Y-102177292D01*
X169915733Y-102177292D02*
X169953828Y-102215387D01*
X169953828Y-102215387D02*
X170030019Y-102253483D01*
X170030019Y-102253483D02*
X170182400Y-102253483D01*
X170182400Y-102253483D02*
X170258590Y-102215387D01*
X170258590Y-102215387D02*
X170296686Y-102177292D01*
X170296686Y-102177292D02*
X170334781Y-102101102D01*
X170334781Y-102101102D02*
X170334781Y-101948721D01*
X170334781Y-101948721D02*
X170296686Y-101872530D01*
X170296686Y-101872530D02*
X170258590Y-101834435D01*
X170258590Y-101834435D02*
X170182400Y-101796340D01*
X170182400Y-101796340D02*
X170030019Y-101796340D01*
X170030019Y-101796340D02*
X169953828Y-101834435D01*
X169953828Y-101834435D02*
X169915733Y-101872530D01*
X169915733Y-101872530D02*
X169877638Y-101948721D01*
X182433504Y-92745034D02*
X182471600Y-92783130D01*
X182471600Y-92783130D02*
X182509695Y-92897415D01*
X182509695Y-92897415D02*
X182509695Y-92973606D01*
X182509695Y-92973606D02*
X182471600Y-93087892D01*
X182471600Y-93087892D02*
X182395409Y-93164082D01*
X182395409Y-93164082D02*
X182319219Y-93202177D01*
X182319219Y-93202177D02*
X182166838Y-93240273D01*
X182166838Y-93240273D02*
X182052552Y-93240273D01*
X182052552Y-93240273D02*
X181900171Y-93202177D01*
X181900171Y-93202177D02*
X181823980Y-93164082D01*
X181823980Y-93164082D02*
X181747790Y-93087892D01*
X181747790Y-93087892D02*
X181709695Y-92973606D01*
X181709695Y-92973606D02*
X181709695Y-92897415D01*
X181709695Y-92897415D02*
X181747790Y-92783130D01*
X181747790Y-92783130D02*
X181785885Y-92745034D01*
X181785885Y-92440273D02*
X181747790Y-92402177D01*
X181747790Y-92402177D02*
X181709695Y-92325987D01*
X181709695Y-92325987D02*
X181709695Y-92135511D01*
X181709695Y-92135511D02*
X181747790Y-92059320D01*
X181747790Y-92059320D02*
X181785885Y-92021225D01*
X181785885Y-92021225D02*
X181862076Y-91983130D01*
X181862076Y-91983130D02*
X181938266Y-91983130D01*
X181938266Y-91983130D02*
X182052552Y-92021225D01*
X182052552Y-92021225D02*
X182509695Y-92478368D01*
X182509695Y-92478368D02*
X182509695Y-91983130D01*
X181709695Y-91487891D02*
X181709695Y-91411701D01*
X181709695Y-91411701D02*
X181747790Y-91335510D01*
X181747790Y-91335510D02*
X181785885Y-91297415D01*
X181785885Y-91297415D02*
X181862076Y-91259320D01*
X181862076Y-91259320D02*
X182014457Y-91221225D01*
X182014457Y-91221225D02*
X182204933Y-91221225D01*
X182204933Y-91221225D02*
X182357314Y-91259320D01*
X182357314Y-91259320D02*
X182433504Y-91297415D01*
X182433504Y-91297415D02*
X182471600Y-91335510D01*
X182471600Y-91335510D02*
X182509695Y-91411701D01*
X182509695Y-91411701D02*
X182509695Y-91487891D01*
X182509695Y-91487891D02*
X182471600Y-91564082D01*
X182471600Y-91564082D02*
X182433504Y-91602177D01*
X182433504Y-91602177D02*
X182357314Y-91640272D01*
X182357314Y-91640272D02*
X182204933Y-91678368D01*
X182204933Y-91678368D02*
X182014457Y-91678368D01*
X182014457Y-91678368D02*
X181862076Y-91640272D01*
X181862076Y-91640272D02*
X181785885Y-91602177D01*
X181785885Y-91602177D02*
X181747790Y-91564082D01*
X181747790Y-91564082D02*
X181709695Y-91487891D01*
X163716666Y-119159695D02*
X163335714Y-119159695D01*
X163335714Y-119159695D02*
X163335714Y-118359695D01*
X163945237Y-118435885D02*
X163983333Y-118397790D01*
X163983333Y-118397790D02*
X164059523Y-118359695D01*
X164059523Y-118359695D02*
X164249999Y-118359695D01*
X164249999Y-118359695D02*
X164326190Y-118397790D01*
X164326190Y-118397790D02*
X164364285Y-118435885D01*
X164364285Y-118435885D02*
X164402380Y-118512076D01*
X164402380Y-118512076D02*
X164402380Y-118588266D01*
X164402380Y-118588266D02*
X164364285Y-118702552D01*
X164364285Y-118702552D02*
X163907142Y-119159695D01*
X163907142Y-119159695D02*
X164402380Y-119159695D01*
X149440304Y-110590476D02*
X149440304Y-111047619D01*
X148640304Y-110819047D02*
X149440304Y-110819047D01*
X148640304Y-111314286D02*
X149440304Y-111314286D01*
X149440304Y-111314286D02*
X149440304Y-111619048D01*
X149440304Y-111619048D02*
X149402209Y-111695238D01*
X149402209Y-111695238D02*
X149364114Y-111733333D01*
X149364114Y-111733333D02*
X149287923Y-111771429D01*
X149287923Y-111771429D02*
X149173638Y-111771429D01*
X149173638Y-111771429D02*
X149097447Y-111733333D01*
X149097447Y-111733333D02*
X149059352Y-111695238D01*
X149059352Y-111695238D02*
X149021257Y-111619048D01*
X149021257Y-111619048D02*
X149021257Y-111314286D01*
X149097447Y-112228571D02*
X149135542Y-112152381D01*
X149135542Y-112152381D02*
X149173638Y-112114286D01*
X149173638Y-112114286D02*
X149249828Y-112076190D01*
X149249828Y-112076190D02*
X149287923Y-112076190D01*
X149287923Y-112076190D02*
X149364114Y-112114286D01*
X149364114Y-112114286D02*
X149402209Y-112152381D01*
X149402209Y-112152381D02*
X149440304Y-112228571D01*
X149440304Y-112228571D02*
X149440304Y-112380952D01*
X149440304Y-112380952D02*
X149402209Y-112457143D01*
X149402209Y-112457143D02*
X149364114Y-112495238D01*
X149364114Y-112495238D02*
X149287923Y-112533333D01*
X149287923Y-112533333D02*
X149249828Y-112533333D01*
X149249828Y-112533333D02*
X149173638Y-112495238D01*
X149173638Y-112495238D02*
X149135542Y-112457143D01*
X149135542Y-112457143D02*
X149097447Y-112380952D01*
X149097447Y-112380952D02*
X149097447Y-112228571D01*
X149097447Y-112228571D02*
X149059352Y-112152381D01*
X149059352Y-112152381D02*
X149021257Y-112114286D01*
X149021257Y-112114286D02*
X148945066Y-112076190D01*
X148945066Y-112076190D02*
X148792685Y-112076190D01*
X148792685Y-112076190D02*
X148716495Y-112114286D01*
X148716495Y-112114286D02*
X148678400Y-112152381D01*
X148678400Y-112152381D02*
X148640304Y-112228571D01*
X148640304Y-112228571D02*
X148640304Y-112380952D01*
X148640304Y-112380952D02*
X148678400Y-112457143D01*
X148678400Y-112457143D02*
X148716495Y-112495238D01*
X148716495Y-112495238D02*
X148792685Y-112533333D01*
X148792685Y-112533333D02*
X148945066Y-112533333D01*
X148945066Y-112533333D02*
X149021257Y-112495238D01*
X149021257Y-112495238D02*
X149059352Y-112457143D01*
X149059352Y-112457143D02*
X149097447Y-112380952D01*
X152966667Y-110759695D02*
X152700000Y-110378742D01*
X152509524Y-110759695D02*
X152509524Y-109959695D01*
X152509524Y-109959695D02*
X152814286Y-109959695D01*
X152814286Y-109959695D02*
X152890476Y-109997790D01*
X152890476Y-109997790D02*
X152928571Y-110035885D01*
X152928571Y-110035885D02*
X152966667Y-110112076D01*
X152966667Y-110112076D02*
X152966667Y-110226361D01*
X152966667Y-110226361D02*
X152928571Y-110302552D01*
X152928571Y-110302552D02*
X152890476Y-110340647D01*
X152890476Y-110340647D02*
X152814286Y-110378742D01*
X152814286Y-110378742D02*
X152509524Y-110378742D01*
X153652381Y-110226361D02*
X153652381Y-110759695D01*
X153461905Y-109921600D02*
X153271428Y-110493028D01*
X153271428Y-110493028D02*
X153766667Y-110493028D01*
X160159695Y-84114285D02*
X159778742Y-84380952D01*
X160159695Y-84571428D02*
X159359695Y-84571428D01*
X159359695Y-84571428D02*
X159359695Y-84266666D01*
X159359695Y-84266666D02*
X159397790Y-84190476D01*
X159397790Y-84190476D02*
X159435885Y-84152381D01*
X159435885Y-84152381D02*
X159512076Y-84114285D01*
X159512076Y-84114285D02*
X159626361Y-84114285D01*
X159626361Y-84114285D02*
X159702552Y-84152381D01*
X159702552Y-84152381D02*
X159740647Y-84190476D01*
X159740647Y-84190476D02*
X159778742Y-84266666D01*
X159778742Y-84266666D02*
X159778742Y-84571428D01*
X160159695Y-83352381D02*
X160159695Y-83809524D01*
X160159695Y-83580952D02*
X159359695Y-83580952D01*
X159359695Y-83580952D02*
X159473980Y-83657143D01*
X159473980Y-83657143D02*
X159550171Y-83733333D01*
X159550171Y-83733333D02*
X159588266Y-83809524D01*
X159359695Y-83085714D02*
X159359695Y-82552380D01*
X159359695Y-82552380D02*
X160159695Y-82895238D01*
D11*
%TO.C,C11*%
X150311252Y-115090000D02*
X148888748Y-115090000D01*
X150311252Y-116910000D02*
X148888748Y-116910000D01*
%TO.C,C19*%
X154622420Y-103678000D02*
X154903580Y-103678000D01*
X154622420Y-104698000D02*
X154903580Y-104698000D01*
%TO.C,TP1*%
X174680000Y-83220000D02*
X174680000Y-85980000D01*
X177330000Y-83220000D02*
X174680000Y-83220000D01*
X177330000Y-83220000D02*
X177330000Y-85980000D01*
X177330000Y-85980000D02*
X174680000Y-85980000D01*
X178600000Y-83220000D02*
X179980000Y-83220000D01*
X179980000Y-83220000D02*
X179980000Y-84600000D01*
%TO.C,R1*%
X154162742Y-117277500D02*
X154637258Y-117277500D01*
X154162742Y-118322500D02*
X154637258Y-118322500D01*
%TO.C,C8*%
X162940000Y-113838748D02*
X162940000Y-115261252D01*
X164760000Y-113838748D02*
X164760000Y-115261252D01*
%TO.C,C9*%
X149189999Y-90011252D02*
X149189999Y-88588748D01*
X151009999Y-90011252D02*
X151009999Y-88588748D01*
%TO.C,C14*%
X163340581Y-90090000D02*
X163059419Y-90090000D01*
X163340581Y-91110000D02*
X163059419Y-91110000D01*
%TO.C,D3*%
X179365000Y-114025000D02*
X179365000Y-116310000D01*
X179365000Y-116310000D02*
X180835000Y-116310000D01*
X180835000Y-116310000D02*
X180835000Y-114025000D01*
%TO.C,R6*%
X171002587Y-96487170D02*
X171002587Y-96012654D01*
X172047587Y-96487170D02*
X172047587Y-96012654D01*
%TO.C,BT1*%
X181290000Y-86160000D02*
X181290000Y-87310000D01*
X181290000Y-87310000D02*
X182340000Y-87310000D01*
X182340000Y-87310000D02*
X182340000Y-88300000D01*
X182460000Y-84190000D02*
X184340000Y-84190000D01*
X185510000Y-86160000D02*
X185510000Y-87310000D01*
X185510000Y-87310000D02*
X184460000Y-87310000D01*
%TO.C,C7*%
X147590001Y-90190581D02*
X147590001Y-89909419D01*
X148610001Y-90190581D02*
X148610001Y-89909419D01*
%TO.C,D4*%
X177865000Y-114025000D02*
X177865000Y-116310000D01*
X177865000Y-116310000D02*
X179335000Y-116310000D01*
X179335000Y-116310000D02*
X179335000Y-114025000D01*
%TO.C,C5*%
X176590000Y-114684420D02*
X176590000Y-114965580D01*
X177610000Y-114684420D02*
X177610000Y-114965580D01*
%TO.C,R3*%
X172037829Y-99977413D02*
X172512345Y-99977413D01*
X172037829Y-101022413D02*
X172512345Y-101022413D01*
%TO.C,C13*%
X150311252Y-117490000D02*
X148888748Y-117490000D01*
X150311252Y-119310000D02*
X148888748Y-119310000D01*
%TO.C,C17*%
X185540001Y-93121330D02*
X185540001Y-92840170D01*
X186560001Y-93121330D02*
X186560001Y-92840170D01*
%TO.C,C10*%
X165190000Y-113838748D02*
X165190000Y-115261252D01*
X167010000Y-113838748D02*
X167010000Y-115261252D01*
%TO.C,R10*%
X177612742Y-112052500D02*
X178087258Y-112052500D01*
X177612742Y-113097500D02*
X178087258Y-113097500D01*
%TO.C,R16*%
X146077500Y-105162742D02*
X146077500Y-105637258D01*
X147122500Y-105162742D02*
X147122500Y-105637258D01*
%TO.C,R11*%
X151577500Y-90287258D02*
X151577500Y-89812742D01*
X152622500Y-90287258D02*
X152622500Y-89812742D01*
%TO.C,R2*%
X160837258Y-110277500D02*
X160362742Y-110277500D01*
X160837258Y-111322500D02*
X160362742Y-111322500D01*
%TO.C,R19*%
X147577500Y-105637258D02*
X147577500Y-105162742D01*
X148622500Y-105637258D02*
X148622500Y-105162742D01*
%TO.C,R12*%
X171577500Y-117562742D02*
X171577500Y-118037258D01*
X172622500Y-117562742D02*
X172622500Y-118037258D01*
%TO.C,J1*%
X170255000Y-85765001D02*
X171000000Y-85765001D01*
X170255000Y-86500001D02*
X170255000Y-85765001D01*
X170255000Y-87235001D02*
X170255000Y-88110001D01*
X170255000Y-87235001D02*
X170314435Y-87235001D01*
X170255000Y-88110001D02*
X170589970Y-88110001D01*
X171410030Y-88110001D02*
X171745000Y-88110001D01*
X171685565Y-87235001D02*
X171745000Y-87235001D01*
X171745000Y-87235001D02*
X171745000Y-88110001D01*
%TO.C,C4*%
X157440000Y-113888748D02*
X157440000Y-115311252D01*
X159260000Y-113888748D02*
X159260000Y-115311252D01*
%TO.C,C1*%
X155090000Y-115311252D02*
X155090000Y-113888748D01*
X156910000Y-115311252D02*
X156910000Y-113888748D01*
%TO.C,R13*%
X170077500Y-114812742D02*
X170077500Y-115287258D01*
X171122500Y-114812742D02*
X171122500Y-115287258D01*
D10*
%TO.C,D7*%
X185248000Y-97532000D02*
X190352000Y-97532000D01*
X190352000Y-94868000D02*
X184975000Y-94868000D01*
D12*
%TO.C,IC5*%
X155118501Y-87381499D02*
X155118501Y-87381499D01*
X155118501Y-87481499D02*
X155118501Y-87481499D01*
X155118501Y-87381499D02*
G75*
G02*
X155118501Y-87481499I0J-50000D01*
G01*
X155118501Y-87481499D02*
G75*
G02*
X155118501Y-87381499I0J50000D01*
G01*
D11*
%TO.C,R22*%
X154490500Y-97162742D02*
X154490500Y-97637258D01*
X155535500Y-97162742D02*
X155535500Y-97637258D01*
%TO.C,TP5*%
X175945087Y-91744912D02*
X175945087Y-94504912D01*
X176055087Y-91744912D02*
X175945087Y-91744912D01*
X176055087Y-91744912D02*
X176055087Y-94504912D01*
X176055087Y-94504912D02*
X175945087Y-94504912D01*
X177325087Y-91744913D02*
X178705087Y-91744912D01*
X178705087Y-91744912D02*
X178705086Y-93124912D01*
%TO.C,TP6*%
X171680087Y-104744912D02*
X171680087Y-107504912D01*
X174330087Y-104744912D02*
X171680087Y-104744912D01*
X174330087Y-104744912D02*
X174330087Y-107504912D01*
X174330087Y-107504912D02*
X171680087Y-107504912D01*
X175600087Y-104744913D02*
X176980087Y-104744912D01*
X176980087Y-104744912D02*
X176980086Y-106124912D01*
D10*
%TO.C,D10*%
X163848000Y-88332000D02*
X168952000Y-88332000D01*
X168952000Y-85668000D02*
X163575000Y-85668000D01*
%TO.C,Q2*%
X167525087Y-96374911D02*
X167525087Y-96374911D01*
X167525087Y-96574911D02*
X167525087Y-96574911D01*
X167525087Y-96574911D02*
X167525087Y-96574911D01*
X167525087Y-96374911D02*
G75*
G02*
X167525087Y-96574911I0J-100000D01*
G01*
X167525087Y-96374911D02*
G75*
G02*
X167525087Y-96574911I0J-100000D01*
G01*
X167525087Y-96574911D02*
G75*
G02*
X167525087Y-96374911I0J100000D01*
G01*
D13*
%TO.C,U1*%
X172320087Y-95499912D02*
X172320087Y-96999912D01*
X174230087Y-95499912D02*
X174230087Y-96999912D01*
D10*
X173875088Y-94474912D02*
G75*
G02*
X173675086Y-94474912I-100001J0D01*
G01*
X173675086Y-94474912D02*
G75*
G02*
X173875088Y-94474912I100001J0D01*
G01*
D11*
%TO.C,C3*%
X145711252Y-113490000D02*
X144288748Y-113490000D01*
X145711252Y-115310000D02*
X144288748Y-115310000D01*
D10*
%TO.C,D5*%
X164150000Y-88700001D02*
X162950000Y-88700001D01*
X164620000Y-89700000D02*
X162950000Y-89699999D01*
D11*
%TO.C,D6*%
X157465000Y-85400000D02*
X157465000Y-87685000D01*
X157465000Y-87685000D02*
X158935000Y-87685000D01*
X158935000Y-87685000D02*
X158935000Y-85400000D01*
%TO.C,C16*%
X160890000Y-86111252D02*
X160890000Y-84688748D01*
X162710000Y-86111252D02*
X162710000Y-84688748D01*
%TO.C,L1*%
X152261253Y-111090000D02*
X151738747Y-111090000D01*
X152261253Y-113310000D02*
X151738747Y-113310000D01*
%TO.C,TP4*%
X166647208Y-104995619D02*
X166647208Y-107755619D01*
X166757208Y-104995619D02*
X166647208Y-104995619D01*
X166757208Y-104995619D02*
X166757208Y-107755619D01*
X166757208Y-107755619D02*
X166647208Y-107755619D01*
X168027208Y-104995620D02*
X169407208Y-104995619D01*
X169407208Y-104995619D02*
X169407207Y-106375619D01*
%TO.C,R7*%
X172512345Y-92727411D02*
X172037829Y-92727411D01*
X172512345Y-93772411D02*
X172037829Y-93772411D01*
D10*
%TO.C,Q3*%
X187340000Y-92380750D02*
X190260000Y-92380750D01*
X187340000Y-92480750D02*
X187340000Y-92380750D01*
X190260000Y-92380750D02*
X190260000Y-92480750D01*
X190260000Y-92480750D02*
X187340000Y-92480750D01*
X190300000Y-90730750D02*
X190300000Y-92030750D01*
D13*
%TO.C,B1*%
X185500000Y-103725000D02*
X185500000Y-105225000D01*
X185750000Y-103725000D02*
X185500000Y-103725000D01*
X185850000Y-103625000D02*
X185750000Y-103725000D01*
X186150000Y-104525000D02*
X186650000Y-104525000D01*
X186400000Y-104775000D02*
X186400000Y-104275000D01*
X187700000Y-104775000D02*
X187700000Y-104275000D01*
X188150000Y-103625000D02*
X185850000Y-103625000D01*
X188250000Y-103725000D02*
X188150000Y-103625000D01*
X188500000Y-103725000D02*
X188250000Y-103725000D01*
X188500000Y-105225000D02*
X188500000Y-103725000D01*
X182000000Y-110525000D02*
G75*
G02*
X185250000Y-105841250I5000003J-1D01*
G01*
X185500000Y-105225000D02*
G75*
G02*
X185249996Y-105841247I-1293200J165800D01*
G01*
X187000000Y-115525000D02*
G75*
G02*
X182000000Y-110525000I0J5000000D01*
G01*
X188750000Y-105841250D02*
G75*
G02*
X188500006Y-105224999I1015400J770750D01*
G01*
X188750000Y-105841250D02*
G75*
G02*
X192000000Y-110525000I-1750000J-4683748D01*
G01*
X192000000Y-110525000D02*
G75*
G02*
X187000000Y-115525000I-5000000J0D01*
G01*
D10*
%TO.C,D1*%
X146100000Y-91370000D02*
X146100001Y-89700000D01*
X147099999Y-90900000D02*
X147099999Y-89700000D01*
D11*
%TO.C,C22*%
X157503000Y-101078580D02*
X157503000Y-100797420D01*
X158523000Y-101078580D02*
X158523000Y-100797420D01*
D12*
%TO.C,PS1*%
X151800000Y-114200000D02*
X151800000Y-114200000D01*
X151800000Y-114300000D02*
X151800000Y-114300000D01*
X152400000Y-113800000D02*
X154400000Y-113800000D01*
X152400000Y-115800000D02*
X154400000Y-115800000D01*
X151800000Y-114200000D02*
G75*
G02*
X151800000Y-114300000I0J-50000D01*
G01*
X151800000Y-114300000D02*
G75*
G02*
X151800000Y-114200000I0J50000D01*
G01*
D11*
%TO.C,R14*%
X175077500Y-114587742D02*
X175077500Y-115062258D01*
X176122500Y-114587742D02*
X176122500Y-115062258D01*
D13*
%TO.C,U2*%
X144122500Y-91910000D02*
X165077500Y-91910000D01*
X144122500Y-109690000D02*
X144122500Y-91910000D01*
X165077500Y-91910000D02*
X165077500Y-109690000D01*
X165077500Y-109690000D02*
X144122500Y-109690000D01*
D10*
X147016500Y-110300000D02*
G75*
G02*
X146816500Y-110300000I-100000J0D01*
G01*
X146816500Y-110300000D02*
G75*
G02*
X147016500Y-110300000I100000J0D01*
G01*
D11*
%TO.C,R15*%
X153562742Y-94477500D02*
X154037258Y-94477500D01*
X153562742Y-95522500D02*
X154037258Y-95522500D01*
%TO.C,C18*%
X155659419Y-88552250D02*
X155940581Y-88552250D01*
X155659419Y-89572250D02*
X155940581Y-89572250D01*
%TO.C,C6*%
X161240580Y-115790000D02*
X160959420Y-115790000D01*
X161240580Y-116810000D02*
X160959420Y-116810000D01*
%TO.C,R21*%
X188277500Y-88493492D02*
X188277500Y-88968008D01*
X189322500Y-88493492D02*
X189322500Y-88968008D01*
D10*
%TO.C,IC2*%
X159700000Y-113950000D02*
X159700000Y-113150000D01*
D12*
X162100000Y-111450000D02*
X162100000Y-111450000D01*
X162100000Y-111550000D02*
X162100000Y-111550000D01*
D10*
X162600000Y-113950000D02*
X162600000Y-113150000D01*
D12*
X162100000Y-111450000D02*
G75*
G02*
X162100000Y-111550000I0J-50000D01*
G01*
X162100000Y-111550000D02*
G75*
G02*
X162100000Y-111450000I0J50000D01*
G01*
D11*
%TO.C,C2*%
X172415668Y-97989912D02*
X172134506Y-97989912D01*
X172415668Y-99009912D02*
X172134506Y-99009912D01*
D14*
%TO.C,IC6*%
X152682000Y-100208000D02*
X152682000Y-100208000D01*
X152709000Y-100208000D02*
X152709000Y-100208000D01*
X152682000Y-100208000D02*
G75*
G02*
X152709000Y-100208000I13500J0D01*
G01*
X152709000Y-100208000D02*
G75*
G02*
X152682000Y-100208000I-13500J0D01*
G01*
D11*
%TO.C,R23*%
X159151258Y-90277500D02*
X158676742Y-90277500D01*
X159151258Y-91322500D02*
X158676742Y-91322500D01*
D10*
%TO.C,Q1*%
X168825087Y-98674912D02*
X168825087Y-98674912D01*
X168825087Y-98674912D02*
X168825087Y-98674912D01*
X168825087Y-98874912D02*
X168825087Y-98874912D01*
X168825087Y-98674912D02*
G75*
G02*
X168825087Y-98874912I0J-100000D01*
G01*
X168825087Y-98874912D02*
G75*
G02*
X168825087Y-98674912I0J100000D01*
G01*
X168825087Y-98874912D02*
G75*
G02*
X168825087Y-98674912I0J100000D01*
G01*
D15*
%TO.C,IC3*%
X171775000Y-113425000D02*
G75*
G02*
X171525000Y-113425000I-125000J0D01*
G01*
X171525000Y-113425000D02*
G75*
G02*
X171775000Y-113425000I125000J0D01*
G01*
D11*
%TO.C,C12*%
X171709419Y-112065000D02*
X171990581Y-112065000D01*
X171709419Y-113085000D02*
X171990581Y-113085000D01*
%TO.C,R9*%
X177612742Y-110552500D02*
X178087258Y-110552500D01*
X177612742Y-111597500D02*
X178087258Y-111597500D01*
%TO.C,C21*%
X152608500Y-85679352D02*
X152608500Y-85398190D01*
X153628500Y-85679352D02*
X153628500Y-85398190D01*
%TO.C,R5*%
X157162742Y-117277500D02*
X157637258Y-117277500D01*
X157162742Y-118322500D02*
X157637258Y-118322500D01*
%TO.C,TP7*%
X167445000Y-111180000D02*
X167445000Y-109800000D01*
X168825000Y-111180000D02*
X167445000Y-111180000D01*
X170095000Y-108420000D02*
X172745000Y-108420000D01*
X170095000Y-111180000D02*
X170095000Y-108420000D01*
X170095000Y-111180000D02*
X172745000Y-111180000D01*
X172745000Y-111180000D02*
X172745000Y-108420000D01*
%TO.C,R18*%
X149077500Y-105162742D02*
X149077500Y-105637258D01*
X150122500Y-105162742D02*
X150122500Y-105637258D01*
%TO.C,TP2*%
X175945087Y-96619912D02*
X175945087Y-99379912D01*
X176055087Y-96619912D02*
X175945087Y-96619912D01*
X176055087Y-96619912D02*
X176055087Y-99379912D01*
X176055087Y-99379912D02*
X175945087Y-99379912D01*
X177325087Y-96619913D02*
X178705087Y-96619912D01*
X178705087Y-96619912D02*
X178705086Y-97999912D01*
%TO.C,D2*%
X152864999Y-89250000D02*
X152864999Y-91535000D01*
X152864999Y-91535000D02*
X154334999Y-91535000D01*
X154334999Y-91535000D02*
X154334999Y-89250000D01*
%TO.C,R20*%
X185527501Y-89493492D02*
X185527501Y-89968008D01*
X186572501Y-89493492D02*
X186572501Y-89968008D01*
%TO.C,R8*%
X172512345Y-101977412D02*
X172037829Y-101977412D01*
X172512345Y-103022412D02*
X172037829Y-103022412D01*
%TO.C,C20*%
X183090000Y-92942001D02*
X183090000Y-91519497D01*
X184910000Y-92942001D02*
X184910000Y-91519497D01*
%TO.C,L2*%
X160838747Y-117440000D02*
X161361253Y-117440000D01*
X160838747Y-119660000D02*
X161361253Y-119660000D01*
%TO.C,TP8*%
X143155000Y-110220000D02*
X143155000Y-112980000D01*
X145805000Y-110220000D02*
X143155000Y-110220000D01*
X145805000Y-110220000D02*
X145805000Y-112980000D01*
X145805000Y-112980000D02*
X143155000Y-112980000D01*
X147075000Y-110220001D02*
X148455000Y-110220000D01*
X148455000Y-110220000D02*
X148454999Y-111600000D01*
%TO.C,R4*%
X155362742Y-110277500D02*
X155837258Y-110277500D01*
X155362742Y-111322500D02*
X155837258Y-111322500D01*
%TO.C,R17*%
X159277500Y-86437258D02*
X159277500Y-85962742D01*
X160322500Y-86437258D02*
X160322500Y-85962742D01*
%TD*%
%LPC*%
D16*
%TO.C,C11*%
X151075001Y-116000000D03*
X148124999Y-116000000D03*
%TD*%
D17*
%TO.C,C19*%
X153988000Y-104188000D03*
X155538000Y-104188000D03*
%TD*%
D18*
%TO.C,TP1*%
X178600000Y-84600000D03*
D19*
X176060000Y-84600000D03*
%TD*%
D20*
%TO.C,R1*%
X153575000Y-117800000D03*
X155225000Y-117800000D03*
%TD*%
D21*
%TO.C,C8*%
X163850000Y-113075000D03*
X163850000Y-116025000D03*
%TD*%
D22*
%TO.C,C9*%
X150099999Y-90775001D03*
X150099999Y-87824999D03*
%TD*%
D23*
%TO.C,SW2*%
X166450000Y-82500000D03*
X168750000Y-82500000D03*
D24*
X165550000Y-83800000D03*
X169650000Y-83800000D03*
%TD*%
D25*
%TO.C,C14*%
X163975000Y-90600000D03*
X162425000Y-90600000D03*
%TD*%
D26*
%TO.C,D3*%
X180100000Y-115612500D03*
X180100000Y-114037500D03*
%TD*%
D27*
%TO.C,R6*%
X171525087Y-97074912D03*
X171525087Y-95424912D03*
%TD*%
D28*
%TO.C,BT1*%
X182900000Y-87525000D03*
X183900000Y-87525000D03*
D29*
X181600000Y-85000000D03*
X185200000Y-85000000D03*
%TD*%
D30*
%TO.C,C7*%
X148100001Y-90825000D03*
X148100001Y-89275000D03*
%TD*%
D26*
%TO.C,D4*%
X178600000Y-115612500D03*
X178600000Y-114037500D03*
%TD*%
D31*
%TO.C,C5*%
X177100000Y-114050000D03*
X177100000Y-115600000D03*
%TD*%
D20*
%TO.C,R3*%
X171450087Y-100499913D03*
X173100087Y-100499913D03*
%TD*%
D16*
%TO.C,C13*%
X151075001Y-118400000D03*
X148124999Y-118400000D03*
%TD*%
D32*
%TO.C,H4*%
X190349999Y-117800000D03*
%TD*%
D30*
%TO.C,C17*%
X186050001Y-93755750D03*
X186050001Y-92205750D03*
%TD*%
D33*
%TO.C,SW1*%
X175200000Y-88600000D03*
X179650000Y-88600000D03*
%TD*%
D21*
%TO.C,C10*%
X166100000Y-113075000D03*
X166100000Y-116025000D03*
%TD*%
D20*
%TO.C,R10*%
X177025000Y-112575000D03*
X178675000Y-112575000D03*
%TD*%
D34*
%TO.C,R16*%
X146600000Y-104575000D03*
X146600000Y-106225000D03*
%TD*%
D27*
%TO.C,R11*%
X152100000Y-90875000D03*
X152100000Y-89225000D03*
%TD*%
D35*
%TO.C,R2*%
X161425000Y-110800000D03*
X159775000Y-110800000D03*
%TD*%
D27*
%TO.C,R19*%
X148100000Y-106225000D03*
X148100000Y-104575000D03*
%TD*%
D23*
%TO.C,SW3*%
X168750000Y-119100000D03*
X166450000Y-119100000D03*
D36*
X169650000Y-117800000D03*
X165550000Y-117800000D03*
%TD*%
D34*
%TO.C,R12*%
X172100000Y-116975000D03*
X172100000Y-118625000D03*
%TD*%
D37*
%TO.C,J1*%
X171000000Y-86500001D03*
D38*
X171000000Y-87500001D03*
%TD*%
D21*
%TO.C,C4*%
X158350000Y-113125000D03*
X158350000Y-116075000D03*
%TD*%
D22*
%TO.C,C1*%
X156000000Y-116075001D03*
X156000000Y-113124999D03*
%TD*%
D34*
%TO.C,R13*%
X170600000Y-114225000D03*
X170600000Y-115875000D03*
%TD*%
D39*
%TO.C,D7*%
X185750000Y-96200000D03*
X189850000Y-96200000D03*
%TD*%
D40*
%TO.C,IC5*%
X155118501Y-86844499D03*
X155618501Y-86844499D03*
D41*
X156130501Y-86581499D03*
X156130500Y-86081499D03*
X156130501Y-85581499D03*
D40*
X155618501Y-85318499D03*
X155118501Y-85318499D03*
D41*
X154606501Y-85581499D03*
X154606502Y-86081499D03*
X154606501Y-86581499D03*
%TD*%
D34*
%TO.C,R22*%
X155013000Y-96575000D03*
X155013000Y-98225000D03*
%TD*%
D18*
%TO.C,TP5*%
X177325087Y-93124912D03*
%TD*%
%TO.C,TP6*%
X175600087Y-106124912D03*
D19*
X173060087Y-106124912D03*
%TD*%
D39*
%TO.C,D10*%
X164350000Y-87000000D03*
X168450000Y-87000000D03*
%TD*%
D42*
%TO.C,Q2*%
X168825087Y-94274911D03*
D43*
X168825087Y-93299911D03*
X167525087Y-95249911D03*
X168175087Y-95249911D03*
D44*
X167850087Y-94274911D03*
D43*
X167525087Y-93299911D03*
X168175087Y-93299911D03*
X168825087Y-95249911D03*
%TD*%
D45*
%TO.C,U1*%
X173775086Y-95659912D03*
D46*
X173275087Y-95619912D03*
X172775087Y-95619912D03*
X172775087Y-96879912D03*
X173275087Y-96879912D03*
X173775087Y-96879912D03*
%TD*%
D16*
%TO.C,C3*%
X146475001Y-114400000D03*
X143524999Y-114400000D03*
%TD*%
D47*
%TO.C,D5*%
X164300000Y-89200000D03*
X162800000Y-89200000D03*
%TD*%
D26*
%TO.C,D6*%
X158200000Y-86987501D03*
X158200000Y-85412499D03*
%TD*%
D22*
%TO.C,C16*%
X161800000Y-86875001D03*
X161800000Y-83924999D03*
%TD*%
D48*
%TO.C,L1*%
X153075000Y-112200000D03*
X150925000Y-112200000D03*
%TD*%
D18*
%TO.C,TP4*%
X168027208Y-106375619D03*
%TD*%
D35*
%TO.C,R7*%
X173100087Y-93249911D03*
X171450087Y-93249911D03*
%TD*%
D49*
%TO.C,Q3*%
X189750000Y-91380750D03*
X187850000Y-91380750D03*
X188800000Y-93480750D03*
%TD*%
D50*
%TO.C,B1*%
X187650000Y-98625000D03*
X186350000Y-98625000D03*
%TD*%
D51*
%TO.C,D1*%
X146600000Y-91050000D03*
X146600000Y-89550000D03*
%TD*%
D30*
%TO.C,C22*%
X158013000Y-101713000D03*
X158013000Y-100163000D03*
%TD*%
D32*
%TO.C,H1*%
X144849999Y-83800000D03*
%TD*%
D52*
%TO.C,PS1*%
X152775000Y-114250000D03*
D53*
X152925000Y-114800000D03*
D52*
X152775000Y-115350000D03*
D54*
X154375000Y-115550000D03*
X154375000Y-115050000D03*
X154375000Y-114550000D03*
X154375000Y-114050000D03*
%TD*%
D34*
%TO.C,R14*%
X175600000Y-114000000D03*
X175600000Y-115650000D03*
%TD*%
D55*
%TO.C,U2*%
X147043500Y-108420000D03*
D56*
X149583500Y-108420000D03*
X152123500Y-108420000D03*
X154663500Y-108420000D03*
X157203500Y-108420000D03*
X159743500Y-108420000D03*
X162283500Y-108420000D03*
X162283500Y-93180000D03*
X159743500Y-93180000D03*
X157203500Y-93180000D03*
X154663500Y-93180000D03*
X152123500Y-93180000D03*
X149583500Y-93180000D03*
X147043500Y-93180000D03*
%TD*%
D20*
%TO.C,R15*%
X152975000Y-95000000D03*
X154625000Y-95000000D03*
%TD*%
D17*
%TO.C,C18*%
X155025000Y-89062250D03*
X156575000Y-89062250D03*
%TD*%
D25*
%TO.C,C6*%
X161875000Y-116300000D03*
X160325000Y-116300000D03*
%TD*%
D34*
%TO.C,R21*%
X188800000Y-87905750D03*
X188800000Y-89555750D03*
%TD*%
D57*
%TO.C,IC2*%
X162100000Y-112451000D03*
X161150000Y-112451000D03*
X160200000Y-112451000D03*
X160200000Y-114649000D03*
X161150000Y-114649000D03*
X162100000Y-114649000D03*
%TD*%
D25*
%TO.C,C2*%
X173050087Y-98499912D03*
X171500087Y-98499912D03*
%TD*%
D58*
%TO.C,IC6*%
X153437000Y-100438000D03*
X153437000Y-100938000D03*
X153437000Y-101438000D03*
X153437000Y-101938000D03*
D59*
X154100000Y-102100000D03*
X154600000Y-102100000D03*
X155100000Y-102100000D03*
D58*
X155763000Y-101938000D03*
X155763000Y-101438000D03*
X155763000Y-100938000D03*
X155763000Y-100438000D03*
D59*
X155100000Y-100276000D03*
X154600000Y-100276000D03*
X154100000Y-100276000D03*
%TD*%
D32*
%TO.C,H3*%
X144849999Y-117800000D03*
%TD*%
D35*
%TO.C,R23*%
X159739000Y-90800000D03*
X158089000Y-90800000D03*
%TD*%
D42*
%TO.C,Q1*%
X167525087Y-100974912D03*
D43*
X167525087Y-101949912D03*
X168825087Y-99999912D03*
X168175087Y-99999912D03*
D44*
X168500087Y-100974912D03*
D43*
X168825087Y-101949912D03*
X168175087Y-101949912D03*
X167525087Y-99999912D03*
%TD*%
D60*
%TO.C,IC3*%
X172000000Y-114075000D03*
X172000000Y-114575000D03*
X172000000Y-115075000D03*
X172000000Y-115575000D03*
X174100000Y-115575000D03*
X174100000Y-115075000D03*
X174100000Y-114575000D03*
X174100000Y-114075000D03*
D61*
X173050000Y-114825000D03*
%TD*%
D17*
%TO.C,C12*%
X171075000Y-112575000D03*
X172625000Y-112575000D03*
%TD*%
D20*
%TO.C,R9*%
X177025000Y-111075000D03*
X178675000Y-111075000D03*
%TD*%
D30*
%TO.C,C21*%
X153118500Y-86313771D03*
X153118500Y-84763771D03*
%TD*%
D20*
%TO.C,R5*%
X156575000Y-117800000D03*
X158225000Y-117800000D03*
%TD*%
D18*
%TO.C,TP7*%
X168825000Y-109800000D03*
D19*
X171365000Y-109800000D03*
%TD*%
D34*
%TO.C,R18*%
X149600000Y-104575000D03*
X149600000Y-106225000D03*
%TD*%
D18*
%TO.C,TP2*%
X177325087Y-97999912D03*
%TD*%
D32*
%TO.C,H2*%
X190349999Y-83800000D03*
%TD*%
D26*
%TO.C,D2*%
X153599999Y-90837501D03*
X153599999Y-89262499D03*
%TD*%
D34*
%TO.C,R20*%
X186050001Y-88905750D03*
X186050001Y-90555750D03*
%TD*%
D35*
%TO.C,R8*%
X173100087Y-102499912D03*
X171450087Y-102499912D03*
%TD*%
D22*
%TO.C,C20*%
X184000000Y-93705749D03*
X184000000Y-90755749D03*
%TD*%
D62*
%TO.C,L2*%
X160025000Y-118550000D03*
X162175000Y-118550000D03*
%TD*%
D18*
%TO.C,TP8*%
X147075000Y-111600000D03*
D19*
X144535000Y-111600000D03*
%TD*%
D20*
%TO.C,R4*%
X154775000Y-110800000D03*
X156425000Y-110800000D03*
%TD*%
D27*
%TO.C,R17*%
X159800000Y-87025000D03*
X159800000Y-85375000D03*
%TD*%
D18*
%TO.C,J2*%
X180600000Y-108420000D03*
D19*
X180600000Y-105880000D03*
X180600000Y-103340000D03*
X180600000Y-100800000D03*
X180600000Y-98260000D03*
X180600000Y-95720000D03*
X180600000Y-93180000D03*
%TD*%
%LPD*%
M02*
