M48
; DRILL file {KiCad 9.0.1} date 2025-04-28T20:04:23+0800
; FORMAT={-:-/ absolute / inch / decimal}
; #@! TF.CreationDate,2025-04-28T20:04:23+08:00
; #@! TF.GenerationSoftware,Kicad,Pcbnew,9.0.1
; #@! TF.FileFunction,Plated,1,2,PTH
FMAT,2
INCH
; #@! TA.AperFunction,Plated,PTH,ViaDrill
T1C0.0118
; #@! TA.AperFunction,Plated,PTH,ComponentDrill
T2C0.0197
; #@! TA.AperFunction,Plated,PTH,ComponentDrill
T3C0.0335
; #@! TA.AperFunction,Plated,PTH,ComponentDrill
T4C0.0394
%
G90
G05
T1
X4.8228Y-2.9232
X4.8228Y-2.9528
X4.8504Y-3.7894
X4.8524Y-2.9232
X4.8524Y-2.9528
X4.872Y-4.4587
X4.872Y-4.5177
X4.8819Y-2.9232
X4.8819Y-2.9528
X4.9409Y-2.7559
X5.0039Y-4.6161
X5.0295Y-3.5236
X5.0295Y-3.5531
X5.0512Y-3.7244
X5.0591Y-3.5236
X5.0591Y-3.5531
X5.0886Y-3.5236
X5.0886Y-3.5531
X5.1181Y-3.5236
X5.1181Y-3.5531
X5.1181Y-3.5827
X5.1181Y-3.6122
X5.1476Y-3.5236
X5.1476Y-3.5531
X5.1476Y-3.5827
X5.1476Y-3.6122
X5.4547Y-3.6299
X5.5512Y-4.3602
X5.561Y-4.4193
X5.5659Y-4.4783
X5.5659Y-4.5079
X5.5669Y-4.5531
X5.6624Y-5.1575
X5.7333Y-4.498
X5.7333Y-4.5276
X5.75Y-3.62
X5.7704Y-5.4666
X5.8484Y-3.62
X5.8937Y-5.2657
X6.0236Y-2.7559
X6.0236Y-2.7854
X6.063Y-2.7559
X6.063Y-2.7854
X6.1024Y-2.7559
X6.1024Y-2.7854
X6.1368Y-2.5886
X6.1417Y-3.4547
X6.1811Y-3.4547
X6.1909Y-2.6496
X6.2303Y-2.7264
X6.2304Y-2.6969
X6.2441Y-2.7657
X6.25Y-5.5315
X6.2598Y-2.7264
X6.2599Y-2.6969
X6.2894Y-2.6969
X6.2894Y-2.7264
X6.3287Y-5.2657
X6.3465Y-3.3957
X6.376Y-2.8071
X6.3976Y-5.5315
X6.4075Y-2.8346
X6.4094Y-3.3366
X6.4124Y-3.5748
X6.437Y-2.8346
X6.4665Y-2.8346
X6.4665Y-5.3445
X6.4715Y-3.5748
X6.4961Y-2.8346
X6.501Y-2.6516
X6.5157Y-2.7165
X6.5157Y-2.7461
X6.5157Y-2.7756
X6.5256Y-2.8346
X6.5256Y-3.7598
X6.5453Y-2.7165
X6.5453Y-2.7461
X6.5453Y-2.7756
X6.5551Y-2.8346
X6.7224Y-2.5098
X6.7224Y-2.5492
X6.7224Y-2.5886
X6.7224Y-2.628
T2
X5.3543Y-5.2047
X5.3543Y-5.2559
T3
X6.073Y-5.3666
X6.073Y-5.4666
X6.073Y-5.5666
X6.073Y-5.6666
X6.073Y-5.7666
X6.073Y-5.8666
X6.073Y-5.9666
X6.673Y-5.3666
X6.673Y-5.4666
X6.673Y-5.5666
X6.673Y-5.6666
X6.673Y-5.7666
X6.673Y-5.8666
X6.673Y-5.9666
T4
X4.8957Y-2.3524
X4.9154Y-3.2972
X4.9957Y-2.3524
X5.0154Y-3.2972
X5.4626Y-5.7744
X5.4626Y-5.8744
X5.4626Y-5.9744
X5.4626Y-6.0744
X5.4626Y-6.1744
X5.4626Y-6.2744
X5.4626Y-6.3744
X5.5748Y-3.2972
X5.5949Y-2.3524
X5.5955Y-2.6969
X5.6748Y-3.2972
X5.6939Y-2.6969
X5.6949Y-2.3524
X6.1319Y-2.4213
X6.3238Y-2.4213
X6.3238Y-4.3789
X6.4222Y-4.3789
X6.6437Y-2.4892
X6.6437Y-2.5892
X6.6536Y-2.7873
M30
