%TF.GenerationSoftware,KiCad,Pcbnew,9.0.1*%
%TF.CreationDate,2025-04-28T20:04:23+08:00*%
%TF.ProjectId,pcb_all,7063625f-616c-46c2-9e6b-696361645f70,rev?*%
%TF.SameCoordinates,Original*%
%TF.FileFunction,Legend,Bot*%
%TF.FilePolarity,Positive*%
%FSLAX46Y46*%
G04 Gerber Fmt 4.6, Leading zero omitted, Abs format (unit mm)*
G04 Created by KiCad (PCBNEW 9.0.1) date 2025-04-28 20:04:23*
%MOMM*%
%LPD*%
G01*
G04 APERTURE LIST*
G04 Aperture macros list*
%AMRoundRect*
0 Rectangle with rounded corners*
0 $1 Rounding radius*
0 $2 $3 $4 $5 $6 $7 $8 $9 X,Y pos of 4 corners*
0 Add a 4 corners polygon primitive as box body*
4,1,4,$2,$3,$4,$5,$6,$7,$8,$9,$2,$3,0*
0 Add four circle primitives for the rounded corners*
1,1,$1+$1,$2,$3*
1,1,$1+$1,$4,$5*
1,1,$1+$1,$6,$7*
1,1,$1+$1,$8,$9*
0 Add four rect primitives between the rounded corners*
20,1,$1+$1,$2,$3,$4,$5,0*
20,1,$1+$1,$4,$5,$6,$7,0*
20,1,$1+$1,$6,$7,$8,$9,0*
20,1,$1+$1,$8,$9,$2,$3,0*%
G04 Aperture macros list end*
%ADD10R,1.700000X1.700000*%
%ADD11C,1.700000*%
%ADD12RoundRect,0.250000X-0.600000X-0.750000X0.600000X-0.750000X0.600000X0.750000X-0.600000X0.750000X0*%
%ADD13O,1.700000X2.000000*%
%ADD14C,1.212000*%
%ADD15RoundRect,0.102000X0.679000X0.679000X-0.679000X0.679000X-0.679000X-0.679000X0.679000X-0.679000X0*%
%ADD16C,1.562000*%
G04 APERTURE END LIST*
%LPC*%
D10*
%TO.C,TP1*%
X144650000Y-59750000D03*
D11*
X142110000Y-59750000D03*
%TD*%
D12*
%TO.C,BT1*%
X142125000Y-68500000D03*
D13*
X144625000Y-68500000D03*
%TD*%
D12*
%TO.C,J1*%
X160625000Y-111225000D03*
D13*
X163125000Y-111225000D03*
%TD*%
D10*
%TO.C,TP3*%
X124850000Y-83750000D03*
D11*
X127390000Y-83750000D03*
%TD*%
D10*
%TO.C,TP5*%
X155750000Y-61500000D03*
%TD*%
%TO.C,TP6*%
X168750000Y-63225000D03*
D11*
X168750000Y-65765000D03*
%TD*%
D10*
%TO.C,TP4*%
X169000707Y-70797879D03*
%TD*%
D14*
%TO.C,B1*%
X136000000Y-133500000D03*
X136000000Y-132200000D03*
%TD*%
D15*
%TO.C,U2*%
X169495000Y-151551500D03*
D16*
X169495000Y-149011500D03*
X169495000Y-146471500D03*
X169495000Y-143931500D03*
X169495000Y-141391500D03*
X169495000Y-138851500D03*
X169495000Y-136311500D03*
X154255000Y-136311500D03*
X154255000Y-138851500D03*
X154255000Y-141391500D03*
X154255000Y-143931500D03*
X154255000Y-146471500D03*
X154255000Y-149011500D03*
X154255000Y-151551500D03*
%TD*%
D10*
%TO.C,J2*%
X138750000Y-146670001D03*
D11*
X138750000Y-149210001D03*
X138750000Y-151750001D03*
X138750000Y-154290001D03*
X138750000Y-156830001D03*
X138750000Y-159370001D03*
X138750000Y-161910001D03*
%TD*%
D10*
%TO.C,TP7*%
X141600000Y-83750000D03*
D11*
X144140000Y-83750000D03*
%TD*%
D10*
%TO.C,TP8*%
X124350000Y-59750000D03*
D11*
X126890000Y-59750000D03*
%TD*%
D10*
%TO.C,TP2*%
X160625000Y-61500000D03*
%TD*%
%LPD*%
M02*
